<mxfile host="app.diagrams.net" agent="Mozilla/5.0 (Macintosh; Intel Mac OS X 10_15_7) AppleWebKit/537.36 (KHTML, like Gecko) Chrome/135.0.0.0 Safari/537.36" version="27.1.1">
  <diagram name="第 1 页" id="DISwxh4Lo0Xi7sG08lv4">
    <mxGraphModel dx="1851" dy="1158" grid="0" gridSize="10" guides="1" tooltips="1" connect="1" arrows="1" fold="1" page="0" pageScale="1" pageWidth="827" pageHeight="1169" math="0" shadow="0">
      <root>
        <mxCell id="0" />
        <mxCell id="1" parent="0" />
        <mxCell id="suu0JaHc6aoQa4eEZUap-1" value="" style="shape=image;verticalLabelPosition=bottom;labelBackgroundColor=default;verticalAlign=top;imageAspect=0;image=data:image/png,iVBORw0KGgoAAAANSUhEUgAAA+AAAAJiCAYAAABHKKgaAAAAAXNSR0IArs4c6QAAAIRlWElmTU0AKgAAAAgABQESAAMAAAABAAEAAAEaAAUAAAABAAAASgEbAAUAAAABAAAAUgEoAAMAAAABAAIAAIdpAAQAAAABAAAAWgAAAAAAAACQAAAAAQAAAJAAAAABAAOgAQADAAAAAQABAACgAgAEAAAAAQAAA+CgAwAEAAAAAQAAAmIAAAAA3AlaOgAAAAlwSFlzAAAWJQAAFiUBSVIk8AAANSBJREFUeAHt3E1yXWcZhVGbJARCh1kwC8bAUBkDs2AWNCBAQmLOd61jFNuPMVWbTrRu1Y1+tvRSWb2njsKrV14ECBAgQIAAAQIECBAgQIDA/13g9ef8L7x59eqzfu5zbvkZAgQIECBAgAABAgQIECDwcxO4ovlK50+/PhrWz4L7o/unT1oJECBAgAABAgQIECBAgMCLFXiE+MeC/IPAforv8/3z/sXTxw9+7sVS+hcnQIAAAQIECBAgQIAAAQIfCpzwPu8fnz6+uUL6EeP3j/4krJ/F9xfXD5z3l08fz8/95Gevr70IECBAgAABAgQIECBAgACBt6F9YvuH6/2vp4/n859E+Ansx+u9+P7q+ubXT+/z+XkS7kWAAAECBAgQIECAAAECBAh8XOA8+f7+ev/z6X1+6odT5feT8HcBfpbrdZ5ynyffJ75/c72/ud6/vN7ne+d1fve8z+v++PYr/yRAgAABAgQIECBAgAABAi9D4P4L8fPx/vw88f7uen/7RHCC/P5z9Me3ngf4+aXzpPt87wT4N6//+Jc/Xx+9CBAgQIAAAQIECBAgQIAAgc8QePOH3/7u+rHzZ+jnafjjz9Cvj48H2M8D/Preuyfg95+gv7p++fdPv3R++bzvgvcE/MLwIkCAAAECBAgQIECAAIEXJ3A/+T4PsU8/n/cX10PsP10fzwPtx9fXx/vp+PXp26fdJ8Xvbz4/cv933/dj9L9fP3/+lv18fSLciwABAgQIECBAgAABAgQIvFSB08z3f8L96+vz859vn9f5/nnfff1o7uuLN+8/AT8/fMf4+fy8zlPvE99/vd7/uN7nUboAvxC8CBAgQIAAAQIECBAgQODFCpzIPk19mvm83m/p979+/PDbH/3wn/efmJ9j58n3ie8T4ufrs9379akXAQIECBAgQIAAAQIECBB4MQInrs/7/Kn5ed1/hn4+z1b+2BPw8wvndf/Sedp9/uz8/o/I7yfg935+1osAAQIECBAgQIAAAQIECLwUgRPf5wn4eZ34fv6famcrfyrAH5euf5xfPhF+3s8/v770IkCAAAECBAgQIECAAAECL07gjuznjXx/LzE+FeD3L98fz5Hz+ePrK/effz//BwwECBAgQIAAAQIECBAgQODnJHDF8HkC/q6Pn/7d7ka+P37wr3w/Mv9g8A0CBAgQIECAAAECBAgQIEBgJyDAd5YuESBAgAABAgQIECBAgACBFBDgSWMgQIAAAQIECBAgQIAAAQI7AQG+s3SJAAECBAgQIECAAAECBAikgABPGgMBAgQIECBAgAABAgQIENgJCPCdpUsECBAgQIAAAQIECBAgQCAFBHjSGAgQIECAAAECBAgQIECAwE5AgO8sXSJAgAABAgQIECBAgAABAikgwJPGQIAAAQIECBAgQIAAAQIEdgICfGfpEgECBAgQIECAAAECBAgQSAEBnjQGAgQIECBAgAABAgQIECCwExDgO0uXCBAgQIAAAQIECBAgQIBACgjwpDEQIECAAAECBAgQIECAAIGdgADfWbpEgAABAgQIECBAgAABAgRSQIAnjYEAAQIECBAgQIAAAQIECOwEBPjO0iUCBAgQIECAAAECBAgQIJACAjxpDAQIECBAgAABAgQIECBAYCcgwHeWLhEgQIAAAQIECBAgQIAAgRQQ4EljIECAAAECBAgQIECAAAECOwEBvrN0iQABAgQIECBAgAABAgQIpIAATxoDAQIECBAgQIAAAQIECBDYCQjwnaVLBAgQIECAAAECBAgQIEAgBQR40hgIECBAgAABAgQIECBAgMBOQIDvLF0iQIAAAQIECBAgQIAAAQIpIMCTxkCAAAECBAgQIECAAAECBHYCAnxn6RIBAgQIECBAgAABAgQIEEgBAZ40BgIECBAgQIAAAQIECBAgsBMQ4DtLlwgQIECAAAECBAgQIECAQAoI8KQxECBAgAABAgQIECBAgACBnYAA31m6RIAAAQIECBAgQIAAAQIEUkCAJ42BAAECBAgQIECAAAECBAjsBAT4ztIlAgQIECBAgAABAgQIECCQAgI8aQwECBAgQIAAAQIECBAgQGAnIMB3li4RIECAAAECBAgQIECAAIEUEOBJYyBAgAABAgQIECBAgAABAjsBAb6zdIkAAQIECBAgQIAAAQIECKSAAE8aAwECBAgQIECAAAECBAgQ2AkI8J2lSwQIECBAgAABAgQIECBAIAUEeNIYCBAgQIAAAQIECBAgQIDATkCA7yxdIkCAAAECBAgQIECAAAECKSDAk8ZAgAABAgQIECBAgAABAgR2AgJ8Z+kSAQIECBAgQIAAAQIECBBIAQGeNAYCBAgQIECAAAECBAgQILATEOA7S5cIECBAgAABAgQIECBAgEAKCPCkMRAgQIAAAQIECBAgQIAAgZ2AAN9ZukSAAAECBAgQIECAAAECBFJAgCeNgQABAgQIECBAgAABAgQI7AQE+M7SJQIECBAgQIAAAQIECBAgkAICPGkMBAgQIECAAAECBAgQIEBgJyDAd5YuESBAgAABAgQIECBAgACBFBDgSWMgQIAAAQIECBAgQIAAAQI7AQG+s3SJAAECBAgQIECAAAECBAikgABPGgMBAgQIECBAgAABAgQIENgJCPCdpUsECBAgQIAAAQIECBAgQCAFBHjSGAgQIECAAAECBAgQIECAwE5AgO8sXSJAgAABAgQIECBAgAABAikgwJPGQIAAAQIECBAgQIAAAQIEdgICfGfpEgECBAgQIECAAAECBAgQSAEBnjQGAgQIECBAgAABAgQIECCwExDgO0uXCBAgQIAAAQIECBAgQIBACgjwpDEQIECAAAECBAgQIECAAIGdgADfWbpEgAABAgQIECBAgAABAgRSQIAnjYEAAQIECBAgQIAAAQIECOwEBPjO0iUCBAgQIECAAAECBAgQIJACAjxpDAQIECBAgAABAgQIECBAYCcgwHeWLhEgQIAAAQIECBAgQIAAgRQQ4EljIECAAAECBAgQIECAAAECOwEBvrN0iQABAgQIECBAgAABAgQIpIAATxoDAQIECBAgQIAAAQIECBDYCQjwnaVLBAgQIECAAAECBAgQIEAgBQR40hgIECBAgAABAgQIECBAgMBOQIDvLF0iQIAAAQIECBAgQIAAAQIpIMCTxkCAAAECBAgQIECAAAECBHYCAnxn6RIBAgQIECBAgAABAgQIEEgBAZ40BgIECBAgQIAAAQIECBAgsBMQ4DtLlwgQIECAAAECBAgQIECAQAoI8KQxECBAgAABAgQIECBAgACBnYAA31m6RIAAAQIECBAgQIAAAQIEUkCAJ42BAAECBAgQIECAAAECBAjsBAT4ztIlAgQIECBAgAABAgQIECCQAgI8aQwECBAgQIAAAQIECBAgQGAnIMB3li4RIECAAAECBAgQIECAAIEUEOBJYyBAgAABAgQIECBAgAABAjsBAb6zdIkAAQIECBAgQIAAAQIECKSAAE8aAwECBAgQIECAAAECBAgQ2AkI8J2lSwQIECBAgAABAgQIECBAIAUEeNIYCBAgQIAAAQIECBAgQIDATkCA7yxdIkCAAAECBAgQIECAAAECKSDAk8ZAgAABAgQIECBAgAABAgR2AgJ8Z+kSAQIECBAgQIAAAQIECBBIAQGeNAYCBAgQIECAAAECBAgQILATEOA7S5cIECBAgAABAgQIECBAgEAKCPCkMRAgQIAAAQIECBAgQIAAgZ2AAN9ZukSAAAECBAgQIECAAAECBFJAgCeNgQABAgQIECBAgAABAgQI7AQE+M7SJQIECBAgQIAAAQIECBAgkAICPGkMBAgQIECAAAECBAgQIEBgJyDAd5YuESBAgAABAgQIECBAgACBFBDgSWMgQIAAAQIECBAgQIAAAQI7AQG+s3SJAAECBAgQIECAAAECBAikgABPGgMBAgQIECBAgAABAgQIENgJCPCdpUsECBAgQIAAAQIECBAgQCAFBHjSGAgQIECAAAECBAgQIECAwE5AgO8sXSJAgAABAgQIECBAgAABAikgwJPGQIAAAQIECBAgQIAAAQIEdgICfGfpEgECBAgQIECAAAECBAgQSAEBnjQGAgQIECBAgAABAgQIECCwExDgO0uXCBAgQIAAAQIECBAgQIBACgjwpDEQIECAAAECBAgQIECAAIGdgADfWbpEgAABAgQIECBAgAABAgRSQIAnjYEAAQIECBAgQIAAAQIECOwEBPjO0iUCBAgQIECAAAECBAgQIJACAjxpDAQIECBAgAABAgQIECBAYCcgwHeWLhEgQIAAAQIECBAgQIAAgRQQ4EljIECAAAECBAgQIECAAAECOwEBvrN0iQABAgQIECBAgAABAgQIpIAATxoDAQIECBAgQIAAAQIECBDYCQjwnaVLBAgQIECAAAECBAgQIEAgBQR40hgIECBAgAABAgQIECBAgMBOQIDvLF0iQIAAAQIECBAgQIAAAQIpIMCTxkCAAAECBAgQIECAAAECBHYCAnxn6RIBAgQIECBAgAABAgQIEEgBAZ40BgIECBAgQIAAAQIECBAgsBMQ4DtLlwgQIECAAAECBAgQIECAQAoI8KQxECBAgAABAgQIECBAgACBnYAA31m6RIAAAQIECBAgQIAAAQIEUkCAJ42BAAECBAgQIECAAAECBAjsBAT4ztIlAgQIECBAgAABAgQIECCQAgI8aQwECBAgQIAAAQIECBAgQGAnIMB3li4RIECAAAECBAgQIECAAIEUEOBJYyBAgAABAgQIECBAgAABAjsBAb6zdIkAAQIECBAgQIAAAQIECKSAAE8aAwECBAgQIECAAAECBAgQ2AkI8J2lSwQIECBAgAABAgQIECBAIAUEeNIYCBAgQIAAAQIECBAgQIDATkCA7yxdIkCAAAECBAgQIECAAAECKSDAk8ZAgAABAgQIECBAgAABAgR2AgJ8Z+kSAQIECBAgQIAAAQIECBBIAQGeNAYCBAgQIECAAAECBAgQILATEOA7S5cIECBAgAABAgQIECBAgEAKCPCkMRAgQIAAAQIECBAgQIAAgZ2AAN9ZukSAAAECBAgQIECAAAECBFJAgCeNgQABAgQIECBAgAABAgQI7AQE+M7SJQIECBAgQIAAAQIECBAgkAICPGkMBAgQIECAAAECBAgQIEBgJyDAd5YuESBAgAABAgQIECBAgACBFBDgSWMgQIAAAQIECBAgQIAAAQI7AQG+s3SJAAECBAgQIECAAAECBAikgABPGgMBAgQIECBAgAABAgQIENgJCPCdpUsECBAgQIAAAQIECBAgQCAFBHjSGAgQIECAAAECBAgQIECAwE5AgO8sXSJAgAABAgQIECBAgAABAikgwJPGQIAAAQIECBAgQIAAAQIEdgICfGfpEgECBAgQIECAAAECBAgQSAEBnjQGAgQIECBAgAABAgQIECCwExDgO0uXCBAgQIAAAQIECBAgQIBACgjwpDEQIECAAAECBAgQIECAAIGdgADfWbpEgAABAgQIECBAgAABAgRSQIAnjYEAAQIECBAgQIAAAQIECOwEBPjO0iUCBAgQIECAAAECBAgQIJACAjxpDAQIECBAgAABAgQIECBAYCcgwHeWLhEgQIAAAQIECBAgQIAAgRQQ4EljIECAAAECBAgQIECAAAECOwEBvrN0iQABAgQIECBAgAABAgQIpIAATxoDAQIECBAgQIAAAQIECBDYCQjwnaVLBAgQIECAAAECBAgQIEAgBQR40hgIECBAgAABAgQIECBAgMBOQIDvLF0iQIAAAQIECBAgQIAAAQIpIMCTxkCAAAECBAgQIECAAAECBHYCAnxn6RIBAgQIECBAgAABAgQIEEgBAZ40BgIECBAgQIAAAQIECBAgsBMQ4DtLlwgQIECAAAECBAgQIECAQAoI8KQxECBAgAABAgQIECBAgACBnYAA31m6RIAAAQIECBAgQIAAAQIEUkCAJ42BAAECBAgQIECAAAECBAjsBAT4ztIlAgQIECBAgAABAgQIECCQAgI8aQwECBAgQIAAAQIECBAgQGAnIMB3li4RIECAAAECBAgQIECAAIEUEOBJYyBAgAABAgQIECBAgAABAjsBAb6zdIkAAQIECBAgQIAAAQIECKSAAE8aAwECBAgQIECAAAECBAgQ2AkI8J2lSwQIECBAgAABAgQIECBAIAUEeNIYCBAgQIAAAQIECBAgQIDATkCA7yxdIkCAAAECBAgQIECAAAECKSDAk8ZAgAABAgQIECBAgAABAgR2AgJ8Z+kSAQIECBAgQIAAAQIECBBIAQGeNAYCBAgQIECAAAECBAgQILATEOA7S5cIECBAgAABAgQIECBAgEAKCPCkMRAgQIAAAQIECBAgQIAAgZ2AAN9ZukSAAAECBAgQIECAAAECBFJAgCeNgQABAgQIECBAgAABAgQI7AQE+M7SJQIECBAgQIAAAQIECBAgkAICPGkMBAgQIECAAAECBAgQIEBgJyDAd5YuESBAgAABAgQIECBAgACBFBDgSWMgQIAAAQIECBAgQIAAAQI7AQG+s3SJAAECBAgQIECAAAECBAikgABPGgMBAgQIECBAgAABAgQIENgJCPCdpUsECBAgQIAAAQIECBAgQCAFBHjSGAgQIECAAAECBAgQIECAwE5AgO8sXSJAgAABAgQIECBAgAABAikgwJPGQIAAAQIECBAgQIAAAQIEdgICfGfpEgECBAgQIECAAAECBAgQSAEBnjQGAgQIECBAgAABAgQIECCwExDgO0uXCBAgQIAAAQIECBAgQIBACgjwpDEQIECAAAECBAgQIECAAIGdgADfWbpEgAABAgQIECBAgAABAgRSQIAnjYEAAQIECBAgQIAAAQIECOwEBPjO0iUCBAgQIECAAAECBAgQIJACAjxpDAQIECBAgAABAgQIECBAYCcgwHeWLhEgQIAAAQIECBAgQIAAgRQQ4EljIECAAAECBAgQIECAAAECOwEBvrN0iQABAgQIECBAgAABAgQIpIAATxoDAQIECBAgQIAAAQIECBDYCQjwnaVLBAgQIECAAAECBAgQIEAgBQR40hgIECBAgAABAgQIECBAgMBOQIDvLF0iQIAAAQIECBAgQIAAAQIpIMCTxkCAAAECBAgQIECAAAECBHYCAnxn6RIBAgQIECBAgAABAgQIEEgBAZ40BgIECBAgQIAAAQIECBAgsBMQ4DtLlwgQIECAAAECBAgQIECAQAoI8KQxECBAgAABAgQIECBAgACBnYAA31m6RIAAAQIECBAgQIAAAQIEUkCAJ42BAAECBAgQIECAAAECBAjsBAT4ztIlAgQIECBAgAABAgQIECCQAgI8aQwECBAgQIAAAQIECBAgQGAnIMB3li4RIECAAAECBAgQIECAAIEUEOBJYyBAgAABAgQIECBAgAABAjsBAb6zdIkAAQIECBAgQIAAAQIECKSAAE8aAwECBAgQIECAAAECBAgQ2AkI8J2lSwQIECBAgAABAgQIECBAIAUEeNIYCBAgQIAAAQIECBAgQIDATkCA7yxdIkCAAAECBAgQIECAAAECKSDAk8ZAgAABAgQIECBAgAABAgR2AgJ8Z+kSAQIECBAgQIAAAQIECBBIAQGeNAYCBAgQIECAAAECBAgQILATEOA7S5cIECBAgAABAgQIECBAgEAKCPCkMRAgQIAAAQIECBAgQIAAgZ2AAN9ZukSAAAECBAgQIECAAAECBFJAgCeNgQABAgQIECBAgAABAgQI7AQE+M7SJQIECBAgQIAAAQIECBAgkAICPGkMBAgQIECAAAECBAgQIEBgJyDAd5YuESBAgAABAgQIECBAgACBFBDgSWMgQIAAAQIECBAgQIAAAQI7AQG+s3SJAAECBAgQIECAAAECBAikgABPGgMBAgQIECBAgAABAgQIENgJCPCdpUsECBAgQIAAAQIECBAgQCAFBHjSGAgQIECAAAECBAgQIECAwE5AgO8sXSJAgAABAgQIECBAgAABAikgwJPGQIAAAQIECBAgQIAAAQIEdgICfGfpEgECBAgQIECAAAECBAgQSAEBnjQGAgQIECBAgAABAgQIECCwExDgO0uXCBAgQIAAAQIECBAgQIBACgjwpDEQIECAAAECBAgQIECAAIGdgADfWbpEgAABAgQIECBAgAABAgRSQIAnjYEAAQIECBAgQIAAAQIECOwEBPjO0iUCBAgQIECAAAECBAgQIJACAjxpDAQIECBAgAABAgQIECBAYCcgwHeWLhEgQIAAAQIECBAgQIAAgRQQ4EljIECAAAECBAgQIECAAAECOwEBvrN0iQABAgQIECBAgAABAgQIpIAATxoDAQIECBAgQIAAAQIECBDYCQjwnaVLBAgQIECAAAECBAgQIEAgBQR40hgIECBAgAABAgQIECBAgMBOQIDvLF0iQIAAAQIECBAgQIAAAQIpIMCTxkCAAAECBAgQIECAAAECBHYCAnxn6RIBAgQIECBAgAABAgQIEEgBAZ40BgIECBAgQIAAAQIECBAgsBMQ4DtLlwgQIECAAAECBAgQIECAQAoI8KQxECBAgAABAgQIECBAgACBnYAA31m6RIAAAQIECBAgQIAAAQIEUkCAJ42BAAECBAgQIECAAAECBAjsBAT4ztIlAgQIECBAgAABAgQIECCQAgI8aQwECBAgQIAAAQIECBAgQGAnIMB3li4RIECAAAECBAgQIECAAIEUEOBJYyBAgAABAgQIECBAgAABAjsBAb6zdIkAAQIECBAgQIAAAQIECKSAAE8aAwECBAgQIECAAAECBAgQ2AkI8J2lSwQIECBAgAABAgQIECBAIAUEeNIYCBAgQIAAAQIECBAgQIDATkCA7yxdIkCAAAECBAgQIECAAAECKSDAk8ZAgAABAgQIECBAgAABAgR2AgJ8Z+kSAQIECBAgQIAAAQIECBBIAQGeNAYCBAgQIECAAAECBAgQILATEOA7S5cIECBAgAABAgQIECBAgEAKCPCkMRAgQIAAAQIECBAgQIAAgZ2AAN9ZukSAAAECBAgQIECAAAECBFJAgCeNgQABAgQIECBAgAABAgQI7AQE+M7SJQIECBAgQIAAAQIECBAgkAICPGkMBAgQIECAAAECBAgQIEBgJyDAd5YuESBAgAABAgQIECBAgACBFBDgSWMgQIAAAQIECBAgQIAAAQI7AQG+s3SJAAECBAgQIECAAAECBAikgABPGgMBAgQIECBAgAABAgQIENgJCPCdpUsECBAgQIAAAQIECBAgQCAFBHjSGAgQIECAAAECBAgQIECAwE5AgO8sXSJAgAABAgQIECBAgAABAikgwJPGQIAAAQIECBAgQIAAAQIEdgICfGfpEgECBAgQIECAAAECBAgQSAEBnjQGAgQIECBAgAABAgQIECCwExDgO0uXCBAgQIAAAQIECBAgQIBACgjwpDEQIECAAAECBAgQIECAAIGdgADfWbpEgAABAgQIECBAgAABAgRSQIAnjYEAAQIECBAgQIAAAQIECOwEBPjO0iUCBAgQIECAAAECBAgQIJACAjxpDAQIECBAgAABAgQIECBAYCcgwHeWLhEgQIAAAQIECBAgQIAAgRQQ4EljIECAAAECBAgQIECAAAECOwEBvrN0iQABAgQIECBAgAABAgQIpIAATxoDAQIECBAgQIAAAQIECBDYCQjwnaVLBAgQIECAAAECBAgQIEAgBQR40hgIECBAgAABAgQIECBAgMBOQIDvLF0iQIAAAQIECBAgQIAAAQIpIMCTxkCAAAECBAgQIECAAAECBHYCAnxn6RIBAgQIECBAgAABAgQIEEgBAZ40BgIECBAgQIAAAQIECBAgsBMQ4DtLlwgQIECAAAECBAgQIECAQAoI8KQxECBAgAABAgQIECBAgACBnYAA31m6RIAAAQIECBAgQIAAAQIEUkCAJ42BAAECBAgQIECAAAECBAjsBAT4ztIlAgQIECBAgAABAgQIECCQAgI8aQwECBAgQIAAAQIECBAgQGAnIMB3li4RIECAAAECBAgQIECAAIEUEOBJYyBAgAABAgQIECBAgAABAjsBAb6zdIkAAQIECBAgQIAAAQIECKSAAE8aAwECBAgQIECAAAECBAgQ2AkI8J2lSwQIECBAgAABAgQIECBAIAUEeNIYCBAgQIAAAQIECBAgQIDATkCA7yxdIkCAAAECBAgQIECAAAECKSDAk8ZAgAABAgQIECBAgAABAgR2AgJ8Z+kSAQIECBAgQIAAAQIECBBIAQGeNAYCBAgQIECAAAECBAgQILATEOA7S5cIECBAgAABAgQIECBAgEAKCPCkMRAgQIAAAQIECBAgQIAAgZ2AAN9ZukSAAAECBAgQIECAAAECBFJAgCeNgQABAgQIECBAgAABAgQI7AQE+M7SJQIECBAgQIAAAQIECBAgkAICPGkMBAgQIECAAAECBAgQIEBgJyDAd5YuESBAgAABAgQIECBAgACBFBDgSWMgQIAAAQIECBAgQIAAAQI7AQG+s3SJAAECBAgQIECAAAECBAikgABPGgMBAgQIECBAgAABAgQIENgJCPCdpUsECBAgQIAAAQIECBAgQCAFBHjSGAgQIECAAAECBAgQIECAwE5AgO8sXSJAgAABAgQIECBAgAABAikgwJPGQIAAAQIECBAgQIAAAQIEdgICfGfpEgECBAgQIECAAAECBAgQSAEBnjQGAgQIECBAgAABAgQIECCwExDgO0uXCBAgQIAAAQIECBAgQIBACgjwpDEQIECAAAECBAgQIECAAIGdgADfWbpEgAABAgQIECBAgAABAgRSQIAnjYEAAQIECBAgQIAAAQIECOwEBPjO0iUCBAgQIECAAAECBAgQIJACAjxpDAQIECBAgAABAgQIECBAYCcgwHeWLhEgQIAAAQIECBAgQIAAgRQQ4EljIECAAAECBAgQIECAAAECOwEBvrN0iQABAgQIECBAgAABAgQIpIAATxoDAQIECBAgQIAAAQIECBDYCQjwnaVLBAgQIECAAAECBAgQIEAgBQR40hgIECBAgAABAgQIECBAgMBOQIDvLF0iQIAAAQIECBAgQIAAAQIpIMCTxkCAAAECBAgQIECAAAECBHYCAnxn6RIBAgQIECBAgAABAgQIEEgBAZ40BgIECBAgQIAAAQIECBAgsBMQ4DtLlwgQIECAAAECBAgQIECAQAoI8KQxECBAgAABAgQIECBAgACBnYAA31m6RIAAAQIECBAgQIAAAQIEUkCAJ42BAAECBAgQIECAAAECBAjsBAT4ztIlAgQIECBAgAABAgQIECCQAgI8aQwECBAgQIAAAQIECBAgQGAnIMB3li4RIECAAAECBAgQIECAAIEUEOBJYyBAgAABAgQIECBAgAABAjsBAb6zdIkAAQIECBAgQIAAAQIECKSAAE8aAwECBAgQIECAAAECBAgQ2AkI8J2lSwQIECBAgAABAgQIECBAIAUEeNIYCBAgQIAAAQIECBAgQIDATkCA7yxdIkCAAAECBAgQIECAAAECKSDAk8ZAgAABAgQIECBAgAABAgR2AgJ8Z+kSAQIECBAgQIAAAQIECBBIAQGeNAYCBAgQIECAAAECBAgQILATEOA7S5cIECBAgAABAgQIECBAgEAKCPCkMRAgQIAAAQIECBAgQIAAgZ2AAN9ZukSAAAECBAgQIECAAAECBFJAgCeNgQABAgQIECBAgAABAgQI7AQE+M7SJQIECBAgQIAAAQIECBAgkAICPGkMBAgQIECAAAECBAgQIEBgJyDAd5YuESBAgAABAgQIECBAgACBFBDgSWMgQIAAAQIECBAgQIAAAQI7AQG+s3SJAAECBAgQIECAAAECBAikgABPGgMBAgQIECBAgAABAgQIENgJCPCdpUsECBAgQIAAAQIECBAgQCAFBHjSGAgQIECAAAECBAgQIECAwE5AgO8sXSJAgAABAgQIECBAgAABAikgwJPGQIAAAQIECBAgQIAAAQIEdgICfGfpEgECBAgQIECAAAECBAgQSAEBnjQGAgQIECBAgAABAgQIECCwExDgO0uXCBAgQIAAAQIECBAgQIBACgjwpDEQIECAAAECBAgQIECAAIGdgADfWbpEgAABAgQIECBAgAABAgRSQIAnjYEAAQIECBAgQIAAAQIECOwEBPjO0iUCBAgQIECAAAECBAgQIJACAjxpDAQIECBAgAABAgQIECBAYCcgwHeWLhEgQIAAAQIECBAgQIAAgRQQ4EljIECAAAECBAgQIECAAAECOwEBvrN0iQABAgQIECBAgAABAgQIpIAATxoDAQIECBAgQIAAAQIECBDYCQjwnaVLBAgQIECAAAECBAgQIEAgBQR40hgIECBAgAABAgQIECBAgMBOQIDvLF0iQIAAAQIECBAgQIAAAQIpIMCTxkCAAAECBAgQIECAAAECBHYCAnxn6RIBAgQIECBAgAABAgQIEEgBAZ40BgIECBAgQIAAAQIECBAgsBMQ4DtLlwgQIECAAAECBAgQIECAQAoI8KQxECBAgAABAgQIECBAgACBnYAA31m6RIAAAQIECBAgQIAAAQIEUkCAJ42BAAECBAgQIECAAAECBAjsBAT4ztIlAgQIECBAgAABAgQIECCQAgI8aQwECBAgQIAAAQIECBAgQGAnIMB3li4RIECAAAECBAgQIECAAIEUEOBJYyBAgAABAgQIECBAgAABAjsBAb6zdIkAAQIECBAgQIAAAQIECKSAAE8aAwECBAgQIECAAAECBAgQ2AkI8J2lSwQIECBAgAABAgQIECBAIAUEeNIYCBAgQIAAAQIECBAgQIDATkCA7yxdIkCAAAECBAgQIECAAAECKSDAk8ZAgAABAgQIECBAgAABAgR2AgJ8Z+kSAQIECBAgQIAAAQIECBBIAQGeNAYCBAgQIECAAAECBAgQILATEOA7S5cIECBAgAABAgQIECBAgEAKCPCkMRAgQIAAAQIECBAgQIAAgZ2AAN9ZukSAAAECBAgQIECAAAECBFJAgCeNgQABAgQIECBAgAABAgQI7AQE+M7SJQIECBAgQIAAAQIECBAgkAICPGkMBAgQIECAAAECBAgQIEBgJyDAd5YuESBAgAABAgQIECBAgACBFBDgSWMgQIAAAQIECBAgQIAAAQI7AQG+s3SJAAECBAgQIECAAAECBAikgABPGgMBAgQIECBAgAABAgQIENgJCPCdpUsECBAgQIAAAQIECBAgQCAFBHjSGAgQIECAAAECBAgQIECAwE5AgO8sXSJAgAABAgQIECBAgAABAikgwJPGQIAAAQIECBAgQIAAAQIEdgICfGfpEgECBAgQIECAAAECBAgQSAEBnjQGAgQIECBAgAABAgQIECCwExDgO0uXCBAgQIAAAQIECBAgQIBACgjwpDEQIECAAAECBAgQIECAAIGdgADfWbpEgAABAgQIECBAgAABAgRSQIAnjYEAAQIECBAgQIAAAQIECOwEBPjO0iUCBAgQIECAAAECBAgQIJACAjxpDAQIECBAgAABAgQIECBAYCcgwHeWLhEgQIAAAQIECBAgQIAAgRQQ4EljIECAAAECBAgQIECAAAECOwEBvrN0iQABAgQIECBAgAABAgQIpIAATxoDAQIECBAgQIAAAQIECBDYCQjwnaVLBAgQIECAAAECBAgQIEAgBQR40hgIECBAgAABAgQIECBAgMBOQIDvLF0iQIAAAQIECBAgQIAAAQIpIMCTxkCAAAECBAgQIECAAAECBHYCAnxn6RIBAgQIECBAgAABAgQIEEgBAZ40BgIECBAgQIAAAQIECBAgsBMQ4DtLlwgQIECAAAECBAgQIECAQAoI8KQxECBAgAABAgQIECBAgACBnYAA31m6RIAAAQIECBAgQIAAAQIEUkCAJ42BAAECBAgQIECAAAECBAjsBAT4ztIlAgQIECBAgAABAgQIECCQAgI8aQwECBAgQIAAAQIECBAgQGAnIMB3li4RIECAAAECBAgQIECAAIEUEOBJYyBAgAABAgQIECBAgAABAjsBAb6zdIkAAQIECBAgQIAAAQIECKSAAE8aAwECBAgQIECAAAECBAgQ2AkI8J2lSwQIECBAgAABAgQIECBAIAUEeNIYCBAgQIAAAQIECBAgQIDATkCA7yxdIkCAAAECBAgQIECAAAECKSDAk8ZAgAABAgQIECBAgAABAgR2AgJ8Z+kSAQIECBAgQIAAAQIECBBIAQGeNAYCBAgQIECAAAECBAgQILATEOA7S5cIECBAgAABAgQIECBAgEAKCPCkMRAgQIAAAQIECBAgQIAAgZ2AAN9ZukSAAAECBAgQIECAAAECBFJAgCeNgQABAgQIECBAgAABAgQI7AQE+M7SJQIECBAgQIAAAQIECBAgkAICPGkMBAgQIECAAAECBAgQIEBgJyDAd5YuESBAgAABAgQIECBAgACBFBDgSWMgQIAAAQIECBAgQIAAAQI7AQG+s3SJAAECBAgQIECAAAECBAikgABPGgMBAgQIECBAgAABAgQIENgJCPCdpUsECBAgQIAAAQIECBAgQCAFBHjSGAgQIECAAAECBAgQIECAwE5AgO8sXSJAgAABAgQIECBAgAABAikgwJPGQIAAAQIECBAgQIAAAQIEdgICfGfpEgECBAgQIECAAAECBAgQSAEBnjQGAgQIECBAgAABAgQIECCwExDgO0uXCBAgQIAAAQIECBAgQIBACgjwpDEQIECAAAECBAgQIECAAIGdgADfWbpEgAABAgQIECBAgAABAgRSQIAnjYEAAQIECBAgQIAAAQIECOwEBPjO0iUCBAgQIECAAAECBAgQIJACAjxpDAQIECBAgAABAgQIECBAYCcgwHeWLhEgQIAAAQIECBAgQIAAgRQQ4EljIECAAAECBAgQIECAAAECOwEBvrN0iQABAgQIECBAgAABAgQIpIAATxoDAQIECBAgQIAAAQIECBDYCQjwnaVLBAgQIECAAAECBAgQIEAgBQR40hgIECBAgAABAgQIECBAgMBOQIDvLF0iQIAAAQIECBAgQIAAAQIpIMCTxkCAAAECBAgQIECAAAECBHYCAnxn6RIBAgQIECBAgAABAgQIEEgBAZ40BgIECBAgQIAAAQIECBAgsBMQ4DtLlwgQIECAAAECBAgQIECAQAoI8KQxECBAgAABAgQIECBAgACBnYAA31m6RIAAAQIECBAgQIAAAQIEUkCAJ42BAAECBAgQIECAAAECBAjsBAT4ztIlAgQIECBAgAABAgQIECCQAgI8aQwECBAgQIAAAQIECBAgQGAnIMB3li4RIECAAAECBAgQIECAAIEUEOBJYyBAgAABAgQIECBAgAABAjsBAb6zdIkAAQIECBAgQIAAAQIECKSAAE8aAwECBAgQIECAAAECBAgQ2AkI8J2lSwQIECBAgAABAgQIECBAIAUEeNIYCBAgQIAAAQIECBAgQIDATkCA7yxdIkCAAAECBAgQIECAAAECKSDAk8ZAgAABAgQIECBAgAABAgR2AgJ8Z+kSAQIECBAgQIAAAQIECBBIAQGeNAYCBAgQIECAAAECBAgQILATEOA7S5cIECBAgAABAgQIECBAgEAKCPCkMRAgQIAAAQIECBAgQIAAgZ2AAN9ZukSAAAECBAgQIECAAAECBFJAgCeNgQABAgQIECBAgAABAgQI7AQE+M7SJQIECBAgQIAAAQIECBAgkAICPGkMBAgQIECAAAECBAgQIEBgJyDAd5YuESBAgAABAgQIECBAgACBFBDgSWMgQIAAAQIECBAgQIAAAQI7AQG+s3SJAAECBAgQIECAAAECBAikgABPGgMBAgQIECBAgAABAgQIENgJCPCdpUsECBAgQIAAAQIECBAgQCAFBHjSGAgQIECAAAECBAgQIECAwE5AgO8sXSJAgAABAgQIECBAgAABAikgwJPGQIAAAQIECBAgQIAAAQIEdgICfGfpEgECBAgQIECAAAECBAgQSAEBnjQGAgQIECBAgAABAgQIECCwExDgO0uXCBAgQIAAAQIECBAgQIBACgjwpDEQIECAAAECBAgQIECAAIGdgADfWbpEgAABAgQIECBAgAABAgRSQIAnjYEAAQIECBAgQIAAAQIECOwEBPjO0iUCBAgQIECAAAECBAgQIJACAjxpDAQIECBAgAABAgQIECBAYCcgwHeWLhEgQIAAAQIECBAgQIAAgRQQ4EljIECAAAECBAgQIECAAAECOwEBvrN0iQABAgQIECBAgAABAgQIpIAATxoDAQIECBAgQIAAAQIECBDYCQjwnaVLBAgQIECAAAECBAgQIEAgBQR40hgIECBAgAABAgQIECBAgMBOQIDvLF0iQIAAAQIECBAgQIAAAQIpIMCTxkCAAAECBAgQIECAAAECBHYCAnxn6RIBAgQIECBAgAABAgQIEEgBAZ40BgIECBAgQIAAAQIECBAgsBMQ4DtLlwgQIECAAAECBAgQIECAQAoI8KQxECBAgAABAgQIECBAgACBnYAA31m6RIAAAQIECBAgQIAAAQIEUkCAJ42BAAECBAgQIECAAAECBAjsBAT4ztIlAgQIECBAgAABAgQIECCQAgI8aQwECBAgQIAAAQIECBAgQGAnIMB3li4RIECAAAECBAgQIECAAIEUEOBJYyBAgAABAgQIECBAgAABAjsBAb6zdIkAAQIECBAgQIAAAQIECKSAAE8aAwECBAgQIECAAAECBAgQ2AkI8J2lSwQIECBAgAABAgQIECBAIAUEeNIYCBAgQIAAAQIECBAgQIDATkCA7yxdIkCAAAECBAgQIECAAAECKSDAk8ZAgAABAgQIECBAgAABAgR2AgJ8Z+kSAQIECBAgQIAAAQIECBBIAQGeNAYCBAgQIECAAAECBAgQILATEOA7S5cIECBAgAABAgQIECBAgEAKCPCkMRAgQIAAAQIECBAgQIAAgZ2AAN9ZukSAAAECBAgQIECAAAECBFJAgCeNgQABAgQIECBAgAABAgQI7AQE+M7SJQIECBAgQIAAAQIECBAgkAICPGkMBAgQIECAAAECBAgQIEBgJyDAd5YuESBAgAABAgQIECBAgACBFBDgSWMgQIAAAQIECBAgQIAAAQI7AQG+s3SJAAECBAgQIECAAAECBAikgABPGgMBAgQIECBAgAABAgQIENgJCPCdpUsECBAgQIAAAQIECBAgQCAFvszl1avXT9v98Xx5Pj/vN2/+s5/vexEgQIAAAQIECBAgQIAAgZckcPfx/e98t/P98f7+u4+fCvD7h84vnyfl531/frarwb0IECBAgAABAgQIECBAgMCLE7jb+P549/InIT4V4OfQeZ1DX1zv87NfXe/zOvEtwB8U/kGAAAECBAgQIECAAAECL0zg9PJ5n0Y+rXya+bTzed0t/farZ//8nAA/B7++3t8//d75+senz30gQIAAAQIECBAgQIAAAQIvUeAE92nqX13v08z3A+v/KcDff7J9jvz6ep/X+fyH6y3Aj4YXAQIECBAgQIAAAQIECLxUgfuvxU98n2a+A/z2eL+tH7V+no/f/6dq95+Wn8C+I/s8Sv/l9b4fr5/v3z93fepFgAABAgQIECBAgAABAgRelMDp4/M+EX7C+7xPO5/X3dPvuvk09xne/xP0883zhPv8ufk/r/er13/8y5/ORy8CBAgQIECAAAECBAgQIEDgvwqclj5Nfdr6Ed73b5xif7yu7z6v9/P4/DfX+5vrfZ5+3yV/fvk+cH+8vuVFgAABAgQIECBAgAABAgRejMDd0ufj/fkJ7u+u97fX+2/X++/X+4T4j9cPPPq5noA/nn5fP/iv630epZ/H6l4ECBAgQIAAAQIECBAgQIDAxwXOn57ff01+mrqfgJ/fv5L8rvfzxPu8T6Cfj/f3r0+9CBAgQIAAAQIECBAgQIAAgWcC5wn3eZ/oPg+yz8dHgN9Pv6+v3z0qP58/Xs8i/ET3efItvt/S+CcBAgQIECBAgAABAgQIECiBO8Lf/R+XP4/v80snrj94PUX4+f5H9w9+wTcIECBAgAABAgQIECBAgACBI3BC/MT04+P5/H59VmA/C/L793wkQIAAAQIECBAgQIAAAQIEngQ+Ftzv4/wb4E7FdBePskwAAAAASUVORK5CYII=;fontSize=12;" vertex="1" parent="1">
          <mxGeometry x="520" y="327.1" width="897" height="680" as="geometry" />
        </mxCell>
        <mxCell id="suu0JaHc6aoQa4eEZUap-2" value="" style="rounded=0;whiteSpace=wrap;html=1;fillColor=none;strokeColor=light-dark(#00b0f0, #ededed);verticalAlign=top;fontSize=12;" vertex="1" parent="1">
          <mxGeometry x="890.96" y="647" width="367.04" height="275" as="geometry" />
        </mxCell>
        <mxCell id="suu0JaHc6aoQa4eEZUap-3" value="" style="rounded=0;whiteSpace=wrap;html=1;fillColor=none;strokeColor=light-dark(#00b0f0, #ededed);verticalAlign=top;fontSize=12;" vertex="1" parent="1">
          <mxGeometry x="546" y="647" width="340" height="275" as="geometry" />
        </mxCell>
        <mxCell id="suu0JaHc6aoQa4eEZUap-4" value="" style="shape=image;verticalLabelPosition=bottom;labelBackgroundColor=default;verticalAlign=top;aspect=fixed;imageAspect=0;image=data:image/png,iVBORw0KGgoAAAANSUhEUgAAAGIAAABeCAYAAADYHcHYAAAAAXNSR0IArs4c6QAAAIRlWElmTU0AKgAAAAgABQESAAMAAAABAAEAAAEaAAUAAAABAAAASgEbAAUAAAABAAAAUgEoAAMAAAABAAIAAIdpAAQAAAABAAAAWgAAAAAAAACQAAAAAQAAAJAAAAABAAOgAQADAAAAAQABAACgAgAEAAAAAQAAAGKgAwAEAAAAAQAAAF4AAAAAcSYo+wAAAAlwSFlzAAAWJQAAFiUBSVIk8AAALTFJREFUeAHtfQlgVNX193lvtiSTyZ6QsCYQdpB9VwviwiKoqNCqaMWFuqCCaFttJdV+rbhABZfSKloQbdGKKLK4IVV2wip7IAECScie2ZLMzHv/33mTN5l9JiFt+b7vf+Hm3XeXc+89595zzj33vjtE/+suCwwIl0UrwjRiVWL/ZNmpnyoL8oOCLAyQSdCo2QU9gqJIJMkkNzrVaPVpQec2iqLrTbNZ3DOb8h1qwuX4vKwJsdo4LLNBkJeSLN/GDZXh+alLSyDjgBzSpJgQgRhZJslqJ9uRYqo/U+bO2JQXZSqR5Xd3WfKXIuqydZcFIT755JMMURQNN998czEwxfjmP8L7xsEf4PFTFXsakOFrqZLEjinUI7sLdalxkdjgIkGnIX16Imm7p5P1UBHVHzhH1OhSizH1zLIs3363de+m5sjLK9SmhFi/fv0Yl8s1GZ2O9e6m4HaIln3qQzTHScg7Hc9iSZKmgxjAItHK2GGjSZQ2IJjA7+wKZRu94jpDdXIj3gTqK8bTLzVdlVki60WS3hkLVoX/a4pI+McpIo1PdfkzrflD165dOxREX4V23r9///6tffr08cnE9bTUTZ8+3YvqLS3tzq9tXTHfUiBAOpD4IDrHSHwXCG7wzcHcQxnoPtEc19jYKBkMhgtIEBMTE6s9GQS5P8J69f2MbKfnXAV0vZBGIzSJtEuupeOSjRpIohhJIPneXiR8e56EU3UkX5VFoklPss1HLHRZHT8oXaPXdyaXizQazcyhQ4dehXa3ihAgptIhLg/i6gDPgv58O2XKlL1qm1vybBNCoDEPoBHr0IgDLancK++rXmF3UJCNCLiRBIK1H9mXMredozjI6irZgWmipVK5gc7ESNShYycSqgWK65dAcqKedIKOUm4ZQ+XvbwYED54Fi0ZrIrN5HQhf2NDQcBgjmadWmzgQox0G4HObNm0qv+GGG5RZ3RLAl0yIzZs3x5vNZsPUqVPDEmHNmjXZGDVdTCbTznHjxtVHaqQGLMbFTIsdNKMuQ3uTdst62qKtpkxBT5UgxjVd+5Khay86c2V/Eh1O6nTyNOlr7KQ5co7aLXnCTQg3BOWvAX+bkL/PK7pNgjfddFPZ559/vtFut/NMbntC5OXliYMHD74KwO8AxWfguRQI/f2kSZMU9lNdXR0XExNjDtUbzBRh3bp1t+J5H8q7rFarc8+ePbeDLfjwjVDlOV6M0ZEmPpae03Sj78RaOiFbCQSlKx6aSeb6RkooKKHG5Hgq6H0FpW87SlmFp0kG+xFj9STVR11NuCZEm9ag1+uZ3i12EWfEkCFDsgB1AXjiOCCTwIbuhCz4GHGeGcDIDlXzhg0bmM//AuWfu/HGG7eBKO+XlJRMQNznocr4x8sY7QTNKEbU0CQxjSZQGjUmpdBxp5PS9hRgFlgp86sDVHTH1STFoLo4PQlaDUnempM/0NDvAkZ2rFar7YR+XoHBU5Odnb2lb9++bcbGglUdkRBAfB2QuBKFd6NR4BLiRTSwNBgw7zh0Jg75MxHHRPoecEaACNUgWiLCJ7zzRgrLDhc5y2spfmBXRT0VICZdrBEJ4F9okwBCCZgBMliYhPfYnh3J+uMZZIIyg/doHdqXjPa9AN/D6XSmo1x3hG2nT59+FuG/RgunNfkiEgK8j9nOuy0B/tlnn01Efu7E8yDaVoTPw8fD/wN+CWAex7MFTqDqL/dT9h/upmM/Xagg11BRRxJGffnoXpRwvJguju1P9RmJZDpRTBmTh9KFN79oERFWr16twQB5CI16AAPIo63hnZWG+7744ovPJ0+eHHEAtqBTPlkxpNrWQWswoiP9APVqjKrxCK9F+EoQ5W0QZUx+fv7yaGp0yIIV+RQVkedU/ekSqvpiN2Xccy1pTLGkAe/v8dZ6ar8hn+rbJZOmwUE93/mKeiYYqaGwjOohN/wcqtdZ/OI8r7GxscPR1of9iKCmDweR5kFNbxX/V4GEe14yISCcMoDkXBbqXBHCvABjdfaVW265JR9y4S94d0LA/4RnF/KpuhBnD+k0knMv8N+8HgGLubjyW3LV2SjjrnFkGomZUGuj1PxTlLM+n3qfuEBdr+xHcWBPVet2KzLCB7ggHL3bsu2iT5zXC2QCE94C1svs18cjniV+tcVicQ8Mr3LeQRBRwuALm8c7v3c4ImvyzhwiPBWj5Q5oQX9D+jYMO57WB4D4sXjugKzojAZmIHwGPmp3p21//sr4YV+IsnSHp2cgRtX63WTokkGm4T0oZeIQ0iQZyWWxK7PAvP0o2U+XkWRvph9XiPKSKBDz+ZAuPT39KJSIGUDkQLSd2RTGAWvOIsSMUOpwOLZGse5gtnYRWuGmlmiFXI9SGQda6yDgeqPsJPDPxTwiGA7ipmJGPIcgzxLmsQXx8fE3Yf0QYCJFWki3bMgQXdxx2gzhPALI9B00bHGVJGXFjnpRE4Q2kObnmIb1SJ4Ho9+f/dLa9BXrKS1mDFsGdoHNTb/22msrW1KBDyHW00RDVceaHoLgTBY1vKTycyoam1DCr6LTaXPVNBbdbTnomfbcKKxcE+DHI0sNWNJXfpCifl2dPCSxsVGEEJXGAqusyfi0ORggxj7GsQOkOiXJmg8KbXEb8+g7tfXBikQdx+2xNci5elETDz3Npy2G4b2zJVEUpB8OnnZp3YYumO1lQZLMNgOdml2dXxuqIg+gv3UYPkonik+hVE90JBEJvoTAGqI2tyNprfUUV1YF8NxdViRhZ4BWhPH4zwp95VuPFRT48oVQNbcgHpUIa6hXipXiklls6FCvCCQ4DDql/VIDcA5ngCh1wMDh1GP3QtS6xFpH6d10kHl/WzhhRfyQ24DW2ehzZwA0cuWY+eg6/iscMLAaRhCab0X6WajWb91t2f1JYK6m0bWyy7DRqOB9ZM4Jlgm1UXWvbOjpAkk6HSWcKSF9rZ8CIhOUeeENS7rzqdn5bbsJ89Af/5gcZ4wZJ4iakej4QLSxCzzLnVh0wYF2V6O3xaDPUXR7tyjRNy8//vjJoH1pRSRjcpVp8P3A+SuA77EGM17i+mWT7cci5EArIrsajO95M62730NWgG12wuquQxKdDu0KjKGpzdFNIQCvTzYpL9asVLAhiRoT4yn5aCHpzbaA7IiogIj7+cwzu9Yj7FNRsMwh4oQnFi/OhDkzVxLpeoCZCEhXIK8uRP5Q0aVo/gYs6T6HCnWoury8+L28vIg2rmDAVsQP7QcOsBppLA89jmVU+u1Xke3oOXJcrCG2ADihyUVwPwLX0++27D3qnU9Y1WHYQNjtdyLSexGj5LG1S6Ga7rBswvqmhSYSU1VHLpgQ4s+VKe/egDjMYwIj9o3254xPjGsFT577xqJcjayBoIcVQ5ZHQ/gaFWoqbNC/tsjvLMTRHigQwmFBlr4Bu1pj1um2/2X2bFZHo3ZgSb+A0futYCOLdwvjh3UnGYNU1GupobiCrPtPh5whjCNoYrPuMO9+17sBWkEj9kOiHvqHd7wSbkhNVFiQDBtPQ0qCwpLMWDDVZWdR6uFChVV5F3JDEPoVZUPDKQKritI9vXChyRVreBD2iZ8DRncUM/BUBxKjhBA8W1N5yDq5vywIfQXZNd3kkL58ZtmyZ/4we3ZJ8FKBsdAFrwilIjiwwq/5ej8mnRZepJTJw8h+/DyMjaFNUy5JGuBfC/Qftvsznfwc5EHSibN07pqhim6QdrCAXAadYlQTbWFmuCCAb0fneBFoS+nQ3iXYPoKWNlJi29C/z/FOTnv09OcNjvp75i1Zcn9CVdUKtCHygBGEGOApZMvYFoYBTSk3DCPTiJ7YGcSi8rOd5DLbg5aBeI/zT+DlSkANGmMspU4YSUnDelPPogvUB1pSu4xkSkkyURKEdGLhhYDZ4A840vvcRYtSLGkpj4IIxzD6/91E8DRHmSXQKaF2vGVOTX77yaVLe3kSWxkQMUDTbr8SsuIs7Xjqz1S77xSlz8DOQQBmQ1fgu0hqysdCxzS4J6yYnRQbT0NxOQQR2/d1lJFopJrv9lPt1oPKKAgNOnQKhHGSRiu+BKTw/oYRPCh05n9XituwNxPrk97zXntt7qLHH9/W2qp0mcnUWFJF9gNFdEisIcOhU5Qyug9pEuMUk0w0cH3XCk0lTMP7UEy39hg2MHvHGihhVB9KumYgxeZ2Ip4tHR6+hRKvDGBz0dRHy5bt0Wm1mnVA/SwUYIvsf9Nx/4fDmv71k4sXT2xtQ3jvI6Z7B9KkmWi4C1plegrF5LQjwRB0nAetxpcQGJnx/buB1w2n8r9/i2MqWjJ0SCPRgI0WDY6sgPKxXUEg8MCOc6aRFqyqJe7ppUvbn2j8YSN45BiUCyKYWgKtTfPGklZ846klS65nudUayM7KOkq6cRj1fGIapU0cSk5sVjEDjNZpWTyqNcuw3ySM6IuR35H0aUnKdmMoQEwYY59shUV5Vwh9Oyifmf/yyxkSSQvRuqv/K6woVEea43MkQX61LjPlLkR5dh85GR3ytWU0l3GHgO+GC1VU990hIBMvwGPGPWzdCe6wDodK7etEySl4NjsEALGAvznKa0iTAMEeFKXNAGwFxYFUF6jCrC0OLBmnnw2C3YbS0c/X5qr+U6F+okN+b+7bi1K8K4RgD2vA4zWEBmsIHpCK4RF41GC/XMYeib/jOQJf4R+vxRmvvVhDsNUwmQHV7TwMlhNPGT8djwVKiMUs0Fy26ktyQJvyng0MHINhe2bBIKiEBZ66nnpj8cC6qprn927ZQrWVXNXl6RJTU2jUhBsG6mXDcrTwZrWVsqz5Hobl+XhnPAa4RiziUrArWLvtCE4YSsqRUA2UGmeVJUChwVSALVL4Yf2OHQmOsrJsnH45BFksa6akdm/USI44VDEMNSijtb4ItiSwphjIA5zf8q0e1K78Yhtd/Ps3AZVAET6ARr/4s7pNnln25OuvdwGz2nLu5Mn47z5dSwlxRorB4keDSPYizAT85IqDvfvnU9/Vp385NV59qunqe6j67GYzHT1wkLJ79qSE1JSOYyZNLO1w76xDRz76SL5R186iEUVeaObCq5wcwSaH0ce7gukzrgZbbw/BnUWVn27HvkjAos4Fe9WnLkFYHjtp2HKssJ8oKCi4+MADD5zU3lv0Xf3KLkNeFyVNMljTQwr/drrIvOcY6TNSyFFZQ1ZeRWP6xffvCmonkXnXURKhKaiObY+YVUckEp7WF3fEsHA73gfeVVr6Syxw2rHokNDgx+bMob79eCe1FU6Z16jNSwgCLMYY/iiBVsBsKrJjx3ZasCCPJJeyvosHxAe7VVRsQfLpWbZ9JSuMI36rIacB664bglkhnFhhl/5lo7LCVg4toKD39EE5gtl8E8i44F7L7jIcYXkRm0+d0BcdzoVN5gFDM8/kl6zPzZ1b0ZCyHLzqQZgD+lgPnMJS6wwaBhHW6OZ1dflYe0FjkhsUSjMK2FViUK+rr9d9OKtiK47C71TjaefFi2Ng4JosgACKA7Iys7IoJyfH/R7tX+a9qNd2upiqv9lJFhgdJYsN550MFNc7h1LGDiFjr27YKEI9rSRIYeFptMbTdGBRGOFwOSYjcikQKpN158EVdMWtskk/Hm93CpLQAbk9uOY8PCAxYBH0RHNIlgSpWNIIK+x19N1s2qNYBXEqcjtgs+eNtGUKIfhlknsfYQ+C7Fvl7vMqhZVzLNSuaYjq5BXd4qALxkZz/hE6/84aqttx2K2VNPeTKjftoHOLV5GxXy51eADrm5FXkNbEm4KX6MBDQP9HHly27M+qkVDZ2zDTZ4DMvs0cuIUjkN+1EXhBr2cCTPEZHojwZithqwIWmC2eXbSSTsx7lep2gQjKWSZ3KQf2qhsyEkhibQWGGuvhU3Tyqdeo8A/vUP1Z2PO82FfYesImCj0TnQ13hs3SNonY6Pp3OUEaB9BdWwu+8WIlnfzVEir7x5fkYiOjF2KZ1ZWN609FP7saR2mS3FUgXcbJv8r1P1DBb98kFz5cuVTHcg3s7oXb8/ICtgguFbZ/+YiEwCmMAfAHcNp5gn/hcO+CS74r6tHvB0iCTDr7p1VUu+OQckDALxlcVyYH7DgN+DhFwlFMbydj78S85wj9ePez3qzaO0vYsJeUUPKJWm3HTunJY8IWaoNEj4wIBQvI1GJkSDhhErU949dLlqc3Cmbe1gwFNmy8OR87nlVmyhgzSJkJDrOV6o4Vkqu+gWRoazUDc8ieiZU/WFLV8O7YM7GSHjq7x2F2sKZXsvILyrqL5W3rHTQbqNUCA9kcDAo0wxQc8+/H+AGuKpD/EASxIpCD5Q8VF3FG2Gy2I9B3V+C80sZQQPzjG0XzLYiLSGT/cvzO24/VX+2g9MF9qBuQmPvzqTTohUcpoXsXJbsA1Tr2XAXpq62KjmMsuki6ukA2xFpWxYat1FgWdlEc0AQvPUBJazqyMxRCO2APgc/K4ujMMhyyWxMXF7cWA+9jFPo1f6oQADhCRDTIwoaSZE9ISIh6eKMzE6LO7NdAVpXL1m6mizCJMjLZ1t9v/ixKHzOQqg7w1oVAfO618wf/InPvDpSy+xQsN7zq9HJN8qQehxwsRwoppV2qV2IrggJlJDmdPBKOepcG4l8BEW7t0KGDgINplJ2T0/HI4cOP4HwT26qYKFG7aAihAKurq/MfLKErwYGw0InhU2q3HyRWWT2HxSB0y77fQz1/MYPqq3CMB8TxVvepm68+YIH9q2rvMWjOEiygZrcGxSyyiTjha/cFrebFrneSS3B0xruHELxYxftUU0ICmipSWloalZSWEg7SJWOBNgCn/da25LSfFie3pwOgz7QDYD6K/zU+RqlTGxPtc/7Lb8HK2pgUPdV8IVtPnsEiyLd09aGTFJOaRFcvf9E3c5C3Y298QNUHTiqE4GRmTSz82ZTfeifHY5+1XZDyVrCuNJ6l+ABH+XimsqKCFyCNIEaLmIKIQtPgj8AfZ4/KjuHZA2c9M4JUHDlK15AJNPpi0qtUJAGu7PP6lbadv0jVh5uNiF7gfIKNNXVUvuuQgng1gYnAlshonV/V7mLYs4Zi0KQnu6P4S1LgaSk4BdXU1lJ9fT1VVlbCuuE6D1a+taXHS1lY88LregC9lj1mwnUA1Atxvnqhu/6If2UtJQFO0P5ELMyVwmrpw3q4EGRACUwbkVxDNQix86BPNg1/QQTWcYlOB5XZhEHk0y+cdH8VsuH3VSDA+fPnqQ4EASGehkX125bWxy00AG/dUMlIhHviyV9HxuGYevTDyKdWrcG/wT7JEV7iYarAMso3F+haumVX8DWFV87qg8fJCgHtcZAn+qx05byRJ66VAfRJP/2jjwIoClX1Oaiu7UGAgRjE8SDCh62pAjY+4QQKfo+KsuD5OH0dnqMwK/ywER14QZRkmbf9WulMV/QgHc5TOavNPhDsJRVUsnkntR8/yife+8VyrpRELPAU4x8SdMkJFJsDU37rJ6gHPPAUCh/yhAkTmPpeI8BTLOoAL9bYRJ2IijLhYa6XSvDsAOr6TMNoIQouwY4RHarREcFoYFFNvWY4lX38tQ8CWYvaM/8VGrxwLuHQMTVU1SqwWIuKz25P5oJzZD9fBt4GjioppmyK6ZxJPMPawMmQEfUf3X67n57cBpCbQPBUswHpp4D8Inim6ln4Ghypb8rSsoekU3b7Wk0I3vNNm/ITzAof2ag0otFioQ7XjFJU2H2/WUI7Hnqezq75mtIG96UYrBWOvPa+cv5UbXHGreNJmxi1QUAtFviEdRQfS2K7LeSs8CmDgS3wZ15QYUNscfpkV16YNfGxPd59AptzYSNKHARARp1OFxKZ0KGxjtFfjbKdkb8c7GyLquraJGtJHMVdAnPCGZt+3SjjtvF0YflaGPK8QEFWlu86SOZT5xR5wbPEgcPQ1T+eJEshDoN7saD0m66m9MlXQ/CH7EYgNkLFCIINJ+GjWqLzahtEGAHOkogvkFz4CPJcu3bt9kZaUzBr4k1k1nRigVS88ncVErb0ZCZQgOOPUKAz/xLpD8Ub49PqG+rrQMANyDiTM7/18K+r5y99rQzdb/EyX62MN3za3zMVJ6vNVPbhJo/WU19STlvv+y05schz1LltS5V7DtPWWb8Fq6rxsLL0W8ZRzq9mYbesVYqf2ozmpyCYZafs2f5tTggMAS8z4E8Ch/kYoDqEhxcXF3NDtsOHHBVaSP0HA8GFjsFCZSiIdi981shRI+nYsWOpFy5cuAsj4TOocx9xSWyZboVRultoKJFTtDj+3+35RxQ+X/Tie+6VNka8FQLZ2/E6wVJ03h2F0Z9550TqMm+msnvnne+SwrJcq4kRmGWHdeAUfDmMEdyiHN4+fvz4Aliuy6GB3o4BvCvc2iJAHQtbExJBgHQ84lNTU5XVJFiYwhJA+b5qWXzzv04NX8qTj35mzZxC/d//A6VcP4piumThKggYAZgFNbEcjTGGYjq1o6QxA6jXG7+inF/f17ZEUDoglxh7VJ2J1BcY/gZjFhRibXEL7uRQvjfB4MRWsmQsLy8Pi+uobU1qIwD0DFhY9cWLF9OZGE2rSU7+Xs1jbKfbYC51WIEwrM58HcoqhPONDf3GB9kShvUl04AeZCs4S3asExzQmJhILCNY1Y3pnIU96xzlZKJKoNAQQ6W4lUR/3sHthUL+Q964yKfGMUhxikW+E7PhFeBG2diHCSkLMGrw1WpYjavFhODrdUD5l1Dp201I5QoWYgR8p3Yxb/ojlvmvL4H+STehYWq0MpILT58mXKICfHnFN+fwEElNRz1KqvpOnaBNsVfLK7MD4uyYxx7nBU2ZwT7lA+A15T57NjjnwecCRPaGqPao+WYCCOdazIgJuDbiUwjtBMjPZ3QGg2XLli2XRgjY2xOA8O6wKvLoNrONBc93cP3bp9gQuSEpKenQVVdd9SM66INZSZZWwXh3U1M/lQd4JT3z7LMhieCd9z8dZgJhGRVgcITN7dCiuXP3R9sewFkJ5N+Mwco3LViBv+0gzDPQmhK2bdv25OjRo+3BYEWcEeB5fQHwTmwQ5QPAByqQadOmsTrneVfj1Sc+EYZNQsd2+QEcl52dTffee6+aHPEZauRGLBgiQ7Tw4jpgJd7kMLKwkKOn1fdonk3XJ/0DedkrDjPDihn9l6qqKhnCewEUpAo1TX1GJAQ2OfaDlcwAS/pRLRTN05TRuaSurGQNJFRvdEjft28/mvaLhy/L2aD2B6Zo+nDzt1RYckFho9D8tiaUV3+pprf2OXHixLWQFVXgLG9jQBRCu1rcxFk8ICMSAgXYlrDFUyLKQB6uaZv/1mv/lJ3CHRhYPeAVInh4fZRw/pPZFN6qMlj+CFIUXsMx/bC8PZr2AfkM9V+YGWOgZcZCk/JapbohhFWpoqkkXJ5XHnr8R6xIP2DtBvutfOlWuOz/9TRuowNHLoE1PrW3QSMJ29qyUWBb5dddd11QrSDkjMijPHFBxFbksYFeHUNBc8uG2KVkt91YVl099Nt9e0mPdUdLHW5EoHRjPBlYg4ng6rF3XG6zkrMVRG90Oqi8ppp3tWpkcr3x0py54FH/GYc63W413a5pNJ6eAazybTCdkKCmqU81qy/isdjFuZYtsqBbFOoaHnwzl41v5nZgigbbblThhnwm6A3UOz1DOUUeMlNTgh3IPHyxjKwO7My10DHbVIQ6bjE70y7rdx+1wX2u0TQBApzP1xL9zTQ8VZRdb4qyMJ1w33b88J44kh8BZxBs5h3HyH4Md60yFIFq8bjlDkv+d3j6EgvJTy5Zcic+YP0rgrHwLXLtMBt6pKbhUHlkTsoVHygtoZr6oFpi5HoFYdOrjz42IVhGwBaXp40xxpidmZLWlS1rcDdCBCe4REl0aorqTdrScxVbrXlsAfJzIMTr2ndpbIxGMj+JSm7h4+Z8tbOhUxqZd57A90jBRxV3VsKl6PwJazGuP8ASl1GfCBvT0lXGIT8jaz6+YfJ1Jo1mrUVy9kXZeUgx+KaGfmuXnEwdEhIp0YQ7XUNn86TwmOiC2WOwwGBYjQ9pondAkPwvUdD+PFiRZbiVZqVTnq631z8ia4UBCgVcEemggJLxgVyM3bkv1zT09fd1mo/vqtrpOZTBlmzOJKxKGtRFcoi7EFYOC+g7plL8gK504qtdtNVeHuSrDKIUXHA7uiGeOvxyGp3/09rmoy+gD6b2c3pLzovT6aMAzeBXb76ZjKPuC6DGPR6N4NbixoMpo0dDNuDDlihmg9Jr/GH5wH7Drh1ki3Zfhb8nkITZr86Zc7BJy1HB0TIaEhdnkp8AC/4VVD+TJ6GlAXyQBeP2/4mx6pYmbFzQHwu9fsBDDOor0jqcmqEQnzgC4x5vPKLYxQta6iUaPYLCHev+G4dzBSFGJ+zodGU87WMlIIAQLz78MJvc58JMboHp4NlINw04JRet3fqDd9VKmOtW2+mf6J0GG5F/csA7ywRkK9W65OkLH3/s7KLHHgvIg2O2vRyS8ARmTAAR1HZAy/K0iePYc+2KDqZCxLeiqG2e1Wj/MtbhWIZovt1tDu45/JIt9mlqPn6qTTfjpuEjMjalmsDjcgxKbLogxgS1uAMIFdzJyWXUEe0IefxFbpCFFwySxOuTJ+HDCqNQyFTbGawN4dL88tshoL8xOaWZeXPn1vileV6dAo2D8QNWOzdkflYAP7W4HaoaqLZik74Wzzp4i+xUwhaMQyMG7EOaTvg4sVlTBJx2OkFzlRgTc7fc0NAd3OELrFWcytaJT8ObXgy4gztTYPSDhviXCmA9vYypTuW+QU9bPQEUVweJJ84/sPSxxxrmLFmyBF9vF0KAP4NRwbuC/tn+be88CzANyiEU3hAaHG/kzZ8fkgjcCHz11AMo8Di+m3yfXEfb5RoqxOXxape9O85hbBDQYQzmK4VkT1nGJXSzHpOvu24pIj2yNKS0wa8x0DAhkYbhZvoRMWmUCyLgCBvF4Qc0DNlhB7Gn0nABJoapquoTXN1zE07LvYy81nD52yqNiYDzKVthQ5qGay1eenX+/AC7T0Bdstg8pJFow2jvDnyMEpKUgcpIZM/IVz2CSlpMECkLUgQoK6H4iwJQC20oflA3Sr5+EJV/DF6N86SG7Ayqxl2rbeGazAdQu+jpuUsWfSySZikqHgh9mA90eQ+wtqiOj3aUAgkvLJrz+F8uBWAymvcNPr3eLdUpo54PvLBPQHwqBjCz8DTCvVYugQYJCVFVFZIQvDgw4UIoId1I5zZspiQcixdwKUpVQynJOdiO3t9KPT1EsxY/Nm8XCDOmNjl5skaUp4MTDAYxctGO0G0MAcsrmr8sxN6qcAQzYCNMFh++9OicS14tm4DsHBwXrhAclK2JpTEDcql3Tqb7IFscFBkrbjLTC7TgA3xECmJcJ6Z6NSl4UAupDmkQfPA1gm/bL5wnmtGNCjbVUWNKKmV1SwITwfpif3lwiJcQy0ILxdfiQ8gvcRFVDzCRPkDilWjeCDDWfhBsBoVVh5InGDz8PQPYTyFGfj7K/AD+vk9PmsN/fORRNtu3iWvEmoyFM7OnvznPU4rDTL0SOpErARzH0khCiZW0WBhn4a6SggobXUMpENvBcaw2SItTzsGHNjq758ahlFGKu7Y1DrJjfWHtlklZ9pNq2aBP4KJ1B6K8oC2eN4/bdIA9iPMRdemirampiRG1Yl+cMemNmdINyE4EUfDds4ixJFnByIrBuo+jwwccDmdlL6PRycdZmtifF/RLD/JgYN7fXzTR3yQMVAgd4bwNVzw2Qu+HOOFfA0s2UHFFjcKaIhGBW4TLz+R9UPh5Ce0jkDjRcLGWtFWQoToHvtDB594lUC7YdGBGhaHdoUYyB6whQmcPn9I0S3im8PGerU0+fKG2TsXvXoD4HqgGEIFV2HddxZSrw2mTGBPYNZYYkBP8I1NCLX5wx6Sl+6kDdRZ9vnhQYECFDcCPVjLoivAbbuuxNHBva6JCvuY5tldHGvjNAVTHTgBPhDtV4X6HWiv364zoAKWrHHc/r8NH3Yy4/4eczPfaou/NxBiJU/o40kCxRgPuaUojuR64xbAW+GpwEESoaqTuWBA3l3Cjg+EgZ7E/crR3Vu00r4od/CL2DbojsY+j0qxcDqhvn9K8uvMv1fRevWEP+LGHGA7U8eeUOnkLkv3rDwHh/45o3In7PfbgeXXrc2jOxF8usFyCcBa+xklDtlYlgLEYILB74GNLnkVI93aYSbAziVBBfZ0n14exwzo5NdI7mBnjUB63c+KPb17Pm4JlJLJO3pSpDBdFzLvHstezT+vJfJkGwPJE7JRpsLlvwNGgej5lEUyeAJnCmhHTUmxHzy+WJddd6I4vWjD65cEwTgxIxa9DQlGoBgctB/uuhNDGL4B5szSUBVbl9/Bd4Fxvwx+jyBcoIt5PGdFRdjR0hkk8qNootUuJ03bvlOnYcbgQB3Nhs9LVFlotx/LocFjBwZW1xvFd3Hanhk+s6xQzZSQgAgxUkrb6DuvOsmBZGbHYshyAEyj35ubm3oafXGuPo0DmY8eOf2K1Wt5GeLv3fjJOMGJgyn917Dv5inXhqpGAOQmeD9k1u1Dz3xe7F8GW1pGkWXCXfWcga2qG5g6BUpwpIKOab+3f102GgH9Afnjak/goY4ca7/3kU9BlZWWjcALkR3w70CJbtAoHG1V6R1zhzPpG+WZstLZHvD5AwqmZvZ/YWsPKs2JF/OAdUKdem2XZ56Nn49zRFCD2FRyI6J6SkkI4f0S9e/c2ZWSk31NYaBmLGfIEwH3qBfIMwqfihvf5vjo2ZlWsvWEVNn37Ygy3A88Ab4LzRTi/qkwJG9+w6WItA+3ucH1s3c77Ko6blTJ+f4KOer88Pq8wr9aiIyLO+4QkFtTGZ5BnPsy8r2K6P89THpsfj4GV3YO1wE3Yuw1Zlit7N3tsTEN54R/Qn9noRKDa4dOiYC/MW4WxsPUMXxk35J6ZtvwSNRfawKfxlFedXk+JSUmEk3mqULPgBwoPqnn5CfZ1GrNiB9zRvIqtkAL0VR7RN1k0BEQINRW4ZLMroXxXHthSOCNOACFwWDYJp70VGhuNRhlnNtVDZQpkjPKD6MiHmA1BkYlpz59ulYJncaPtw4cPZ7WY1xYDEN8TZ6R43yNoWcQrTlNh5el/P3wriOCGgb88Wq/B+mLOesr93SRy3+KP03hnMDD6jBw58pnzxcW3durUyYSB4zh39ux6NPnlW2+9NWDlDeJJCxYskFFOAY6/6Fs+96/NnNYfEs4x/QZxbAhLQbgOxFiLEWFFB4q4QYgTEOdfzPOOWTAGL/ylagP8ZLyvwz0ejJRE+CL4GfD74IMOp9VAIFauP0M6Ph5EpsEwD/jdt4G0ACdcwHqnOMBuqIEsnVEVm/om2fkCQrcDQlm9fh7tWnzo0KEMnN+tvv/++1vFQnngYXB1xlnXYj7Fxz+AC/kTywRX64vmGUAIFLoW/iyQyHy5CqOER+Ux/J7ceTwjrppRjgUZj/p0hLnD/LHkQ/AjEO4IH7Nx48YPIDt45Rzg0mmscF42D2UqMQuRZ/UCaTwqsld+zsETF09WIbeWkfj+Ca/0pqBMXV2Ci9vkIYSaqekXxYLybDVPsCfYbBzaNgxs9noQYQj65sIpvo3gJn8FN3mdcYY8FpT9Dv4bsDf+IivsDAroISoo5MIAdgThbQCwFRWKEGIKu0JaRIcySh6U54+/+WUCgorSg2cd5Mut4YCAwzdPOfz4KxkxXgI8OJ4S535aYJq/ML4//BVUg8WmemsallgkavAzv5fggAvuBlOegGze2vwWfhH6wj/ZczPQMw3hySDCOTw34EjljUj/HbLnwu/GzHsU8WHxhx76OgDtiEKj8OyMJyx8xF8VnYRapzTEN3fgGxqdj7KsdTA72oLwWcQ9Dhgr4FnFtUMgvhVY8hJieOZ0zaFHnnhQAXIGpzh2vvAmiZ9tJY2drTdE2KTnNUMHyLiypvOpSny4P2Bh4jA4tN+jefHvrDYpHk8C2eVA/vWAwbucn8O/j/4mQjNj1srbwqwkrMLh65XIGxZ/AYQAstigxp9upXAYDV+I9/NgJe4eAXI4h+legHOeJ1CmCv4En25Dw3eizDL40Wjo6xCIHi0mHKyWpLHpwIlTejFYbfTJzqG0xb+hz049RPrdJ2AndVKC0TgIRw2XQGZtRnuiqh/t14IIDgzCD73bAnZUAuSybBiAPPy7e/wl7o+Y6YU4UsnXI+Ugf0/4rvAn8EUVs6mwLoAQyM0S72sA6wLg40CISvwscBHiWuRQtgYwlOmIqXoeAp+1re6I/75FgKLKjENVVgs9u2gRbD9xlIAjOHGxsaSPwW3NKK/FPyw+KyFL2BT+JZB1KBqwfL0DnAULPJ7JiuPjL8DJi3ixYS3yLmBVgbgGHNL+DYgzCwNtKtI/B5FwkES6Fvlebt++/Un0fTX6HnJWqITgX9i9EoX4W+snAAAf6mhYs/kUVO6PNCOO5e/nFSd4ImCGhIciipBlIc0b8x7hDrj8pWQjGhi+sALB6w+MAn6/1O6V2Bx04OZNAR/ANCJ7DT4DrrHZqJPX71FA3S5E7inNJVoXOnLkiBO/Zvwn9GcukP8BPA8sJ963w+NMhHQN/E8QxwJ9PuIeBrH+hSdaFtqphJAh2aMaqeCz+NzZ0ixMg8BGpXvQGP5x2WI1Ge8/IHwYnnlnBOduM08n5xdn6LDeRhUaiXK7daXjx08E6r3IePaclWJiM6gGF+n2GQkFDZqWqaSMcJ8F8reQ+GFaB7nB2s9uyIHPgehumO2//+qrrxKBF6m2tvYayIyFUF8NrJGBBT4CvC4PA86TpLAOz1uUAVTAa4FM8L43Z7fw93qCVcGaCDrAx9WrN9NYbXG8+Tiwx/wVGyX4GS2cvLk4KpficJPAme37KPEsOEyTZqbAwwwtzTJR9rAryH7yHCVX4b4nlBtcKVGapOPdgwF3WPf6rJiDtaMlcSDEHSDESKyp5vHXosAJfp1TfAnrh0cZzj//+c8srNiP4MxSahPxwoJvFSEYIn6xfSymHJsy6jAD7GoteFdgqlOx6R2vfI++rwrXlIfjMYSpBv62G6dMKV4VP+RD4JH3rRXHO1zbNRaqnTiYsj7bQwNF3+OXXOFeZzUVX92TOu0qooFO94Icuzm8zCgwyM6x0+0HeB3UZg4LuUGY8X8GwMHwK8DKV2DWz0CfdqE/j8CzIF+OwfWLaCptNSFU4O+++25Mdna2yuLU6KifmMW8GOJfzc1AZxaykRD2ocnA/XsAwmqhxzGX9SWlJ0kJBEmvx2T5Y5otY+Ek2uCRV76lLu0NwjsTbGk8oLDPRj+YxX8NmbrTW8hHquWSCRGpgijTBXRIVM3PuPrZqDHqH4Tl8gU00P0TaFEC4mzcKV7IuQT57UZJWnCfbd+FFhRvdVbWqFqCfO+KLhdCeLdJCS+hXENiXFIfiIJHwdWuxsjGz3ZGai4zM6EBy7v9mDpvOeIM399XsbXFJoyAxvxvxP8/GPgfXGzGwnFW9HAAAAAASUVORK5CYII=;" vertex="1" parent="1">
          <mxGeometry x="247" y="592" width="98" height="94" as="geometry" />
        </mxCell>
        <mxCell id="suu0JaHc6aoQa4eEZUap-5" value="Infra&amp;nbsp;&amp;nbsp;&lt;span style=&quot;background-color: transparent; color: light-dark(rgb(0, 0, 0), rgb(255, 255, 255));&quot;&gt;Hub&lt;/span&gt;" style="rounded=0;whiteSpace=wrap;html=1;fillColor=none;strokeColor=light-dark(#00b0f0, #ededed);verticalAlign=top;align=right;labelPosition=center;verticalLabelPosition=middle;fontSize=12;" vertex="1" parent="1">
          <mxGeometry x="549.6" y="347" width="740" height="207.5" as="geometry" />
        </mxCell>
        <mxCell id="suu0JaHc6aoQa4eEZUap-6" value="ExpressConnect" style="rounded=0;whiteSpace=wrap;html=1;fillColor=none;strokeColor=light-dark(#00b0f0, #ededed);verticalAlign=top;align=center;labelPosition=center;verticalLabelPosition=middle;fontSize=12;fontStyle=1" vertex="1" parent="1">
          <mxGeometry x="989.9999999999999" y="367" width="100" height="180" as="geometry" />
        </mxCell>
        <mxCell id="suu0JaHc6aoQa4eEZUap-7" value="&lt;span style=&quot;color: rgb(64, 64, 64); font-family: DeepSeek-CJK-patch, Inter, system-ui, -apple-system, &amp;quot;system-ui&amp;quot;, &amp;quot;Segoe UI&amp;quot;, Roboto, &amp;quot;Noto Sans&amp;quot;, Ubuntu, Cantarell, &amp;quot;Helvetica Neue&amp;quot;, Oxygen, &amp;quot;Open Sans&amp;quot;, sans-serif; text-align: left;&quot;&gt;Authentication&lt;/span&gt;" style="rounded=0;whiteSpace=wrap;html=1;fillColor=none;strokeColor=light-dark(#00b0f0, #ededed);verticalAlign=top;align=center;labelPosition=center;verticalLabelPosition=middle;fontSize=12;fontStyle=1" vertex="1" parent="1">
          <mxGeometry x="1108.5" y="368" width="91.5" height="180" as="geometry" />
        </mxCell>
        <mxCell id="suu0JaHc6aoQa4eEZUap-8" value="Prod" style="rounded=0;whiteSpace=wrap;html=1;fillColor=light-dark(#f9ede9, #ededed);strokeColor=light-dark(#e8eff2, #ededed);dashed=1;verticalAlign=top;fontSize=12;" vertex="1" parent="1">
          <mxGeometry x="895" y="657" width="320" height="255" as="geometry" />
        </mxCell>
        <mxCell id="suu0JaHc6aoQa4eEZUap-9" value="Test" style="rounded=0;whiteSpace=wrap;html=1;fillColor=light-dark(#e8eff2, #ededed);strokeColor=light-dark(#e8eff2, #ededed);dashed=1;verticalAlign=top;fontSize=12;" vertex="1" parent="1">
          <mxGeometry x="560" y="657" width="320" height="255" as="geometry" />
        </mxCell>
        <mxCell id="suu0JaHc6aoQa4eEZUap-10" value="&lt;span style=&quot;color: rgb(64, 64, 64); font-family: DeepSeek-CJK-patch, Inter, system-ui, -apple-system, &amp;quot;system-ui&amp;quot;, &amp;quot;Segoe UI&amp;quot;, Roboto, &amp;quot;Noto Sans&amp;quot;, Ubuntu, Cantarell, &amp;quot;Helvetica Neue&amp;quot;, Oxygen, &amp;quot;Open Sans&amp;quot;, sans-serif; text-align: left;&quot;&gt;Security Audit&lt;/span&gt;" style="rounded=0;whiteSpace=wrap;html=1;fillColor=none;strokeColor=light-dark(#00b0f0, #ededed);verticalAlign=top;fontSize=12;fontStyle=1" vertex="1" parent="1">
          <mxGeometry x="570" y="367" width="160.53" height="80" as="geometry" />
        </mxCell>
        <mxCell id="suu0JaHc6aoQa4eEZUap-11" value="&lt;span style=&quot;color: rgb(64, 64, 64); font-family: DeepSeek-CJK-patch, Inter, system-ui, -apple-system, &amp;quot;system-ui&amp;quot;, &amp;quot;Segoe UI&amp;quot;, Roboto, &amp;quot;Noto Sans&amp;quot;, Ubuntu, Cantarell, &amp;quot;Helvetica Neue&amp;quot;, Oxygen, &amp;quot;Open Sans&amp;quot;, sans-serif; text-align: left;&quot;&gt;Network Security&lt;/span&gt;" style="rounded=0;whiteSpace=wrap;html=1;fillColor=none;strokeColor=light-dark(#00b0f0, #ededed);verticalAlign=top;align=center;labelPosition=center;verticalLabelPosition=middle;fontSize=12;fontStyle=1" vertex="1" parent="1">
          <mxGeometry x="760" y="367" width="209" height="181" as="geometry" />
        </mxCell>
        <mxCell id="suu0JaHc6aoQa4eEZUap-12" value="" style="rounded=0;whiteSpace=wrap;html=1;fillColor=none;strokeColor=light-dark(#00b0f0, #ededed);dashed=1;fontSize=12;" vertex="1" parent="1">
          <mxGeometry x="556" y="747" width="326" height="170" as="geometry" />
        </mxCell>
        <mxCell id="suu0JaHc6aoQa4eEZUap-13" value="WAF" style="points=[];html=1;align=center;shadow=0;dashed=0;fillColor=#FF6A00;strokeColor=none;shape=mxgraph.alibaba_cloud.waf_web_application_firewall;textShadow=1;verticalAlign=top;spacingTop=25;spacing=0;aspect=fixed;fontSize=12;" vertex="1" parent="1">
          <mxGeometry x="773.69" y="407" width="30" height="30" as="geometry" />
        </mxCell>
        <mxCell id="suu0JaHc6aoQa4eEZUap-14" value="CFW" style="points=[];html=1;align=center;shadow=0;dashed=0;fillColor=#FF6A00;strokeColor=none;shape=mxgraph.alibaba_cloud.cfw_cloud_firewall;textShadow=1;verticalAlign=top;spacingTop=25;spacing=0;aspect=fixed;fontSize=12;" vertex="1" parent="1">
          <mxGeometry x="766.19" y="498" width="45" height="30" as="geometry" />
        </mxCell>
        <mxCell id="suu0JaHc6aoQa4eEZUap-15" value="" style="edgeStyle=orthogonalEdgeStyle;rounded=0;orthogonalLoop=1;jettySize=auto;html=1;endArrow=none;startFill=0;dashed=1;strokeColor=light-dark(#156082, #ededed);strokeWidth=2;fontSize=12;" edge="1" parent="1" source="suu0JaHc6aoQa4eEZUap-16" target="suu0JaHc6aoQa4eEZUap-49">
          <mxGeometry relative="1" as="geometry">
            <Array as="points">
              <mxPoint x="796" y="627" />
              <mxPoint x="890" y="627" />
            </Array>
          </mxGeometry>
        </mxCell>
        <mxCell id="suu0JaHc6aoQa4eEZUap-16" value="BE LB" style="points=[];html=1;align=center;shadow=0;dashed=0;fillColor=#FF6A00;strokeColor=none;shape=mxgraph.alibaba_cloud.slb_server_load_balancer_03;textShadow=1;verticalAlign=top;spacingTop=25;spacing=0;aspect=fixed;fontSize=12;" vertex="1" parent="1">
          <mxGeometry x="781.19" y="677" width="30" height="30" as="geometry" />
        </mxCell>
        <mxCell id="suu0JaHc6aoQa4eEZUap-17" value="" style="edgeStyle=orthogonalEdgeStyle;rounded=0;orthogonalLoop=1;jettySize=auto;html=1;endArrow=none;startFill=0;dashed=1;strokeColor=light-dark(#156082, #ededed);strokeWidth=2;fontSize=12;" edge="1" parent="1" source="suu0JaHc6aoQa4eEZUap-18" target="suu0JaHc6aoQa4eEZUap-49">
          <mxGeometry relative="1" as="geometry">
            <Array as="points">
              <mxPoint x="631" y="627" />
              <mxPoint x="890" y="627" />
            </Array>
          </mxGeometry>
        </mxCell>
        <mxCell id="suu0JaHc6aoQa4eEZUap-18" value="FE LB" style="points=[];html=1;align=center;shadow=0;dashed=0;fillColor=#FF6A00;strokeColor=none;shape=mxgraph.alibaba_cloud.slb_server_load_balancer_03;textShadow=1;verticalAlign=top;spacingTop=25;spacing=0;aspect=fixed;fontSize=12;" vertex="1" parent="1">
          <mxGeometry x="616.08" y="677" width="30" height="30" as="geometry" />
        </mxCell>
        <mxCell id="suu0JaHc6aoQa4eEZUap-19" value="" style="edgeStyle=orthogonalEdgeStyle;rounded=0;orthogonalLoop=1;jettySize=auto;html=1;endArrow=none;startFill=0;strokeWidth=2;dashed=1;strokeColor=light-dark(#156082, #ededed);fontSize=12;" edge="1" parent="1" source="suu0JaHc6aoQa4eEZUap-20" target="suu0JaHc6aoQa4eEZUap-29">
          <mxGeometry relative="1" as="geometry" />
        </mxCell>
        <mxCell id="suu0JaHc6aoQa4eEZUap-20" value="BE APP" style="points=[];aspect=fixed;html=1;align=center;shadow=0;dashed=0;fillColor=#FF6A00;strokeColor=none;shape=mxgraph.alibaba_cloud.eci_elastic_container_instance;spacingTop=25;verticalAlign=top;fontSize=12;" vertex="1" parent="1">
          <mxGeometry x="816" y="847" width="42.89" height="30" as="geometry" />
        </mxCell>
        <mxCell id="suu0JaHc6aoQa4eEZUap-21" value="" style="edgeStyle=orthogonalEdgeStyle;rounded=0;orthogonalLoop=1;jettySize=auto;html=1;endArrow=none;startFill=0;strokeWidth=2;dashed=1;strokeColor=light-dark(#156082, #ededed);fontSize=12;" edge="1" parent="1" source="suu0JaHc6aoQa4eEZUap-22" target="suu0JaHc6aoQa4eEZUap-31">
          <mxGeometry relative="1" as="geometry" />
        </mxCell>
        <mxCell id="suu0JaHc6aoQa4eEZUap-22" value="FE APP" style="points=[];aspect=fixed;html=1;align=center;shadow=0;dashed=0;fillColor=#FF6A00;strokeColor=none;shape=mxgraph.alibaba_cloud.eci_elastic_container_instance;spacingTop=25;verticalAlign=top;fontSize=12;" vertex="1" parent="1">
          <mxGeometry x="573.19" y="847" width="42.89" height="30" as="geometry" />
        </mxCell>
        <mxCell id="suu0JaHc6aoQa4eEZUap-23" value="" style="edgeStyle=orthogonalEdgeStyle;rounded=0;orthogonalLoop=1;jettySize=auto;html=1;endArrow=none;startFill=0;strokeWidth=2;dashed=1;strokeColor=light-dark(#156082, #ededed);fontSize=12;" edge="1" parent="1" source="suu0JaHc6aoQa4eEZUap-24" target="suu0JaHc6aoQa4eEZUap-29">
          <mxGeometry relative="1" as="geometry" />
        </mxCell>
        <mxCell id="suu0JaHc6aoQa4eEZUap-24" value="BE APP" style="points=[];aspect=fixed;html=1;align=center;shadow=0;dashed=0;fillColor=#FF6A00;strokeColor=none;shape=mxgraph.alibaba_cloud.eci_elastic_container_instance;spacingTop=25;verticalAlign=top;fontSize=12;" vertex="1" parent="1">
          <mxGeometry x="743.11" y="847" width="42.89" height="30" as="geometry" />
        </mxCell>
        <mxCell id="suu0JaHc6aoQa4eEZUap-25" value="" style="edgeStyle=orthogonalEdgeStyle;rounded=0;orthogonalLoop=1;jettySize=auto;html=1;endArrow=none;startFill=0;strokeWidth=2;dashed=1;strokeColor=light-dark(#156082, #ededed);fontSize=12;" edge="1" parent="1" source="suu0JaHc6aoQa4eEZUap-26" target="suu0JaHc6aoQa4eEZUap-31">
          <mxGeometry relative="1" as="geometry" />
        </mxCell>
        <mxCell id="suu0JaHc6aoQa4eEZUap-26" value="FE APP" style="points=[];aspect=fixed;html=1;align=center;shadow=0;dashed=0;fillColor=#FF6A00;strokeColor=none;shape=mxgraph.alibaba_cloud.eci_elastic_container_instance;spacingTop=25;verticalAlign=top;fontSize=12;" vertex="1" parent="1">
          <mxGeometry x="646" y="847" width="42.89" height="30" as="geometry" />
        </mxCell>
        <mxCell id="suu0JaHc6aoQa4eEZUap-27" value="Prod VPC" style="points=[];html=1;align=center;shadow=0;dashed=0;fillColor=#FF6A00;strokeColor=none;shape=mxgraph.alibaba_cloud.vpc_virtual_private_cloud;textShadow=1;verticalAlign=top;spacingTop=25;spacing=0;aspect=fixed;fontSize=12;" vertex="1" parent="1">
          <mxGeometry x="1242.14" y="627" width="37.5" height="30" as="geometry" />
        </mxCell>
        <mxCell id="suu0JaHc6aoQa4eEZUap-28" value="" style="edgeStyle=orthogonalEdgeStyle;rounded=0;orthogonalLoop=1;jettySize=auto;html=1;endArrow=none;startFill=0;strokeWidth=2;dashed=1;strokeColor=light-dark(#156082, #ededed);fontSize=12;" edge="1" parent="1" source="suu0JaHc6aoQa4eEZUap-29" target="suu0JaHc6aoQa4eEZUap-16">
          <mxGeometry relative="1" as="geometry">
            <Array as="points">
              <mxPoint x="806" y="747" />
              <mxPoint x="806" y="747" />
            </Array>
          </mxGeometry>
        </mxCell>
        <mxCell id="suu0JaHc6aoQa4eEZUap-29" value="BE VSW" style="points=[];html=1;align=center;shadow=0;dashed=0;fillColor=#FF6A00;strokeColor=none;shape=mxgraph.alibaba_cloud.vswitch;textShadow=1;verticalAlign=top;spacingTop=25;spacing=0;aspect=fixed;fontSize=12;" vertex="1" parent="1">
          <mxGeometry x="786" y="747" width="30" height="30" as="geometry" />
        </mxCell>
        <mxCell id="suu0JaHc6aoQa4eEZUap-30" value="" style="edgeStyle=orthogonalEdgeStyle;rounded=0;orthogonalLoop=1;jettySize=auto;html=1;endArrow=none;startFill=0;strokeWidth=2;dashed=1;strokeColor=light-dark(#156082, #ededed);fontSize=12;" edge="1" parent="1" source="suu0JaHc6aoQa4eEZUap-31" target="suu0JaHc6aoQa4eEZUap-18">
          <mxGeometry relative="1" as="geometry" />
        </mxCell>
        <mxCell id="suu0JaHc6aoQa4eEZUap-31" value="FE VSW" style="points=[];html=1;align=center;shadow=0;dashed=0;fillColor=#FF6A00;strokeColor=none;shape=mxgraph.alibaba_cloud.vswitch;textShadow=1;verticalAlign=top;spacingTop=25;spacing=0;aspect=fixed;fontSize=12;" vertex="1" parent="1">
          <mxGeometry x="616" y="747" width="30" height="30" as="geometry" />
        </mxCell>
        <mxCell id="suu0JaHc6aoQa4eEZUap-32" value="ACK(K8S)" style="points=[];aspect=fixed;html=1;align=center;shadow=0;dashed=0;fillColor=#FF6A00;strokeColor=none;shape=mxgraph.alibaba_cloud.ask_ack_container_service_for_kubernetes;fontSize=12;spacingTop=40;" vertex="1" parent="1">
          <mxGeometry x="1200" y="729" width="34.85" height="40" as="geometry" />
        </mxCell>
        <mxCell id="suu0JaHc6aoQa4eEZUap-33" value="" style="edgeStyle=orthogonalEdgeStyle;rounded=0;orthogonalLoop=1;jettySize=auto;html=1;endArrow=none;startFill=0;dashed=1;strokeColor=light-dark(#156082, #ededed);strokeWidth=2;fontSize=12;" edge="1" parent="1" source="suu0JaHc6aoQa4eEZUap-34" target="suu0JaHc6aoQa4eEZUap-49">
          <mxGeometry relative="1" as="geometry">
            <Array as="points">
              <mxPoint x="1135" y="627" />
              <mxPoint x="890" y="627" />
            </Array>
          </mxGeometry>
        </mxCell>
        <mxCell id="suu0JaHc6aoQa4eEZUap-34" value="BE LB" style="points=[];html=1;align=center;shadow=0;dashed=0;fillColor=light-dark(#2b85fb, #e9690e);strokeColor=none;shape=mxgraph.alibaba_cloud.slb_server_load_balancer_03;textShadow=1;verticalAlign=top;spacingTop=25;spacing=0;aspect=fixed;fontSize=12;" vertex="1" parent="1">
          <mxGeometry x="1120" y="677" width="30" height="30" as="geometry" />
        </mxCell>
        <mxCell id="suu0JaHc6aoQa4eEZUap-35" value="" style="edgeStyle=orthogonalEdgeStyle;rounded=0;orthogonalLoop=1;jettySize=auto;html=1;endArrow=none;startFill=0;dashed=1;strokeColor=light-dark(#156082, #ededed);strokeWidth=2;fontSize=12;" edge="1" parent="1" source="suu0JaHc6aoQa4eEZUap-36" target="suu0JaHc6aoQa4eEZUap-49">
          <mxGeometry relative="1" as="geometry">
            <Array as="points">
              <mxPoint x="965" y="627" />
              <mxPoint x="890" y="627" />
            </Array>
          </mxGeometry>
        </mxCell>
        <mxCell id="suu0JaHc6aoQa4eEZUap-36" value="FE LB" style="points=[];html=1;align=center;shadow=0;dashed=0;fillColor=light-dark(#2b85fb, #e9690e);strokeColor=none;shape=mxgraph.alibaba_cloud.slb_server_load_balancer_03;textShadow=1;verticalAlign=top;spacingTop=25;spacing=0;aspect=fixed;fontSize=12;" vertex="1" parent="1">
          <mxGeometry x="950" y="677" width="30" height="30" as="geometry" />
        </mxCell>
        <mxCell id="suu0JaHc6aoQa4eEZUap-37" value="" style="edgeStyle=orthogonalEdgeStyle;rounded=0;orthogonalLoop=1;jettySize=auto;html=1;endArrow=none;startFill=0;strokeWidth=2;dashed=1;strokeColor=light-dark(#156082, #ededed);fontSize=12;" edge="1" parent="1" source="suu0JaHc6aoQa4eEZUap-38" target="suu0JaHc6aoQa4eEZUap-46">
          <mxGeometry relative="1" as="geometry" />
        </mxCell>
        <mxCell id="suu0JaHc6aoQa4eEZUap-38" value="BE APP" style="points=[];aspect=fixed;html=1;align=center;shadow=0;dashed=0;fillColor=light-dark(#2b85fb, #e9690e);strokeColor=none;shape=mxgraph.alibaba_cloud.eci_elastic_container_instance;spacingTop=25;verticalAlign=top;fontSize=12;" vertex="1" parent="1">
          <mxGeometry x="1150" y="847" width="42.89" height="30" as="geometry" />
        </mxCell>
        <mxCell id="suu0JaHc6aoQa4eEZUap-39" value="" style="edgeStyle=orthogonalEdgeStyle;rounded=0;orthogonalLoop=1;jettySize=auto;html=1;endArrow=none;startFill=0;strokeWidth=2;dashed=1;strokeColor=light-dark(#156082, #ededed);fontSize=12;" edge="1" parent="1" source="suu0JaHc6aoQa4eEZUap-40" target="suu0JaHc6aoQa4eEZUap-48">
          <mxGeometry relative="1" as="geometry" />
        </mxCell>
        <mxCell id="suu0JaHc6aoQa4eEZUap-40" value="FE APP" style="points=[];aspect=fixed;html=1;align=center;shadow=0;dashed=0;fillColor=light-dark(#2b85fb, #e9690e);strokeColor=none;shape=mxgraph.alibaba_cloud.eci_elastic_container_instance;spacingTop=25;verticalAlign=top;fontSize=12;" vertex="1" parent="1">
          <mxGeometry x="907.11" y="847" width="42.89" height="30" as="geometry" />
        </mxCell>
        <mxCell id="suu0JaHc6aoQa4eEZUap-41" value="" style="edgeStyle=orthogonalEdgeStyle;rounded=0;orthogonalLoop=1;jettySize=auto;html=1;endArrow=none;startFill=0;strokeWidth=2;dashed=1;strokeColor=light-dark(#156082, #ededed);fontSize=12;" edge="1" parent="1" source="suu0JaHc6aoQa4eEZUap-42" target="suu0JaHc6aoQa4eEZUap-46">
          <mxGeometry relative="1" as="geometry" />
        </mxCell>
        <mxCell id="suu0JaHc6aoQa4eEZUap-42" value="BE APP" style="points=[];aspect=fixed;html=1;align=center;shadow=0;dashed=0;fillColor=light-dark(#2b85fb, #e9690e);strokeColor=none;shape=mxgraph.alibaba_cloud.eci_elastic_container_instance;spacingTop=25;verticalAlign=top;fontSize=12;" vertex="1" parent="1">
          <mxGeometry x="1077.1100000000001" y="847" width="42.89" height="30" as="geometry" />
        </mxCell>
        <mxCell id="suu0JaHc6aoQa4eEZUap-43" value="" style="edgeStyle=orthogonalEdgeStyle;rounded=0;orthogonalLoop=1;jettySize=auto;html=1;endArrow=none;startFill=0;strokeWidth=2;dashed=1;strokeColor=light-dark(#156082, #ededed);fontSize=12;" edge="1" parent="1" source="suu0JaHc6aoQa4eEZUap-44" target="suu0JaHc6aoQa4eEZUap-48">
          <mxGeometry relative="1" as="geometry" />
        </mxCell>
        <mxCell id="suu0JaHc6aoQa4eEZUap-44" value="FE APP" style="points=[];aspect=fixed;html=1;align=center;shadow=0;dashed=0;fillColor=light-dark(#2b85fb, #e9690e);strokeColor=none;shape=mxgraph.alibaba_cloud.eci_elastic_container_instance;spacingTop=25;verticalAlign=top;fontSize=12;" vertex="1" parent="1">
          <mxGeometry x="980" y="847" width="42.89" height="30" as="geometry" />
        </mxCell>
        <mxCell id="suu0JaHc6aoQa4eEZUap-45" value="" style="edgeStyle=orthogonalEdgeStyle;rounded=0;orthogonalLoop=1;jettySize=auto;html=1;endArrow=none;startFill=0;strokeWidth=2;dashed=1;strokeColor=light-dark(#156082, #ededed);fontSize=12;" edge="1" parent="1" source="suu0JaHc6aoQa4eEZUap-46" target="suu0JaHc6aoQa4eEZUap-34">
          <mxGeometry relative="1" as="geometry">
            <Array as="points">
              <mxPoint x="1140" y="747" />
              <mxPoint x="1140" y="747" />
            </Array>
          </mxGeometry>
        </mxCell>
        <mxCell id="suu0JaHc6aoQa4eEZUap-46" value="BE VSW" style="points=[];html=1;align=center;shadow=0;dashed=0;fillColor=light-dark(#2b85fb, #e9690e);strokeColor=none;shape=mxgraph.alibaba_cloud.vswitch;textShadow=1;verticalAlign=top;spacingTop=25;spacing=0;aspect=fixed;fontSize=12;" vertex="1" parent="1">
          <mxGeometry x="1120" y="747" width="30" height="30" as="geometry" />
        </mxCell>
        <mxCell id="suu0JaHc6aoQa4eEZUap-47" value="" style="edgeStyle=orthogonalEdgeStyle;rounded=0;orthogonalLoop=1;jettySize=auto;html=1;endArrow=none;startFill=0;strokeWidth=2;dashed=1;strokeColor=light-dark(#156082, #ededed);fontSize=12;" edge="1" parent="1" source="suu0JaHc6aoQa4eEZUap-48" target="suu0JaHc6aoQa4eEZUap-36">
          <mxGeometry relative="1" as="geometry" />
        </mxCell>
        <mxCell id="suu0JaHc6aoQa4eEZUap-48" value="FE VSW" style="points=[];html=1;align=center;shadow=0;dashed=0;fillColor=light-dark(#2b85fb, #e9690e);strokeColor=none;shape=mxgraph.alibaba_cloud.vswitch;textShadow=1;verticalAlign=top;spacingTop=25;spacing=0;aspect=fixed;fontSize=12;" vertex="1" parent="1">
          <mxGeometry x="950" y="747" width="30" height="30" as="geometry" />
        </mxCell>
        <mxCell id="suu0JaHc6aoQa4eEZUap-49" value="CEN" style="points=[];html=1;align=center;shadow=0;dashed=0;fillColor=#FF6A00;strokeColor=none;shape=mxgraph.alibaba_cloud.cen_cloud_enterprise_network;textShadow=1;verticalAlign=top;spacingTop=25;spacing=0;aspect=fixed;fontSize=12;" vertex="1" parent="1">
          <mxGeometry x="874.5" y="567" width="31" height="31" as="geometry" />
        </mxCell>
        <mxCell id="suu0JaHc6aoQa4eEZUap-50" value="ES" style="points=[];html=1;align=center;shadow=0;dashed=0;fillColor=#FF6A00;strokeColor=none;shape=mxgraph.alibaba_cloud.elasticsearch;textShadow=1;verticalAlign=top;spacingTop=25;spacing=0;aspect=fixed;fontSize=12;" vertex="1" parent="1">
          <mxGeometry x="1000" y="937" width="30" height="30" as="geometry" />
        </mxCell>
        <mxCell id="suu0JaHc6aoQa4eEZUap-51" value="MySQL" style="points=[];html=1;align=center;shadow=0;dashed=0;fillColor=#FF6A00;strokeColor=none;shape=mxgraph.alibaba_cloud.mysql;textShadow=1;verticalAlign=top;spacingTop=25;spacing=0;aspect=fixed;fontSize=12;" vertex="1" parent="1">
          <mxGeometry x="857" y="937" width="30" height="30" as="geometry" />
        </mxCell>
        <mxCell id="suu0JaHc6aoQa4eEZUap-52" value="Tari" style="points=[];html=1;align=center;shadow=0;dashed=0;fillColor=#FF6A00;strokeColor=none;shape=mxgraph.alibaba_cloud.redis_kvstore;textShadow=1;verticalAlign=top;spacingTop=25;spacing=0;aspect=fixed;fontSize=12;" vertex="1" parent="1">
          <mxGeometry x="781.19" y="937" width="37.5" height="30" as="geometry" />
        </mxCell>
        <mxCell id="suu0JaHc6aoQa4eEZUap-53" value="Hologres" style="points=[];html=1;align=center;shadow=0;dashed=0;fillColor=#FF6A00;strokeColor=none;shape=mxgraph.alibaba_cloud.hologres;textShadow=1;verticalAlign=top;spacingTop=25;spacing=0;aspect=fixed;fontSize=12;" vertex="1" parent="1">
          <mxGeometry x="1068" y="937" width="37.5" height="30" as="geometry" />
        </mxCell>
        <mxCell id="suu0JaHc6aoQa4eEZUap-54" value="MaxCompute" style="points=[];html=1;align=center;shadow=0;dashed=0;fillColor=#FF6A00;strokeColor=none;shape=mxgraph.alibaba_cloud.maxcompute;textShadow=1;verticalAlign=top;spacingTop=25;spacing=0;aspect=fixed;fontSize=12;" vertex="1" parent="1">
          <mxGeometry x="1144" y="937" width="30" height="30" as="geometry" />
        </mxCell>
        <mxCell id="suu0JaHc6aoQa4eEZUap-55" value="Kafka" style="points=[];html=1;align=center;shadow=0;dashed=0;fillColor=#FF6A00;strokeColor=none;shape=mxgraph.alibaba_cloud.kafka;textShadow=1;verticalAlign=top;spacingTop=25;spacing=0;aspect=fixed;fontSize=12;" vertex="1" parent="1">
          <mxGeometry x="636" y="937" width="37.5" height="30" as="geometry" />
        </mxCell>
        <mxCell id="suu0JaHc6aoQa4eEZUap-56" value="DNS" style="points=[];aspect=fixed;html=1;align=center;shadow=0;dashed=0;fillColor=#FF6A00;strokeColor=none;shape=mxgraph.alibaba_cloud.dns_privatezone_01;fontSize=12;spacingTop=25;verticalAlign=top;" vertex="1" parent="1">
          <mxGeometry x="1342.78" y="521" width="30.5" height="30" as="geometry" />
        </mxCell>
        <mxCell id="suu0JaHc6aoQa4eEZUap-57" value="CDN" style="points=[];aspect=fixed;html=1;align=center;shadow=0;dashed=0;fillColor=#FF6A00;strokeColor=none;shape=mxgraph.alibaba_cloud.cdn_content_distribution_network;fontSize=12;spacingTop=25;verticalAlign=top;" vertex="1" parent="1">
          <mxGeometry x="1339.945" y="729" width="36.17" height="30" as="geometry" />
        </mxCell>
        <mxCell id="suu0JaHc6aoQa4eEZUap-58" value="MQ" style="points=[];aspect=fixed;html=1;align=center;shadow=0;dashed=0;fillColor=#FF6A00;strokeColor=none;shape=mxgraph.alibaba_cloud.mq_message_queue;spacingTop=25;fontSize=12;verticalAlign=top;" vertex="1" parent="1">
          <mxGeometry x="707.89" y="937" width="27.11" height="30" as="geometry" />
        </mxCell>
        <mxCell id="suu0JaHc6aoQa4eEZUap-59" value="IDaaS" style="shape=image;verticalLabelPosition=bottom;labelBackgroundColor=default;verticalAlign=top;aspect=fixed;imageAspect=0;image=data:image/png,iVBORw0KGgoAAAANSUhEUgAAACIAAAAiCAYAAAA6RwvCAAAAAXNSR0IArs4c6QAAAIRlWElmTU0AKgAAAAgABQESAAMAAAABAAEAAAEaAAUAAAABAAAASgEbAAUAAAABAAAAUgEoAAMAAAABAAIAAIdpAAQAAAABAAAAWgAAAAAAAACQAAAAAQAAAJAAAAABAAOgAQADAAAAAQABAACgAgAEAAAAAQAAACKgAwAEAAAAAQAAACIAAAAAEEJAwQAAAAlwSFlzAAAWJQAAFiUBSVIk8AAABq5JREFUWAnNV2tsVEUUnjN3t7ullO62lEINERSoiWBbq9GGCvgIURKVqPUHwcjDtEXxB+GPf8RK1D8+MCJ9JaIEjREM2gQTJTHyJqKlpTyC4SGCUrV2ty/62r13/M50Z/d2oS/kh9PuPWdmzuObM2fO3CvE/6TReHG0rspL93rTliihlgil7hJSBJUSFgx1KCGaicSeXsfanVvX8M94bI8KpLWsaJokZ74UqgSGF8JRASs58Hq9JjHJc/g/KQUdRHe/reShzLqGS9eTN2NDgOwoFdYjwaJbZEpklojKh4WipwSpO9jqMH6NnWEpO5BAbyv1K9h6KWmPEtFfMnJOXKRK4RhFDaRtzd33C9t5VpBYhhjnINSjtQgUQw6JC6TkUYAlqOSTUnOgmIVfykgG2Kki0QmlT5WgL3qV/FkD6agoUMOFmg1yuD149NvijCB6I7Pm2GcjOQqXFSyFow1+iwojMDyabdhcooGEywuiMGwZ4zyIaCIXxVEg3uJYnh8iXf2hqdubrxqZsdArZUUTMlKcQCTqlNhKlCNnHmLb7oDzIu2os4DHBYB0gUxkHm2LtMQ2pexzgeoT4cGhm/Nse/m+SVZ/7yybrEWWUO8yIAYStdVcT8xFH6gGQiQvZVQd+8ntOrR23jxpe3K8ljid9mHjFZ4LrylcCBtetxxFVceAj/7Ijsm455jP2vxjJ8ixjop8j4O940b8R1bXIBBL9Atbj2M7nGmDXOJJEWsdkVo54MinMbqLZ5BUn2M1Q2WxuX7YCZcXnsdS3wzkPLGNKivjJyNuUdHkOA/G86h1VQMhW/SZfQPODLcQ8wQUDhLGjoGNzTuchFjYIfQjOAH8l+WgwGF0JjJ0a7jl69VQewD5ZsxrVVuKAMXgOZjq+dbu1UAgxTmiG/hsw49GeX9hb3mwpumiW7azLL/EJtqP6fntFYWvCtG40T0PEHEfANqNKtwjWQAKvUZwPEBYpz+KapLUJtUdP2grq5hPnkeK11tWFsYda1FS010qOggaCJz3mwnoIrT/vWXlpjcgIVts7J/P6+S5LaL+5Zo+wHIC48pCQ97yqTFtyEkwg+OlVLk3iq3bhkUKsuieJP1EsirSJUIDQcJoVCyMjDNHOkl3/F0s8KTWcsStbm0k+BTTh7+/mI9FRMWTFSckXmGN8A1TihV3XEhuG0pRTryvqI15LYAyHjIZB3pTtkY7UnQ7U+XQ77qPx47SUixUZZk+rssQ8wZpvJTjOI14cxoDo1HkBi5j9RIvUFnOASNfErzgQ+7EFwsACSC4jMJ8hmPtpuRIW0X+vbCZw7d2isc6b4yn2X3+hCt+iaJ2nhvcGqX+NJNIsHHliM8j+WAMaW1l+YstQV8huiIixHvpmxtbjYBFFI+GHpODB0WvHuX7rKUxIYeV8nWWFxZPqm08YpSHo+wIifdKO25vrtio5EFFVOIRlMdXAgb2Baob17v1bW/KTOUkrh+I/c3zGkhm+5wz7ZlnOU+CUEYFVofDKwqCwU+adNgATgcMV44JHMQAAj+MlWsKnj3jzongtfA3MNuDNcdR3hNNrVjk73DaN7O8adi5s8zrraGdO23Y+MBMakGfqFeVizRQ25ZvKykX+P3ysJFxpHyGxyKCFpofbsG5vcoKBOuaZgRrk0DgaIZ94U2wnShukj4y91R8hewAL0icVLcZZ6D1wdqmpa7+DbOwvRXKK42BiXi5CTt96VOqTnXzmI6ImVTKehDI4vcOxp+EgQOqtDjVyNwIRQ59A70VLt0eRG6yAcHjQyLCA91ri+bhjb6ZX3pNA3dJSGd5ZnVzvB6YuZFouKJgBhLpO8jMMXKw1UuSHgtWN+4zY0yvAcKDeMPKRyp+DzZeAcFHUf7f6Ur1b5y+6Uj8tYHlk9vldcWpE3t61iN1X4Njd10KoZI+n1lzfHeyznWBsFCorCiDyN4LtoD7rtaFk/JCq/dq/ezN59zbKBTKd+fkc4txdKsQiRkuHf4quGArejyrtvG0e9zwwwIxAqHywmrUh9XoDy1EpC4Lks8F/P6jItrqdEcmzLaF/BIA8hKbCi2UJpJqV8bU6DKqPDVg7CbTUYGwQs+Lc6f32dZphNp8cmg7rOzFpyHTAXy4DAGgJfDJl2rlpr3f0BLrDkuGnJrhpCZUnbzc0d+RDZelkOGPMd3YMQPovxZEBKjWBZSVNhYQbGxMEdFeY4+O1XdmRj3eVVjBBiinJ0UBtU28FR2guuytg98/bt2R+HEDMcZwBQSEj1Zh5TP1GIlWz4CoTv84ccEZ2bHQfwF1d3L91feJbgAAAABJRU5ErkJggg==;fontSize=12;spacingTop=-10;" vertex="1" parent="1">
          <mxGeometry x="1135.25" y="401" width="30" height="30" as="geometry" />
        </mxCell>
        <mxCell id="suu0JaHc6aoQa4eEZUap-60" value="PolarDB" style="points=[];aspect=fixed;html=1;align=center;shadow=0;dashed=0;fillColor=#FF6A00;strokeColor=none;shape=mxgraph.alibaba_cloud.polardb;verticalAlign=top;spacingTop=25;fontSize=12;" vertex="1" parent="1">
          <mxGeometry x="929" y="937" width="29.06" height="30" as="geometry" />
        </mxCell>
        <mxCell id="suu0JaHc6aoQa4eEZUap-61" value="BastionHost" style="points=[];aspect=fixed;html=1;align=center;shadow=0;dashed=0;fillColor=#FF6A00;strokeColor=none;shape=mxgraph.alibaba_cloud.bastionhost;spacingTop=25;verticalAlign=top;fontSize=12;" vertex="1" parent="1">
          <mxGeometry x="1131.3000000000002" y="445" width="37.9" height="30" as="geometry" />
        </mxCell>
        <mxCell id="suu0JaHc6aoQa4eEZUap-62" value="KMS" style="shape=image;verticalLabelPosition=bottom;labelBackgroundColor=default;verticalAlign=top;aspect=fixed;imageAspect=0;image=data:image/png,iVBORw0KGgoAAAANSUhEUgAAABgAAAAaCAYAAACtv5zzAAAAAXNSR0IArs4c6QAAAIRlWElmTU0AKgAAAAgABQESAAMAAAABAAEAAAEaAAUAAAABAAAASgEbAAUAAAABAAAAUgEoAAMAAAABAAIAAIdpAAQAAAABAAAAWgAAAAAAAACQAAAAAQAAAJAAAAABAAOgAQADAAAAAQABAACgAgAEAAAAAQAAABigAwAEAAAAAQAAABoAAAAAis3HWAAAAAlwSFlzAAAWJQAAFiUBSVIk8AAAAyZJREFUSA3dlFtIU3Ecx9vFbS3nyqMOpSDSEBZFPfrQq1EY3WBBUGYYshuJRXRjSAQFo1Zzbj5kVC8iERUUGHQRIsvMl0U+SSI9zKH24Gz3S58DHWmz6ba3OnD4/c7/nPP5/m7//5o1//olKzUBr9e7QS6XN8tksgbuxVgs9t5ut3/O5ZUk4Ha7jWVlZdfT6fQnhULhT6VSotieTCYzzfO1jo6OsCSklJxCrc/n20zEL5LJZIvNZvv6x38Pe3t7ryLazppbWi8qg+7ubqXBYHAAf6nRaKaxbYhtA7YA+DnRj2CdkUjkbFdX1w9RRC4pFWIrKyu1ADXz8/NjlOUkJQmEw2ELUA/rJxKJRD3+W8QtEq8ogbVcQKJGozGF3RkKhQbFSC0Wi59svPTlaDQa/ahUKveXJEAjFUSY5mfRKinFTwkE9Bt+lUqlWiQzYWldcgqxjGKEKFUTExPJmpqaICXbTl++1NbWasjgFIw3BNGI/SDxipoimhij9gJAXTweH1Sr1a2CIEwCFwAL1P4WWV3m9pQkAPQgIguBQCAGYLiurk6clEbKNUU/xAlqQkjW2dk5WrSAx+NpAW4hgwNEqtbr9Q9odF95efkz4FUVFRVngDaRzdIEiSIFTRGbaxdjaA4Gg/uIUq7T6YYAjROtFbgf4aesJ5mgwxwXU1L0ol11o3Es1AO4CKAP6CRT4uC/MavVOiACmBi0ZRnR/9u1Yga/4XcAPOZYGGcUN+FvnZ2dfSLBVoKL3+TNoL+/X0fKLiIcoLkjgAz4Qep/BT9kNptvSCIr2bwZAHdQYz+Rv2b2DzGS44C2cCtodN7AcsWW7QOn07mOy0a0KgR8LpdLHD0TPWjlpLjL+js22c1cUL7nZRlotdpjQNYT5XnO9QR134hAmPVR1qzsZpfJZIrnA+auZ6VKU5sBHqEkDkB6ar27urr6/tzc3Gn8Bup+Lhew2nNWiWjgbRq6l60eYTSHgcZmZmamEYxToqxvVwNL77N+AvKKF8fJYgf+JUoyBvwRJfvOrrVLPxVjswSI9gIHWTsb6h7TMySCenp62sgmw/kSLAb8/3z7C8oMitIe1U4PAAAAAElFTkSuQmCC;spacingTop=0;fontSize=12;" vertex="1" parent="1">
          <mxGeometry x="1344.185" y="417" width="27.69" height="30" as="geometry" />
        </mxCell>
        <mxCell id="suu0JaHc6aoQa4eEZUap-63" value="CDeskTop" style="points=[];html=1;align=center;shadow=0;dashed=0;fillColor=#FF6A00;strokeColor=none;shape=mxgraph.alibaba_cloud.clouddesktop;textShadow=1;verticalAlign=top;spacingTop=25;spacing=0;aspect=fixed;fontSize=12;" vertex="1" parent="1">
          <mxGeometry x="1135.25" y="498" width="30" height="30" as="geometry" />
        </mxCell>
        <mxCell id="suu0JaHc6aoQa4eEZUap-64" value="OSS" style="points=[];aspect=fixed;html=1;align=center;shadow=0;dashed=0;fillColor=#FF6A00;strokeColor=none;shape=mxgraph.alibaba_cloud.oss_object_storage_service;fontSize=12;spacingTop=25;verticalAlign=top;" vertex="1" parent="1">
          <mxGeometry x="1338.38" y="937" width="39.3" height="30" as="geometry" />
        </mxCell>
        <mxCell id="suu0JaHc6aoQa4eEZUap-65" value="CMS" style="points=[];aspect=fixed;html=1;align=center;shadow=0;dashed=0;fillColor=#FF6A00;strokeColor=none;shape=mxgraph.alibaba_cloud.cms_cloud_monitor_service;fontSize=12;spacingTop=25;verticalAlign=top;" vertex="1" parent="1">
          <mxGeometry x="570" y="498" width="37.82" height="30" as="geometry" />
        </mxCell>
        <mxCell id="suu0JaHc6aoQa4eEZUap-66" value="SLS" style="points=[];aspect=fixed;html=1;align=center;shadow=0;dashed=0;fillColor=#FF6A00;strokeColor=none;shape=mxgraph.alibaba_cloud.sls_simple_log_service;fontSize=12;spacingTop=25;verticalAlign=top;" vertex="1" parent="1">
          <mxGeometry x="631.53" y="498" width="30" height="30" as="geometry" />
        </mxCell>
        <mxCell id="suu0JaHc6aoQa4eEZUap-67" value="CSC" style="points=[];aspect=fixed;html=1;align=center;shadow=0;dashed=0;fillColor=#FF6A00;strokeColor=none;shape=mxgraph.alibaba_cloud.cloud_security_center;fontSize=12;spacingTop=25;verticalAlign=top;" vertex="1" parent="1">
          <mxGeometry x="576.655" y="397" width="26.51" height="30" as="geometry" />
        </mxCell>
        <mxCell id="suu0JaHc6aoQa4eEZUap-68" value="" style="shape=image;verticalLabelPosition=bottom;labelBackgroundColor=default;verticalAlign=top;aspect=fixed;imageAspect=0;image=data:image/png,iVBORw0KGgoAAAANSUhEUgAAADQAAAAyCAYAAAATIfj2AAAAAXNSR0IArs4c6QAAAIRlWElmTU0AKgAAAAgABQESAAMAAAABAAEAAAEaAAUAAAABAAAASgEbAAUAAAABAAAAUgEoAAMAAAABAAIAAIdpAAQAAAABAAAAWgAAAAAAAACQAAAAAQAAAJAAAAABAAOgAQADAAAAAQABAACgAgAEAAAAAQAAADSgAwAEAAAAAQAAADIAAAAAwMf5NgAAAAlwSFlzAAAWJQAAFiUBSVIk8AAACaZJREFUaAXtWQtsFMcZ3pnZ3TtjExzj2OfzC8zjTC2sVg6hCBQMVIWmkFCK7Uah0CYBA22lIAoSUQNWG6lNQUJKIAlJKooaXnaBpEQKzaO4sUnbqIRAYnrU2DjGZ58BGxO/7vYx03/WvuWAvfOuMSlqM5I9e/PP/P///a+ZnRWE/7GGbgfPusPTZqusv1jV1CQBCczgxeCJt5t/G4MW4zfNwxjrInJ/Phbfd6hiyTuXIsvs9sMCVHG8OOlKR+ceVQ8t0fUBHHYF2pnHlSJEDCa4kr+9ffHfPrWzJjLHMaCKCgG3FxQ8r6nKT9jIY4noZfTgrV5ZGlO8Y+lH/7yBEOcHjkOzJCXO+GGCrus/vtNguHBKaaKud/+ssrKEWCpjMegYUEuPv0hAdJQFrzsypAsstyapOdEuc8eA+pWu0YPpby2DJ7njQLZmZYxSKpFwu209xTisLElMFxCSLEm8sukyETeAVd1Up48ygX0N4NkOlxhcHQ3bRm6XKxXotV1l/l+7EFpAiPQjTFCdWcLtMrmNeSMOCCNsBNyOR8+17io7+/o9inu6TMhGANYAwJTh6NrlYNHwAMUu11jV6bLVh31zIzpsW36m98Uy/zaZoQdFQn4KeM8gh1IT+qjtrLQ9MaLgytcnLUQiOkrjbKhEBrZUOCa5E59IPXUqCHsXjazn/eqq/HKq6dt1KrhhZlwdMEYfEhpa+NJjzVejecR6dmirQTZxVRAEXWECAF4Q7utpaPVN3rPy4ORvVVRUmLJeLvHv0nvlLCLipzARPkZD8IulvNW4KcSKeDtjfONl4AFK2TKBsmNt+fs+KN87ZVKE5++erOt8pezcC//2108XRVIOoPojtOieR/e16IEhnocHKHYOWYoDYESnbCbF2qflBybvXnXQN6eCGR5j1RWCBv78BCIvZLWYO08ehW1LdLwPWQm1NcY9xgQXxWw5RijU+kprLawzcotghmB7s8VmqElfGiAo5h0I41oRo+d2lvr/LgjnTKurjIyBzIu5AScPhSKK7hgQIs6ONpAbIahUe7FAXnPj7tPbS1vMXFmzd+q9TFLW6pr+GHgvKUqvYT86BmQcfWxEBwDpIQR/hJG4/sXSOsiRwQYnvTX7piZjos1XWXgr01jWUCf3sIN9yDGgiF6xeg4EPHIQ3mX+cEWYWltVWqVH5q4+XJgmHAw9rpNwmcbY16FYjHgbaUCUnwZeKvPvGdDUbyq89sCU5ZoS2skoSxrKI+aiYTwMD1CskINXBzhhm8m9trLAQ5lWCiX7CU3QCqnpq2FoanPJ8ADFYY4AESevOeB7StOUX1Am8CJFzJIWZ20skuu/tg9BwlPGFq3cP+lpjdGJdzK0YoF37CGjbMfiJggYwut7scl3nuL46CMilzoQVHdeuQEJiPapY21HrGNAaQkZnwkMqV8WHIxJ0CvkmZvxUHIdA6oLJ7djRN4bivFI0DFoJ0pyZUVple03XceA+EbpdslPS5J4Bl6rh3g9Gx4s2JwF2Jh7ROLelHpm8SEnXGLtKLZ4rDsybZVC+59UtfC9Rl5ZcYtEvxXNQgrBRJeI65SLpm3euvTdeospXw39f1tg3Lhxbp/PN7q4uNjxnmZhOVRYWJg4c+bM0UCzGaQ3cnFcFG5cLgiKom3s6ur+84ULF6bdTHP62+PxpF6+3LmnsbHpWF5e3j1O1/P5I2BVNo5S/X5dx/DWeXtNVUUZvncVYsxyFUUxD7nRXFtbW1Ph60dvdna25d502x6KFjYSz7xkx2viqFE/dyUlxYyGGzyUm5uboevCMsao5HbLlQ0NDecnTPDNEQQNgVU+VFW6EATeD7vE2y0tTbUgOPqFABUUFHh6e8PTMZbONjb+yyi5kBNZ3d193xBF93lCtEtg+emMsUBKSkp9MHhpBUIoDQLlcEtL42dWQCZOnDhBFMUuv9/fwelpycmboItsBrcsMe2RmZk7V1XDR2HGadjUToAgxev1VAQCbfUAZgy8Tr8Hp+cuoI+FD1GLCCFHRBGvgHu3naqqLRNF6WFChMRwWPujLEvPBAIXn+XSMjNzVihK+PeSJD0H89/v7w+/A0LrMcEB4NcHxpsNvSZJZClE2VmMtWqEWG5CgjtdVdkU0OkQ6PN2fv7k8urqau2tmhM74QBMNS28+/vz5n3MZUQ3M+R0PbwALJeAED4QDLZuaGsLPHPy5Ek4syENFiSLoryvvb1tVVaWtwwEHAWQJQDsB4PMIoYBy3Hjwa3U9cYHGBiIjxkv3XC/rQSDbXOB3yJZdq2D8TG6jhZeXwITKS1QlBA/YtVDtKznYDi9s69nI9xgXpVl98k3/1qzp7KuTo5eZwIixH0YwqkdEvxZj8e71udLNb+agTIdM2Y88CdYyDhI+A3XUFyowGPZ5MHH7DTG0GmYx4FSUNb4fgrehaIycKEIXiehkPo8yBFcLunxpqYmHhlGWz5/fu8jxQ9u7u++lgZnyoDrckftm9W1myqPHzdujUxlAoGmf2DsmgcXHOfA+i90dUnbioqKjE9bwLi7qur6ZQd40jgsgmKWlSgi/KY+4kUYZoa1OR1kWl2VcI+2gBw36AI5e2srfeihy/C9YD98fgMd2BKw/o2ASkpKcDDYfNbtdj0MzPohrkubmzvGclbA2JOd7fMOsuWG8/FniPUznDw4Dh7DxmuFrtPM62N6Fp8a+W2nB6NSyMnf8IjRNB4xOQWRdbuPH3cfef+DB96orn2VIPYavCTvF0Q097tz5gT5nEiVIzU1J9ZnZGS1wlgD/IHV2BeSpGgUPs0AIFFRrr0Mtf9XUAXzNE0tAaEXZFncBwKLYD6DkBEgD84D2pCuq8u8Hq8fzCxDCJcDnTcT+MDPW/4D6OvfgQhhfozlsnBYfZfpyu78/Pzv8EqXKrm26FT/JnB7Fa6VtyyeNYvrbDYj5KDcElCEgKJb+/tDRwFAN1SdzbCJXeEz4SXrc4zFtyCu34CLjx1guU9crvuKmpubr4Inr8LvAEwLpaQkNUDB2AnPYY3qW8BTiyHpfwsOugje/IKPw18byOqE3miQh9yrvOJ1YhyGwsGC8BwAPuzixYs1oNYvBYxYb28vN5ygaspf5AzPgsWzZ+175CYwBsPof1lZWSk5OTlw6sgzd32PJ/N8enpGI583fvz4dNirxkdyi4/BPuFKTy/kBcTIJzAG8nonZHu9eTkwhvkZj9PBaLwaEeiT+Bp4jjTMz2+DY7C2aNQgPyNM+TpIBye5GuFr3UcDsp5xd41GciiOVsbFoVkN40y8K0g2AKENEPOOqtRdgewrJe5SC/wHurq54jDPWwgAAAAASUVORK5CYII=;fontSize=12;" vertex="1" parent="1">
          <mxGeometry x="678.53" y="498" width="52" height="50" as="geometry" />
        </mxCell>
        <mxCell id="suu0JaHc6aoQa4eEZUap-69" value="" style="rounded=0;orthogonalLoop=1;jettySize=auto;html=1;endArrow=none;startFill=0;fontSize=12;" edge="1" parent="1" source="suu0JaHc6aoQa4eEZUap-70" target="suu0JaHc6aoQa4eEZUap-73">
          <mxGeometry relative="1" as="geometry" />
        </mxCell>
        <mxCell id="suu0JaHc6aoQa4eEZUap-70" value="" style="points=[];aspect=fixed;html=1;align=center;shadow=0;dashed=0;fillColor=#FF6A00;strokeColor=none;shape=mxgraph.alibaba_cloud.express_connect;fontSize=12;" vertex="1" parent="1">
          <mxGeometry x="1002.3399999999999" y="408.5" width="32.66" height="30" as="geometry" />
        </mxCell>
        <mxCell id="suu0JaHc6aoQa4eEZUap-71" value="" style="rounded=0;orthogonalLoop=1;jettySize=auto;html=1;endArrow=none;startFill=0;fontSize=12;" edge="1" parent="1" source="suu0JaHc6aoQa4eEZUap-72" target="suu0JaHc6aoQa4eEZUap-74">
          <mxGeometry relative="1" as="geometry" />
        </mxCell>
        <mxCell id="suu0JaHc6aoQa4eEZUap-72" value="" style="points=[];aspect=fixed;html=1;align=center;shadow=0;dashed=0;fillColor=#FF6A00;strokeColor=none;shape=mxgraph.alibaba_cloud.express_connect;fontSize=12;" vertex="1" parent="1">
          <mxGeometry x="1041.4099999999999" y="408.5" width="32.66" height="30" as="geometry" />
        </mxCell>
        <mxCell id="suu0JaHc6aoQa4eEZUap-73" value="VBR" style="points=[];html=1;align=center;shadow=0;dashed=0;fillColor=#FF6A00;strokeColor=none;shape=mxgraph.alibaba_cloud.vbr_virtual_border_router;textShadow=1;verticalAlign=top;spacingTop=25;spacing=0;aspect=fixed;fontSize=12;" vertex="1" parent="1">
          <mxGeometry x="1003.67" y="488.5" width="30" height="30" as="geometry" />
        </mxCell>
        <mxCell id="suu0JaHc6aoQa4eEZUap-74" value="VBR" style="points=[];html=1;align=center;shadow=0;dashed=0;fillColor=#FF6A00;strokeColor=none;shape=mxgraph.alibaba_cloud.vbr_virtual_border_router;textShadow=1;verticalAlign=top;spacingTop=25;spacing=0;aspect=fixed;fontSize=12;" vertex="1" parent="1">
          <mxGeometry x="1042.74" y="488.5" width="30" height="30" as="geometry" />
        </mxCell>
        <mxCell id="suu0JaHc6aoQa4eEZUap-75" value="Audit" style="points=[];html=1;align=center;shadow=0;dashed=0;fillColor=#FF6A00;strokeColor=none;shape=mxgraph.alibaba_cloud.actiontrail;textShadow=1;verticalAlign=top;spacingTop=25;spacing=0;aspect=fixed;fontSize=12;" vertex="1" parent="1">
          <mxGeometry x="629.53" y="397" width="30" height="30" as="geometry" />
        </mxCell>
        <mxCell id="suu0JaHc6aoQa4eEZUap-76" value="DBS" style="points=[];html=1;align=center;shadow=0;dashed=0;fillColor=#FF6A00;strokeColor=none;shape=mxgraph.alibaba_cloud.dbs_database_backup;textShadow=1;verticalAlign=top;spacingTop=25;spacing=0;aspect=fixed;fontSize=12;" vertex="1" parent="1">
          <mxGeometry x="1343.03" y="833" width="30" height="30" as="geometry" />
        </mxCell>
        <mxCell id="suu0JaHc6aoQa4eEZUap-77" value="" style="group;fontSize=12;" vertex="1" connectable="0" parent="1">
          <mxGeometry x="830" y="417" width="119.99999999999994" height="90" as="geometry" />
        </mxCell>
        <mxCell id="suu0JaHc6aoQa4eEZUap-78" value="PA" style="points=[];html=1;align=center;shadow=0;dashed=0;fillColor=#FF6A00;strokeColor=none;shape=mxgraph.alibaba_cloud.ecs_elastic_compute_service;textShadow=1;verticalAlign=top;spacingTop=25;spacing=0;aspect=fixed;fontSize=12;" vertex="1" parent="suu0JaHc6aoQa4eEZUap-77">
          <mxGeometry x="16.409999999999968" y="30" width="30" height="30" as="geometry" />
        </mxCell>
        <mxCell id="suu0JaHc6aoQa4eEZUap-79" value="PA" style="points=[];html=1;align=center;shadow=0;dashed=0;fillColor=#FF6A00;strokeColor=none;shape=mxgraph.alibaba_cloud.ecs_elastic_compute_service;textShadow=1;verticalAlign=top;spacingTop=25;spacing=0;aspect=fixed;fontSize=12;" vertex="1" parent="suu0JaHc6aoQa4eEZUap-77">
          <mxGeometry x="71.40999999999997" y="30" width="30" height="30" as="geometry" />
        </mxCell>
        <mxCell id="suu0JaHc6aoQa4eEZUap-80" value="HA Palo Alto" style="rounded=0;whiteSpace=wrap;html=1;fillColor=none;verticalAlign=top;strokeColor=light-dark(#ffd7d6, #ededed);strokeWidth=3;fontSize=12;" vertex="1" parent="suu0JaHc6aoQa4eEZUap-77">
          <mxGeometry width="120" height="90" as="geometry" />
        </mxCell>
        <mxCell id="suu0JaHc6aoQa4eEZUap-81" value="HAVIP" style="points=[];html=1;align=center;shadow=0;dashed=0;fillColor=#FF6A00;strokeColor=none;shape=mxgraph.alibaba_cloud.havip_high-availability_virtual_ip_address;textShadow=1;verticalAlign=top;spacingTop=15;spacing=0;aspect=fixed;fontSize=12;" vertex="1" parent="suu0JaHc6aoQa4eEZUap-77">
          <mxGeometry x="50" y="70" width="20" height="20" as="geometry" />
        </mxCell>
        <mxCell id="suu0JaHc6aoQa4eEZUap-82" value="&lt;span style=&quot;color: rgb(64, 64, 64); font-family: DeepSeek-CJK-patch, Inter, system-ui, -apple-system, &amp;quot;system-ui&amp;quot;, &amp;quot;Segoe UI&amp;quot;, Roboto, &amp;quot;Noto Sans&amp;quot;, Ubuntu, Cantarell, &amp;quot;Helvetica Neue&amp;quot;, Oxygen, &amp;quot;Open Sans&amp;quot;, sans-serif; text-align: left;&quot;&gt;Monitoring&lt;/span&gt;" style="rounded=0;whiteSpace=wrap;html=1;fillColor=none;strokeColor=light-dark(#00b0f0, #ededed);verticalAlign=top;fontSize=12;fontStyle=1" vertex="1" parent="1">
          <mxGeometry x="570.53" y="466" width="160" height="80" as="geometry" />
        </mxCell>
        <mxCell id="suu0JaHc6aoQa4eEZUap-83" value="DB Audit" style="points=[];html=1;align=center;shadow=0;dashed=0;fillColor=#FF6A00;strokeColor=none;shape=mxgraph.alibaba_cloud.dbaudit;textShadow=1;verticalAlign=top;spacingTop=25;spacing=0;aspect=fixed;fontSize=12;" vertex="1" parent="1">
          <mxGeometry x="686.53" y="397" width="30" height="30" as="geometry" />
        </mxCell>
        <mxCell id="suu0JaHc6aoQa4eEZUap-84" value="SSL" style="points=[];aspect=fixed;html=1;align=center;shadow=0;dashed=0;fillColor=#FF6A00;strokeColor=none;shape=mxgraph.alibaba_cloud.cas_ssl_central_authentication_service;spacingTop=25;verticalAlign=top;fontSize=12;" vertex="1" parent="1">
          <mxGeometry x="1344.755" y="625" width="26.55" height="30" as="geometry" />
        </mxCell>
        <mxCell id="suu0JaHc6aoQa4eEZUap-85" value="" style="edgeStyle=orthogonalEdgeStyle;rounded=0;orthogonalLoop=1;jettySize=auto;html=1;endArrow=none;startFill=0;dashed=1;strokeColor=light-dark(#156082, #ededed);strokeWidth=2;fontSize=12;" edge="1" parent="1" source="suu0JaHc6aoQa4eEZUap-80" target="suu0JaHc6aoQa4eEZUap-49">
          <mxGeometry relative="1" as="geometry" />
        </mxCell>
        <mxCell id="suu0JaHc6aoQa4eEZUap-86" value="&lt;span style=&quot;color: rgb(64, 64, 64); font-family: DeepSeek-CJK-patch, Inter, system-ui, -apple-system, &amp;quot;system-ui&amp;quot;, &amp;quot;Segoe UI&amp;quot;, Roboto, &amp;quot;Noto Sans&amp;quot;, Ubuntu, Cantarell, &amp;quot;Helvetica Neue&amp;quot;, Oxygen, &amp;quot;Open Sans&amp;quot;, sans-serif; text-align: left;&quot;&gt;Basic&lt;/span&gt;" style="rounded=0;whiteSpace=wrap;html=1;fillColor=none;strokeColor=light-dark(#00b0f0, #ededed);verticalAlign=top;align=center;labelPosition=center;verticalLabelPosition=middle;fontSize=12;fontStyle=1" vertex="1" parent="1">
          <mxGeometry x="1220" y="368" width="59.64" height="180" as="geometry" />
        </mxCell>
        <mxCell id="suu0JaHc6aoQa4eEZUap-87" value="&amp;nbsp;Tools" style="points=[];html=1;align=center;shadow=0;dashed=0;fillColor=#FF6A00;strokeColor=none;shape=mxgraph.alibaba_cloud.ecs_elastic_compute_service;textShadow=1;verticalAlign=top;spacingTop=25;spacing=0;aspect=fixed;fontSize=12;" vertex="1" parent="1">
          <mxGeometry x="1237.19" y="407" width="30" height="30" as="geometry" />
        </mxCell>
        <mxCell id="suu0JaHc6aoQa4eEZUap-88" value="Backup" style="points=[];html=1;align=center;shadow=0;dashed=0;fillColor=#FF6A00;strokeColor=none;shape=mxgraph.alibaba_cloud.ecs_elastic_compute_service;textShadow=1;verticalAlign=top;spacingTop=25;spacing=0;aspect=fixed;fontSize=12;" vertex="1" parent="1">
          <mxGeometry x="1239.82" y="498" width="30" height="30" as="geometry" />
        </mxCell>
        <mxCell id="suu0JaHc6aoQa4eEZUap-89" style="rounded=0;orthogonalLoop=1;jettySize=auto;html=1;entryX=0.51;entryY=0.083;entryDx=0;entryDy=0;entryPerimeter=0;endArrow=none;startFill=0;exitX=0.69;exitY=1;exitDx=0;exitDy=0;exitPerimeter=0;edgeStyle=orthogonalEdgeStyle;" edge="1" parent="1" source="suu0JaHc6aoQa4eEZUap-111" target="suu0JaHc6aoQa4eEZUap-70">
          <mxGeometry relative="1" as="geometry" />
        </mxCell>
        <mxCell id="suu0JaHc6aoQa4eEZUap-90" style="rounded=0;orthogonalLoop=1;jettySize=auto;html=1;entryX=0.477;entryY=0.083;entryDx=0;entryDy=0;entryPerimeter=0;endArrow=none;startFill=0;exitX=0.92;exitY=1;exitDx=0;exitDy=0;exitPerimeter=0;edgeStyle=orthogonalEdgeStyle;" edge="1" parent="1" source="suu0JaHc6aoQa4eEZUap-111" target="suu0JaHc6aoQa4eEZUap-72">
          <mxGeometry relative="1" as="geometry">
            <mxPoint x="1042" y="315" as="sourcePoint" />
            <Array as="points">
              <mxPoint x="1057" y="298" />
            </Array>
          </mxGeometry>
        </mxCell>
        <mxCell id="suu0JaHc6aoQa4eEZUap-91" value="Alibaba Cloud" style="points=[];aspect=fixed;html=1;align=center;shadow=0;dashed=0;fillColor=#FF6A00;strokeColor=none;shape=mxgraph.alibaba_cloud.alibaba_cloud_logo;verticalAlign=top;spacingTop=25;fontStyle=1;fontSize=14;fontColor=light-dark(#ff6a02, #ededed);" vertex="1" parent="1">
          <mxGeometry x="1336.7" y="338" width="48.3" height="30" as="geometry" />
        </mxCell>
        <mxCell id="suu0JaHc6aoQa4eEZUap-92" value="Internet" style="points=[];aspect=fixed;html=1;align=center;shadow=0;dashed=0;fillColor=#FF6A00;strokeColor=none;shape=mxgraph.alibaba_cloud.domain;verticalAlign=top;spacingTop=35;fontStyle=1" vertex="1" parent="1">
          <mxGeometry x="370" y="211.02999999999997" width="47.1" height="47.1" as="geometry" />
        </mxCell>
        <mxCell id="suu0JaHc6aoQa4eEZUap-93" style="rounded=0;orthogonalLoop=1;jettySize=auto;html=1;strokeWidth=2;endArrow=none;startFill=0;dashed=1;strokeColor=light-dark(#e78502, #ededed);exitX=0.08;exitY=1;exitDx=0;exitDy=0;exitPerimeter=0;edgeStyle=orthogonalEdgeStyle;" edge="1" parent="1" source="suu0JaHc6aoQa4eEZUap-111">
          <mxGeometry relative="1" as="geometry">
            <mxPoint x="886" y="305" as="sourcePoint" />
            <mxPoint x="924" y="414" as="targetPoint" />
          </mxGeometry>
        </mxCell>
        <mxCell id="suu0JaHc6aoQa4eEZUap-94" style="rounded=0;orthogonalLoop=1;jettySize=auto;html=1;entryX=0;entryY=0.85;entryDx=0;entryDy=0;strokeWidth=2;endArrow=none;startFill=0;dashed=1;strokeColor=light-dark(#e78502, #ededed);entryPerimeter=0;edgeStyle=orthogonalEdgeStyle;" edge="1" parent="1" source="suu0JaHc6aoQa4eEZUap-4" target="suu0JaHc6aoQa4eEZUap-111">
          <mxGeometry relative="1" as="geometry">
            <Array as="points">
              <mxPoint x="473" y="639" />
              <mxPoint x="473" y="275" />
              <mxPoint x="911" y="275" />
            </Array>
          </mxGeometry>
        </mxCell>
        <mxCell id="suu0JaHc6aoQa4eEZUap-95" style="rounded=0;orthogonalLoop=1;jettySize=auto;html=1;strokeWidth=2;endArrow=none;startFill=0;dashed=1;strokeColor=light-dark(#e78502, #ededed);entryX=0;entryY=0.85;entryDx=0;entryDy=0;entryPerimeter=0;edgeStyle=orthogonalEdgeStyle;" edge="1" parent="1" target="suu0JaHc6aoQa4eEZUap-111">
          <mxGeometry relative="1" as="geometry">
            <Array as="points">
              <mxPoint x="473" y="764" />
              <mxPoint x="473" y="275" />
              <mxPoint x="911" y="275" />
            </Array>
            <mxPoint x="321.9800000000001" y="763.7381300813008" as="sourcePoint" />
            <mxPoint x="884" y="270" as="targetPoint" />
          </mxGeometry>
        </mxCell>
        <mxCell id="suu0JaHc6aoQa4eEZUap-96" value="" style="shape=image;verticalLabelPosition=bottom;labelBackgroundColor=default;verticalAlign=top;aspect=fixed;imageAspect=0;image=data:image/png,iVBORw0KGgoAAAANSUhEUgAAADQAAAAyCAYAAAATIfj2AAAAAXNSR0IArs4c6QAAAIRlWElmTU0AKgAAAAgABQESAAMAAAABAAEAAAEaAAUAAAABAAAASgEbAAUAAAABAAAAUgEoAAMAAAABAAIAAIdpAAQAAAABAAAAWgAAAAAAAACQAAAAAQAAAJAAAAABAAOgAQADAAAAAQABAACgAgAEAAAAAQAAADSgAwAEAAAAAQAAADIAAAAAwMf5NgAAAAlwSFlzAAAWJQAAFiUBSVIk8AAACapJREFUaAXtWQ1sFMcV3t87n8/GsUNkGxtMXGxw3JpSo9JKYHwEkZbEDT+x0zQKqqoGSAMJpVFBpKqM1JQmDcGJQTJWi0pDBZiKQmhoiKoECKSiwUL8WAFjiAHjs/HhH+7s+9mdmX677h5nsl5uz0aKIlbam5k3b9687817b2bnOO5r9vAjwfObA2UFt5S+iggJZTLGDZVltHmOmc5h0S/xoiqLSSeLJkw/sGx6vWI6fhjiUCWGYbqTXP1xudTT07MyrIbeIiodRuM7R9lrCwLPiYJ82uV4sOKtBUevxTtaiJcxlu/mzb7KYDj4mqoAjGb/e/BSwjhFjUwdCN/YvWL/tHGx81vVbQNqaGgQFRJ6h1LmshI8Kn0wFFHJDKqQ2fHKsw3ohLCpgPFkbLwTjJiP5wSAmhavHNuA/MGu5LsEDeUTiszhVaZUSRq+d2iPbUBDh3+5JYp8t1NyPIryIMfzN7/McW8piQGyWgGk481VTR8xd2qlgxd+JIriX3nhLms6ihilUZSli2L84H5UX9E4AMKn2vvi36e+oZLQBmSumYyx9NGeM1ZeYiukpelhHkZY6gt7Jq/6RUNxisGy5anTTY5OUilI9HFBErfwIue/Yxs2WM1LG1raYDWf604qsMoqoZsIVdqW7yx8buXBSU6Np/allvDWqpb/1D99foWTpUwRJX4vz/NxnQLsKGmH97buVjEELkawfxCWpnJse6iP/3TZrimrlzcU5hgCNj9zqn1rVfNiUZJnAlgtTgUdtlbMEGRSJgbIRJApiXI8o9x3CCVvUsKdfWFX4epYvrqqpv/WVTW/7Exzlwgi/+/Yvtg6jW3cpZ4YIIsYMp0PmQ8ni3TCsY1LdxY0L92lx9gk5D54Hcdq55/qQpq/aDpWI9pAlBigYWe27sAqaWe/Ap6jqzlKSqrXV8c6b2zdWpBF76inbYu5FMTKJUEQdosyV7tl0XlsutU6+9KTpTL9wp9sMTbursQA2bAlNlX4FdeC39edctIHtYvPXId2Uadd1lD8CHfJvwar90TcWlswJgYoqo6FZI5TBJG7KghiTV3V+c2xnNUNxY5OUchlkfBayiLPUzW2d2T1xADdZU641gm89VQS/lW3+HNvLDs23JleqjyPFZmPgBrL4gFjI9JHHZB2ON364+bvxYLQ6qt3fnN8v6Bsp4LiIUp8S2zIsIGHSwyQVQyx2/GhuxajZZSRZ/00/BQ23BQunhUxkCRQJgYojolW7iqe6iVKLWXsu0jV+vEnjmGmLNTGPpQYIAuPoYxzLN85+W8hFnkapwTRVMN7SEwMkIVC+DxIVRn7iQXLPe2yE2+6Ig6nK64T8mhqLfJC3JFnG9D4cQ+3cpwQGE2FrWTBu5kkOJuteGL7bANaM/M9v8Q5a0bruB+rjFld4IUrTOQ+Meszo9kGpAlJ4aU3HbK8A98yONGYiR05TTsyiYLodUiOXz90buHn8UockTq/3Dtrtkr61kZYOJ9RKujgNIlaFtReQ7qRFdHm8cmAe4fB3crgRYmbX/1BlgQQR8QhJO3NI2W/X121KTjYc//362GBEW985eXlktPpdE+cOFHyer0jTumlpaVyfn6+Ozc3V2xra4s7XRvLMWJAiqLMCAZDfwoE+ksDAf/7huBES1F0/KC7++b2vj5/ZmFhwXEYycbBB7GY6MTGOErpGLyllJLJBm0kpaqqY1WVlBJC8kOh0P9TxVCJ7bdujW1qanIMpQ62RgzITOi9pomErk3PzMw3m2fIWW7KlCkP+v39S8DocjrlA5cvXz5bUFBUpqohZ0ZGxuGurp4ZhCjzeF64kJGRtu/MmTP9sUIrKkqTz57tnYevVF96euqJxsZGpbKyUjx58tR80AKXLl04UlRU9EgkEhmPcY0oJ+AkvRBXP1ccDmk35uuLlafVtRi9evXqNJfLdRqrEtFomekPvKKVZk8UUHb2+Fnd3b0fYqe4gDuAj7DkyxHorwYCt7aiPnFgoP0DCNABwMXWdnZGVhUWFv7Q7/dH5TY3BzIHBvr/gfGfwQiPoaMHr2NgIPAe5F6EvJLe3r6X4VI/x/nsEBweXxfMiSuudQC3Ije3uJyQXmPX4gCAZmfn/owQdWM4HH4dm9tr2k524MjxPxOOdlGq7ljk8ZyLKoBK1OUYI3MhPEkUhfc7O72/6uhoX9na2toLAUSjC4J8GPTn8C6BNdcC1HS/P1AD6+JyavBB3VCG4HbHqONLW7uAM27X+MEgF/iWjg7vE52dHfjrRdwDnm8x1jvHkIUhFJmuQlWVLZBVd/369d9pYPR+GlmDrTlVkhyN+498MuS+IgqI58UDmLQD1luVmZm9DsIeMIRD0WBaWvIOtDWBFBPsBy0MUAuhTIKZUjioydLmgCz9kpHnpTStrT2wzfRwWPkL5jouScKGQergb4XH41tQPutFokYmQ+8IQDXu+/jYK4cOHXJHAXm9104mJ7u+j8uNz6DoekUh2+AiBqigz+fT/VcTSYis7Tf47OFk4DHNRINTc5xJptKtLIosZPCgNFYzVtYNAA1g5cajHBfDG60u9Hha4R67AD8ZjrQoJIopUUBa8MLFWnneXQlQFyHoUSgzVRuNerrTmZoflcQp3wbNDesdgu9HNz+kXL0OoCmg6/GJOMhB2/YDENdkWVyKecZGIkoNNtvo6u3ffyx13+HDs7Ay20Wevo1IrIswOu/JuXM7DUDi0aPHVubk5PxUkkIPM6addbkQhEazmKIEt+Xk5M1B8ngMfr0RfTeRCV/ChFGXmzNnTies1Y2xhbim+m1WVs6S/v5gjW00GAAj8FlZWR/C3aqRNGb39w+8W1JS4tZk8RncH3lBXId1/ScLhxY86Zn1dpXHo3+j6VYsLi4WkeEEGPsPiCMJwsKwzhvt7e2NyDKaj/tk2bFBUcLbIC8F/TckSX72ypUrX2Rl5eZh+nbQu+rr65W8vLy5wWC4Af84PINxjycludZjpUvQ3yFJEguFIkg03HUYIoxSf8CHdM23oYQBeY3egVczDId0vS0QCM4GPaW72/8NkM4wRt8dQ8gJj8cT9Q6NV3tifZabMGGC9ndhemoq7W1qatMFAtA5pM1sZME8t9sNsCw9LS3thrEHaa569OiFJJfrFoHH6nExadKkMUizD0HBbuwhPZplfT6ZwT4D6HP6/clSWdnk0J49e/QMCYM6fD5RLirK0EF2dXUlYbzS0tKit9GfAtfVV0DX2uJnCCAzPgMQcv5EJIbbm44Z81eAZsSQhSoMPHpMWfB8dbr0GLJWh38VruPy+fLgTj5r1vu99y1wVwv8D1YMHIFoXFsXAAAAAElFTkSuQmCC;" vertex="1" parent="1">
          <mxGeometry x="270" y="747" width="52" height="50" as="geometry" />
        </mxCell>
        <mxCell id="suu0JaHc6aoQa4eEZUap-97" value="" style="shape=image;verticalLabelPosition=bottom;labelBackgroundColor=default;verticalAlign=top;aspect=fixed;imageAspect=0;image=data:image/png,iVBORw0KGgoAAAANSUhEUgAAAGQAAAAkCAYAAAB/up84AAAAAXNSR0IArs4c6QAAAIRlWElmTU0AKgAAAAgABQESAAMAAAABAAEAAAEaAAUAAAABAAAASgEbAAUAAAABAAAAUgEoAAMAAAABAAIAAIdpAAQAAAABAAAAWgAAAAAAAACQAAAAAQAAAJAAAAABAAOgAQADAAAAAQABAACgAgAEAAAAAQAAAGSgAwAEAAAAAQAAACQAAAAAZXBnnQAAAAlwSFlzAAAWJQAAFiUBSVIk8AAADelJREFUaAXtWgd0VFUa/t68mcmUNHqVGlBIAAGRXmXpZZESKYHFQpEAssiREhcpEVh2AWOkudI0RKQTIEgTBAUMQmhBem9JIHX6zHv73zvMJJMEmEQ8y1lzz3nz3tz73/L+8v1lBihuLxQHBJnaC3WiP/FhBGqKory/48oNGCZNh23/oaJML57zFA4U2kJkScbtuj2gQzoEUzb8t38LZb06T9mieMhbDhTJQm6O/hwWmxo2hQ6Cny8MYyZ5u18xnRccKBRk2dIMSI5Pgl3UwyJp4JBVkJJTYd3+vRdbFZN4wwHvIYtc/+HmCyHeuwWdKhM6RQb0Yha0dMkOB0qeIn+iVnmzZzHNEzhQKMh6ePweMq6ZYZU1sJF1WCUtf7bLaggKBYwLFj9hm+LuwnDAK8iSbBL29t0Dm0hCcGhgocspFHomfyJTsGZetgrSg5TC7P2H0hoMJgwcOB59+4YjNTXtD93reS6u9GaxpNU3YcgUodBooayhh4IEYk22Qq1XQturLWzfbYDaFzB+HAnf5Yu8WdKDZsSIadi37wgEwaMbSqUS1apVQufOrTFoUC+UK1fak+Ap3z79dDFOnkwiCgEzZ36OqKh/PIX6xRl6poVYMh3YNfoiHKIOZosaTb8bCBuDLVkLi1lEqU9G8bskC7Du+gH2hJOFfrtHjzKgUikhiiIJRXBfDoeEa9duY8mSWDRq1As//pjg9dqVKpWH3S7R5UDZsqW8nve/Jnymhez58Aag8SGYsqPca5Whq+xL/sMHouwDlSSRAgoInP0BDLMWQBPgB8O02QjYvbFI76UgX9Sz5xtw0F6sMWb+/PMJpKVlwtdXT1byAQ4ejEXNmlWeuf6oUYNIwAJsNgfGjBnyTPoXheCpUdaDcxZEh5yDn58FSsmIcSntoNSKiG+0CoqUu9BrDGh1KRKg6sutBv2gdaRCtGRDO/0jaMIGeP2O/fqF4+zZi9xKzpzZ6TGPVXZ27DiAceNm8vF69V7Ghg3RHjT/L1+eGWWtG54ChZasw6JEyDtVuTDYy9vIOliUZaOLN7KS0stncDpotTAtWursfw6fDMJ69GhP/sMJO0ePJpL8ZXTr9g4aN+6NiRPnYv/+I2jffjCCg7uiYcNemD79M6SnZ3KYCwnpijNnLrhPEhW1htOy/uDgLmjV6i3MmBEFiVn74xYWNhGvvdYH/fuPxf37KXQPR/363Th9hw5h2LnzgIsUX3+9hdYbwvdu0KAHQkPH4ebNu+5x9nDq1HmuUG3aDERISBe+TsuWAxAd/Y0HHfvyRMg6vdWKqwkyfLVqaANkdPosyD2ZQZbAQ18ntLABbbMQCMEhsF9MhNKaDePkmdDNfX6OtEWLxoiL28eFkZVlIBjLQHa2Eb/+egbr1m2HTqfhEGez2cjaLrjp2HeTycLPPmXKvxATsxUagmCbzXl2k+kBVq/ejL17f8ahQ99yOrZ2VlY2Ll26TgIL5bTMvzGh3b37AG+/PRkrV85DQsIZLFsWCzXlX6Q31AQkJp5Hx45DkZT0PQUlIm7duoc33gjjkMsoGCyzdRgcs8BDkhwkrGFsiLcnOvVVwy1QqNT0MiLaz6jkoud3biHk2K3k2HO3Ml9MIwdPyaHaB+a4eIAY97zagwepfClWm2bMcbV795I5g199tQ4GD+6NihXLEQNawWq1caEwetaYH1q9ehOnrVKlIo4f30wM30fM7UejMjE6Gdu27eO0bA6zQpPJjADyizExC3H16g9YvHgGZ3xgoD/Gj5+FVas2ol27pqQUm3Hhwh4Ks3tw4UlU75s7dxlf66WXKqB69Sp8n/j4FXyd/fu/QYkSAeQK9CRYT39boIXERcrITqOQVqlChRBfNB1dgi/OPsxpNhjSRXLoBGVmCzLPp8C/Thk+rqpcFprQnrBu2QK1aEfmkBHw3xLDFOd3NQY/hw4lcGaWKhUAvT5HEZi2bdz4BRo0eMVjj/v3nQJ0dVqtVv7IGB0a2h2lSjnfKSJiDNas2UxarqZgwuEipzsLCOwEhzEkFIrpqXXr1g5XrtzEggUruFWUL1+GhLWAj7GPyMiJJOizuH79Ntavj8fUqaO4RSQkbHLTsIfq1Stj2rTRFGx8QjBvpTzpEUqXLslp8lmInc4dO0cmnVEj067EgCVOQka9fuA1RL2UAEOG0pkgEmztaxuDI12+gmR0vnDJme/zMVlQwXHxChyXr/CNvPtg6uy6wPF77do4tG79FhcGC4MjIt73WIppWv36L3v0FfSF5TCvv16fM2j+/OXcB7ks4ty5XYTzcejTp5N7KoOgqlUruoXhGujUqTW3PmaBI0eGurrd93btXifrAgwGI4cl1wBj+pw5y9Cly3AOgxERC8ndarglGo1mF1l+H7JgGmFrKQF2m4imvXWo0UqJvXOzcWBOMhRmAzSElwoSFnPqSsEGlWjFw8RHOFBrFqr9rQFqRPZDYOQEZE/5FBqKyLIGvofAo3vIW+XAjHv3PA9Wqx01anR43MsEA8JYmQuDaWuzZq9iwIDuj8fZmIRataoRjHhngrGxizBp0jyK0nbht9+ucEc7adJcCgSCKXkcj9q1q7vXZg8FrcusRRSdelymTP78Rqdj1iuTddn4+dg6YWEf4vDh424Y9PFRcwvLDb2MjjUPC7l1W8beIw7Y/WRYNBIa9VFiag0jNk0xwWqhyq6Cyu428hHsTpBlAzlSpY5yFHoWdLi14ihO1h0Ph1oPqWIVSLISMmmKdcdu525efDJocV42MmcbwYjENSk8PAxr1y7MxyS1ukDULXAnppHR0dNx7NgGTJjwNkVS9TgsscCgY8dh+OWX0wXOy93JIM/Vcj8X1McEN2jQBPz006/83F26tMGuXStJGXaT7/gnzAT5eZvH28xcaYZPOUrIKOtWEwItGizAFyqyAjUxx4GKDfUYsScIK1ufg+mOHQ4SxqA7vXFgwE5kHkiCSPUTiykT18cshW+gg0diWvIl2RM/RomObSHodXn39/jONGbFinnuPqah1apVJiuo6u4rygOLdnbuPIjY2DiCEgM2bVqCsWOH8otFVN27v4eHD9Pw7rtTcPr0jqJsUeAclUpFDv8sj7aaN2+EpUtnuens9pwI1d1JD26BHLhoR1K6HQF+VLMykIVkU7BUhkwvRQkfXxXGbtUjqK2T3Ea+xU6CslLIxlq777rBeKMVjvZeDXMqJZFqf7KoTEIpDZQKK1Q+FLF8thS6qX/n9E/6YBrVqVOrJw0XuZ+FmomJSWQZiXwNxnyXU2c+qEmTeqS5P5LSWfI49iJvyScyC2JQy96rfHnPOhw7A1O4vFbmFsjsnwxQlWa+Q4ZglCAaBRhSZAyNVuEvI3VQ5HIB7Icph0SXnJNM6ar6o/2JcDzcfwkXhi8l/6KBSrAStFlJMDaYv1wDn0H9IVZ76fe9ZRFmMwfcv39XLFq0koebzZv3J7gKwSuvBOHo0RMU/t7gzClTpqRHSF2ErfJMEdz50ebNuymgEChQqESVh4MEW5fBfEle2OI+5PNjJmSQIJjvcPhJSBcltP2rAl8nqdCZgprcwmA7Osg67EwodOVuAm1YumNtNL80D2XH94ExXSIrIj8j0W8mej2vc+Wmdz2zcJM5b8+w0zVa8J0lVs45OUqRm5JpHrsYjUyKw5z/unVRBFnkD0lAx46dJhzfgIsXb3CfxSrLW7Y4Kwyu8xQEK65zPmlv11x2Z75w8uRRePQonc4A2n8HJYNLSAlOomXLxvwcLDDJbSXcQvZcoVI6iUbSkFD8ZUTP1KBhrVwmkftN6dlOSMcsxJ7LQnKTKDQqVBzfDWUHtcTVNmPo514rRAVhZsIJyMQMIc8viyyhY1kxy7a9baNHD+ZhcXBw7QKnBAb6UTLWnwu5enWnVbZv34wEsIfDU1LSZZ6Ns6ioQYM66Nq1LddYttiwYW/yXIJVjPM2VjkODx/KI6gmTernHUaHDi14bsH8IRPykCG9KYqrS1WG/SSYDB5Ks1IQg8qoqNWPLTMnWuPFxQnx2Th0y86FQpEs5JsiPuqkQY82KjLhfHtiVq0HMN02QKcxISItOD8B9Tw8eBlXRy6FxpoKvSqL/qWSBk15HQIPbi+QvriTh9nO/2Ut7OqLAXXVpPFkJWQzytIyFsVZ8Oa7Jlz4jZm8J7tckMUce95muGPEntbf4Je+MTAbRV5esVgJsho1RsCu9XnJi7/n4YBH+T3LKmNCvAGnKKT1TRWhvqeAeEdEkF7EnKVK6AOcCVhErUyYbhqg1ZgxOyMnmdox5ATubbsIP202dGImtPTfLf+SdtTfNg6aGvnNP89Z/vRfKeoS3FEW44afWsB/evvifKoDH643IjNTgl8JAdfvChje2o62LZUYs0SgBJFFWVT7EZxh76H5yTg65zoUVOXVU1JosdugsKvR+KtQVOhZB8LjzPZPz3EvGOBhIXnpNxyz4ssYYu5tBXQplJ/cUqAUlVTEDDsEs4nKKCZUCLIj9Uw6lZfNUAsmKq9kocX4cmgyvR6UlL8UN+85wCzkqQJhS1F5Cf9ebsXhrRIXivoBVbLo8pFIAKKJAgHnJVKdK6iNiN4raiKwZk411vvjFFN6JRAXm5IpSfw43I5HJwRokkkgmVQPJmGoYERACQuGflsSQR31LvLiexE4UCiBuNZPPCJj/luUyROMKSULQiOBzlO9zx9c6xTf83OgSAJhy1ipfJ98DShJgZMu57er/DsU9xSKA0UWSKF2KSb2mgNMIB6/h3g9s5jwD+PAfwH0YOyDMMSqzAAAAABJRU5ErkJggg==;" vertex="1" parent="1">
          <mxGeometry x="246" y="487" width="100" height="36" as="geometry" />
        </mxCell>
        <mxCell id="suu0JaHc6aoQa4eEZUap-98" style="edgeStyle=orthogonalEdgeStyle;rounded=0;orthogonalLoop=1;jettySize=auto;html=1;exitX=1;exitY=0.5;exitDx=0;exitDy=0;entryX=0.472;entryY=0.982;entryDx=0;entryDy=0;entryPerimeter=0;strokeWidth=2;endArrow=none;startFill=0;dashed=1;strokeColor=light-dark(#01b050, #ededed);" edge="1" parent="1" source="suu0JaHc6aoQa4eEZUap-97" target="suu0JaHc6aoQa4eEZUap-92">
          <mxGeometry relative="1" as="geometry" />
        </mxCell>
        <mxCell id="suu0JaHc6aoQa4eEZUap-99" value="" style="shape=image;verticalLabelPosition=bottom;labelBackgroundColor=default;verticalAlign=top;aspect=fixed;imageAspect=0;image=data:image/png,iVBORw0KGgoAAAANSUhEUgAAAMAAAAGyCAYAAACyQct5AAAAAXNSR0IArs4c6QAAAIRlWElmTU0AKgAAAAgABQESAAMAAAABAAEAAAEaAAUAAAABAAAASgEbAAUAAAABAAAAUgEoAAMAAAABAAIAAIdpAAQAAAABAAAAWgAAAAAAAACQAAAAAQAAAJAAAAABAAOgAQADAAAAAQABAACgAgAEAAAAAQAAAMCgAwAEAAAAAQAAAbIAAAAAF024VQAAAAlwSFlzAAAWJQAAFiUBSVIk8AAAGhxJREFUeAHtmXuQXVWVxnenH3mRlyFxiEigIKYwTMkQX6OAAgITCigYcHj5KBVqLHyNgzhapf4xMw4oVZZFFTD6B0ih+EDkWZQ4CoJIVGYYBwjvAJIZGCKBTkhCutPdZ9Z37l3NSadXGx4Dnbt+u2r3OXevfR7rW9/vnH1vl0JDgcQKdO1I7lUpOzRvR87FHBR4tRQw05p1J27jGrth+HHjE5+SKApMOgVqEMYDYjuDt82vcfUp7e128yZditwQCmyvgIyvPtLeVmbkGgafuo2xG+bvtgnqPe2t5m0z1z7TUGAyK+DmH7abHLKurfo2EMjgdRtj/l4bnNru2tebgIYCO5sCevJvtT7Q7rr/YZHhb4JRABSxpqe8nvwy/0zrM6z3WdeYmlPl+/Ugf1BgEijgKxRtfV9P/EHrm9v3JyB8OVQPNQHQQXrSa0wAzOi6uv8B29JQYKdWoDpu7lJLQMsgvQ3qZZBt9TCvza6tN0Ggp70vgYodfLB91kE6WN0Jqk9gn2koMBkU8Ce/HuLyr3q3PcRvta0e6PVn2/rbwXbbAJiTfbB5El/3+2vkeZuvtZQ+CwIaCkw2BeRZX8JPt30t39U0ru7+1uO/yz5UzSWQJqo5DK1Prae+zL/R+hbrepUAgIlAm3QKyOTytFYqamO9PPbzdkug1mGtv77E0cn05Jf5BYI+K+Zx26WhwGuugMytrqWOmi+DtB96dbw3gA5Q84P0tNeyx79E+BvA45pLQ4HXWgGZX28ANZm/uVQPvToRAPWZ7I8OFgTqzX37SEOBSaOAm7zpUR8Lb3IiAPxg3+ok2q8/G27N8fACBFDg1VDAzKg3wKg/29d0j/p2u1vxV8Z2AQZQIIMCAJChyuQYKgAAoTQEMigAABmqTI6hAgAQSkMggwIAkKHK5BgqAAChNAQyKAAAGapMjqECABBKQyCDAgCQocrkGCoAAKE0BDIoAAAZqkyOoQIAEEpDIIMCAJChyuQYKgAAoTQEMigAABmqTI6hAgAQSkMggwIAkKHK5BgqAAChNAQyKAAAGapMjqECABBKQyCDAgCQocrkGCoAAKE0BDIoAAAZqkyOoQIAEEpDIIMCAJChyuQYKgAAoTQEMigAABmqTI6hAgAQSkMggwIAkKHK5BgqAAChNAQyKAAAGapMjqECABBKQyCDAgCQocrkGCoAAKE0BDIoAAAZqkyOoQIAEEpDIIMCAJChyuQYKgAAoTQEMigAABmqTI6hAgAQSkMggwIAkKHK5BgqAAChNAQyKAAAGapMjqECABBKQyCDAgCQocrkGCoAAKE0BDIoAAAZqkyOoQIAEEpDIIMCAJChyuQYKgAAoTQEMigAABmqTI6hAgAQSkMggwIAkKHK5BgqAAChNAQyKAAAGapMjqECABBKQyCDAgCQocrkGCoAAKE0BDIoAAAZqkyOoQIAEEpDIIMCAJChyuQYKgAAoTQEMigAABmqTI6hAgAQSkMggwIAkKHK5BgqAAChNAQyKAAAGapMjqECABBKQyCDAgCQocrkGCoAAKE0BDIoAAAZqkyOoQIAEEpDIIMCAJChyuQYKgAAoTQEMigAABmqTI6hAgAQSkMggwIAkKHK5BgqAAChNAQyKAAAGapMjqECABBKQyCDAgCQocrkGCoAAKE0BDIoAAAZqkyOoQIAEEpDIIMCAJChyuQYKgAAoTQEMigAABmqTI6hAgAQSkMggwIAkKHK5BgqAAChNAQyKAAAGapMjqECABBKQyCDAgCQocrkGCoAAKE0BDIoAAAZqkyOoQIAEEpDIIMCAJChyuQYKgAAoTQEMigAABmqTI6hAgAQSkMggwIAkKHK5BgqAAChNAQyKAAAGapMjqECABBKQyCDAgCQocrkGCoAAKE0BDIoAAAZqkyOoQIAEEpDIIMCAJChyuQYKgAAoTQEMigAABmqTI6hAgAQSkMggwIAkKHK5BgqAAChNAQyKAAAGapMjqECABBKQyCDAgCQocrkGCoAAKE0BDIoAAAZqkyOoQIAEEpDIIMCAJChyuQYKgAAoTQEMigAABmqTI6hAgAQSkMggwIAkKHK5BgqAAChNAQyKAAAGapMjqECABBKQyCDAgCQocrkGCoAAKE0BDIoAAAZqkyOoQIAEEpDIIMCAJChyuQYKgAAoTQEMigAABmqTI6hAgAQSkMggwIAkKHK5BgqAAChNAQyKAAAGapMjqECABBKQyCDAgCQocrkGCoAAKE0BDIoAAAZqkyOoQIAEEpDIIMCAJChyuQYKgAAoTQEMigAABmqTI6hAgAQSkMggwIAkKHK5BgqAAChNAQyKAAAGapMjqECABBKQyCDAgCQocrkGCoAAKE0BDIoAAAZqkyOoQIAEEpDIIMCAJChyuQYKgAAoTQEMigAABmqTI6hAgAQSkMggwIAkKHK5BgqAAChNAQyKAAAGapMjqECABBKQyCDAgCQocrkGCoAAKE0BDIoAAAZqkyOoQIAEEpDIIMCAJChyuQYKgAAoTQEMigAABmqTI6hAgAQSkMggwIAkKHK5BgqAAChNAQyKAAAGapMjqECABBKQyCDAgCQocrkGCoAAKE0BDIoAAAZqkyOoQIAEEpDIIMCAJChyuQYKgAAoTQEMigAABmqTI6hAgAQSkMggwIAkKHK5BgqAAChNAQyKAAAGapMjqECABBKQyCDAgCQocrkGCoAAKE0BDIoAAAZqkyOoQI9YaTDAlUpXc2U7IMNjd80d6L4+Ee9cqNj7zU682t5j9E97WzjHQ9A20xuft9WofvboLSPG532SpqtfW55xe/HfePX03gz1hwfnds+Tx17Je/PL5Bh29EAtA0iI2mp5111HWl3mac2kG3ddL61oTqmuQJG4+M1P95jPm/suOIe82v4VjHN92M0rvvV1se0HTt/NA8LNufa1Amb5o7X/Fo62ej+eBM7ZaxjAWgbQoXutq48e9v7tinDje6FdkA0380kg2luDYFt1TTfDeTH1oFx/oyN6zjvuo5fU/PczDqNYh73mMZ1rI5R83vzXDRvvOvVkxsxv3ffNuN+jvoNaRPGns/ndsy2YwFoV0hmUY7T2r3Ptir8kPWt7a2MpDGfq/naV/E1T30sBDY02tw0GmiaysfdRDqnX0f7Mriupa3m+P1oX+O6V8Xc6Br3Y3Qe3ZOOUff701y/nuZ419h44zY82hR3mOrz2cCIncCPG53YSTsqRKc2L34LgBUr/qyMjNxffvObv7WE54/pr2t/3rXst98e5aGHzimf+9wBNragPa74vEbXZx+ba/vN7vM0Nsf67PZW+x7TsbqHBeWmmz5YfvnL09pzZtp2hvWZ5bvfPdDu96Hygx8cap9nWd/F+uyyZs155fnnb7b9Zg4679jr6bOPe0z34OOKeR7aalz3qus7fFPM/dKxY5vM0XGtUTQB3gJgZGSu/bYzrWzerGIvtO5Pdn/CaW5fOeqoZWWffU4t06f/p30esD5ovfmUtY/1G0LG0LH+9NW4xvyhonFdQ3M0rvtQ11Ncc7TtLe9856fLo4/+yvZvao/pmL4yODjH7revDAzItAJD5+krQ0OCQZ+Vg19Dx+gePSfPW9dQa96jYs1eT7A/Ov556xvbfbNtdU3vttt5rSMBaJdJplOXCfrKli1aBpWyadP0smjR7uWGGz5Q7rtvdTnggGWlp6e33Hzzb8vpp99RPvIRPY1L+fCHP1RWrfp++fKXDy/r1z9d9tprb5tziz2xHy2f+tRRZcGC3crw8FBZufI35QMfuKl84QtLygknvKs880x/2XffZQba+vKNb/y4fPvba+xsU+xJ/ldl+fLlZuqucvvtvy8f+tCt5Vvfelfp7Z1T9tjjoPLDH95bTjrpGpsr4PrsKa+nsO5X962nspY30wyIPnszyMAL7Hqvt/s7usyfP9/u8Y92revK+eevttgUO9+R5a1vXW77XeWOO/69nHzyzyyHvnLddafbPT5bFi9eUn7xi1/ZfQ6XI498d5k6taesXftg+fSn/9XuT/csaGpwjIDX9Gdhu4//t9bJAEg0fyJ3l61bW4YaGJhqT/fXlbe85dC6r1nzcJk9e3b52MfeZoY4z0BpzRsc7DFzzC77739Irf5zz60r8+btaaY93YxfGTwPlb33XlxOO225QbGlLFmyyAx3rF1nS3nssQftLfLu8vWv72em/HK59tqjyzHHHFOeeGKNwdZTPvjBt5V163ax83SV7u6p9rTfals91VUPma7Hxlq1GRzUl/ep1vUknm7HdLcBmFcuvPCsMnPmrHLvvfcbdMvLeef9Zfne9/6hXHLJEdtc76ST3l6efnpmueiiu8qyZUfYeUpRPnPn/rcBf3R9X+vWrbWHwd+Uyy5bYHn9vc3Q20BvQL1VOrbpSZKhddkPma1ch4Z6zEAyVCn337/Knr4XmvkvrT/vv/8by9e+9ut6/9xzbyurV7eKv3LlSoPkH8s3v3mPvRVW2/eDn5TjjrulXHrpnfXcPfdcbOBMr/cvuugn5U1vuqT89Ke/LHPmLCwzZiwo73vfYeWpp9aVQw65prznPT+2dfyT5bDDlpczz7y7bNjQb/dxbznxRC2BBGyrtZ7yZj+73xe+xE+1z76smW73NK/0928sF1/8YPnEJ64qV1xxuwGxaMz1rqiv9973vsPg1HKq2FtL+fxzue22J+3TFPvOs7Z88Yu/Nrgvt6f/KhtTLnoQ6Fov3JN96LTW6W+A7evV1VXZC11P01J+97v77O/W8vvfP11/7u2dMhprzWnNu/vuxy0+Um655Zny+OPryjnnHG9PU31hbJmjqmTM1v7FF99fz33iifX1OefPn2lvnBl1f+CBT9Zj+rNo0cIybVrLzK1raYnzQt+8WU9f+1o6W6bVMkjn7yt9fTPsWnpLdNmy6lZbSh1u93KaLY0G7cv0PfaGmD7u9YaHFxr4rXq38hku3/nOw+XjH3/YoHxb3devX1d+9KPv19dpvY10Te8tLWygk1qnA6CiyVTDtsTQlzwra89QmTKlZa6BAZl0o8U0x76S9g5aXGtwzRu0ea39oSF9MdxSvvKVvyjHH3+YralX2VLjAXuidpULLjje5lbWZcpiy4ln6rm9va1rbNr0vK3PN9iSZ4N9x7jRABsphx66q63HZ9gyZ3MNXHe3jm32ofLznz9evvSlUpYuXWyx/7Cu5VJP2W23N9ga/o+2Zh8sTz75tH1XudjmLCzvf/9bbC1/QDnllEfsrfBcfb0zzviZnX/Yrje/7LnnzNG8h4efs/NttGXTtHLjjb8rZ599gx2/tBx77DvKRz96evn856+0c9iU2vzadmzr5CWQzO8ADJphWoacNm3AjL6hruiMGfql41mLtZ7WM2duMlPLwMWMtI/Nk1FsQTBd6+EN9sW3tSR67LE/mMGeLmeddUAdnzdvqz3NNUfgyDnP2tJH57ZFRPez5c4777Qvna+37wsLy8EHTzXDrSgHHbSXPZH7rW8xc+5pptvNZgtS9UF726wtGzc+bvOONRiOs+XNEfZr0dm2rHq9ff+4u8yatbF89rPH2NvoMPvy+mR55JE/2HG63gYD9L/snAvLqacu2OZ6fX21q22ZtMlm9pvh55RPfvLU8pnPLLOfhx+0662zpeJwG3wB6RrqzJ3bLEutCfSb71Tr86wvtr5fubpf/xHcr/1Z44rvFL8Nt++zz7azrb+hOvLIt1dVNVLddNP51ZIlR1cjI0PV9dd/1WIHVvvue3j9+bLLvlrttdeJ1caNT9rcqrrqqgvt71B15ZX/YvMOq3bd9ejqiSfusrFhhas1ax6qt3fc8W/V5ZdfYPtD1aJFR9jcg6sbbjjXPg9XCxf+dXXMMWdWa9eurudq7KmnHqhOOeVMm3d0tWrVtfV4f/9v7fM+1t9oXfovq84444Rq3br77N621nMGBp6t7rrr+qq7+yiLH1Vdeul51ebNz9SxkZHh6p57bqtmzfpwtWLF39k1Htnmeief/Ilq6dITbWyouuaaf7LjD7J+SHXffTdWw8MD9dytWzdV1157jo2r5rtZ38W6vd4m/5tA92j9RXtY6zth7us8/eKgn9y0vp3VdXX/3dVxc//c9vUk1FNTTzU9oSo7wA6bvK2dk9bYyklf6pSX/5NH+er+9ZTT8keffa6Whd325JxjXxbX2xtBT/06Z9sqNrUceOACW3P32pNWT1Idr7jeMFusa9mk8+rtqvm6fqsffPC8ev1+++164+gYnXu4rFgxzb5w95cHH5TGOl73o3W/fhmaWXbffRf7Aj3ffqH5X/usY1pvIt1nT89U+xl2d1v/P2u/Pun6ns8Ue3vMqa+3cqWe/Lqedx2v/Fv5vPnNc+0XoLn20+n/WL5a7uk+VHO91XTMpP+PcLve0u1FeVgHdDIATWPrVw2Jo6JrXAaQWbRVk2EFgbr2m3N8OeCm9l9IbFp9vOJuaJnrBRO2zqdr+nltd3S979fXVsc7PJrTMmfrJ1Ddt66tebqW34/OqXl+v4qr697VNe556r78WM1RU9w10b7iAlnGF0xufp9vQ5OzvVQAJF5HNqu+lm9qKqqatv50dXNr3AFww2jrXbFm17gbWYZRU9yN51uN+Tm01Vx17atpXvO8Y8+hOTKsDCgj+rHNeTZcn0/34+f1c3qsOd68N83zOTq3zqGmcV3Xu9+nYh3ZOhYAVcuq34RAxXQYomK6YXyreW4WP0Yx7824my+ar7l+Xp/jWz+Pn8PnOgR+XHOez2lum+cbe8zYY/04n6etX9+NP+mXukri5bSOBkDCWFUdgqY5JtLMDdGc48eOFxtvXnNM+3/qOM3xa2hfzT/LjK9U83M2zzf23uo5Njje3OZxHbHf8QCoSi+ymBMVvo7Zn21MswPnn+icf8pIo9eMrqP7iWJ/6uQWfzn3tgOnn9xTUgDwSpfgZZjtJd/KRNecKPaSL5jkQH0BoqFAWgUAIG3pSVwKAAA+SK0AAKQuP8kDAB5IrQAApC4/yQMAHkitAACkLj/JAwAeSK0AAKQuP8kDAB5IrQAApC4/yQMAHkitAACkLj/JAwAeSK0AAKQuP8kDAB5IrQAApC4/yQMAHkitAACkLj/JAwAeSK0AAKQuP8kDAB5IrQAApC4/yQMAHkitAACkLj/JAwAeSK0AAKQuP8kDAB5IrQAApC4/yQMAHkitAACkLj/JAwAeSK0AAKQuP8kDAB5IrQAApC4/yQMAHkitAACkLj/JAwAeSK0AAKQuP8kDAB5IrQAApC4/yQMAHkitAACkLj/JAwAeSK0AAKQuP8kDAB5IrQAApC4/yQMAHkitAACkLj/JAwAeSK0AAKQuP8kDAB5IrQAApC4/yQMAHkitAACkLj/JAwAeSK0AAKQuP8kDAB5IrQAApC4/yQMAHkitAACkLj/JAwAeSK0AAKQuP8kDAB5IrQAApC4/yQMAHkitAACkLj/JAwAeSK0AAKQuP8kDAB5IrQAApC4/yQMAHkitAACkLj/JAwAeSK0AAKQuP8kDAB5IrQAApC4/yQMAHkitAACkLj/JAwAeSK0AAKQuP8kDAB5IrQAApC4/yQMAHkitAACkLj/JAwAeSK0AAKQuP8kDAB5IrQAApC4/yQMAHkitAACkLj/JAwAeSK0AAKQuP8kDAB5IrQAApC4/yQMAHkitAACkLj/JAwAeSK0AAKQuP8kDAB5IrQAApC4/yQMAHkitAACkLj/JAwAeSK0AAKQuP8kDAB5IrQAApC4/yQMAHkitAACkLj/JAwAeSK0AAKQuP8kDAB5IrQAApC4/yQMAHkitAACkLj/JAwAeSK0AAKQuP8kDAB5IrQAApC4/yQMAHkitAACkLj/JAwAeSK0AAKQuP8kDAB5IrQAApC4/yQMAHkitAACkLj/JAwAeSK0AAKQuP8kDAB5IrQAApC4/yQMAHkitAACkLj/JAwAeSK0AAKQuP8kDAB5IrQAApC4/yQMAHkitAACkLj/JAwAeSK0AAKQuP8kDAB5IrQAApC4/yQMAHkitAACkLj/JAwAeSK0AAKQuP8kDAB5IrQAApC4/yQMAHkitAACkLj/JAwAeSK0AAKQuP8kDAB5IrQAApC4/yQMAHkitAACkLj/JAwAeSK0AAKQuP8kDAB5IrQAApC4/yQMAHkitAACkLj/JAwAeSK0AAKQuP8kDAB5IrQAApC4/yQMAHkitAACkLj/JAwAeSK0AAKQuP8kDAB5IrQAApC4/yQMAHkitAACkLj/JAwAeSK0AAKQuP8kDAB5IrQAApC4/yQMAHkitAACkLj/JAwAeSK0AAKQuP8kDAB5IrQAApC4/yQMAHkitAACkLj/JAwAeSK0AAKQuP8kDAB5IrQAApC4/yfdMIEFXO+ZbfdS+elW1thqjocBkUcD96ffj3vWtj49uJwLAJ+lgvSnUfV8xY4CGApNGAfemb92vE97gRADoRGo6Ubd1ze21ribzA0AtBX8miQLyq7o8Kq/Ks/Kumnu59anxd0cA0AmnWt/aPk6fR9r7bFBgMikgw8vT06zLs/7AflEAjH2y6yTTratpf9g6AEgN2mRTwFcrMr886wD4fY71dk2L3g/+pdaXNjK4m1yvkj7r/nrRuM+zXRoKTAoF5E91QSDjq8u7au7nUd/K8wqMXQJpUE94LXcGrJeuq/tv1ZaGAjuxAvKyPC1v18b3XERM3Wy0SY9eHzOtz7Cup7+TpIP9BL61IRoKvOYKuJe19X0ZftD6ZuubrD9vXSCM2ITav9EboH7628Qh63qV6LVCQ4GdTQEtfXw1I0/HbwBlZkg4PXriqwsQbX3cdmkosFMooCe8ukyvB7m2NQD+9LfPo68K7detAYFMryc/5m9Jw9+dTwGHYPSHm6b5lY7MvV1rQ6DxcePbHcAACkxuBQSCzFxvm7e6QwZvANE8ln0UmNQKjGf4SX3D3BwKvNoK/B9+BMK32pbl+wAAAABJRU5ErkJggg==;" vertex="1" parent="1">
          <mxGeometry x="200" y="417" width="192" height="434" as="geometry" />
        </mxCell>
        <mxCell id="suu0JaHc6aoQa4eEZUap-100" style="edgeStyle=orthogonalEdgeStyle;rounded=0;orthogonalLoop=1;jettySize=auto;html=1;strokeWidth=2;endArrow=none;startFill=0;dashed=1;strokeColor=light-dark(#01b050, #ededed);" edge="1" parent="1">
          <mxGeometry relative="1" as="geometry">
            <mxPoint x="200" y="908" as="sourcePoint" />
            <mxPoint x="440" y="909" as="targetPoint" />
          </mxGeometry>
        </mxCell>
        <mxCell id="suu0JaHc6aoQa4eEZUap-101" value="Internet 公网" style="edgeLabel;html=1;align=center;verticalAlign=middle;resizable=0;points=[];fontStyle=1" vertex="1" connectable="0" parent="suu0JaHc6aoQa4eEZUap-100">
          <mxGeometry x="-0.1835" y="2" relative="1" as="geometry">
            <mxPoint x="10" as="offset" />
          </mxGeometry>
        </mxCell>
        <mxCell id="suu0JaHc6aoQa4eEZUap-102" style="edgeStyle=orthogonalEdgeStyle;rounded=0;orthogonalLoop=1;jettySize=auto;html=1;strokeWidth=2;endArrow=none;startFill=0;dashed=1;strokeColor=light-dark(#e78502, #ededed);" edge="1" parent="1">
          <mxGeometry relative="1" as="geometry">
            <mxPoint x="200" y="937" as="sourcePoint" />
            <mxPoint x="441.5" y="938" as="targetPoint" />
          </mxGeometry>
        </mxCell>
        <mxCell id="suu0JaHc6aoQa4eEZUap-103" value="Internal 逻辑链路" style="edgeLabel;html=1;align=center;verticalAlign=middle;resizable=0;points=[];fontStyle=1" vertex="1" connectable="0" parent="suu0JaHc6aoQa4eEZUap-102">
          <mxGeometry x="-0.1107" y="1" relative="1" as="geometry">
            <mxPoint x="-1" as="offset" />
          </mxGeometry>
        </mxCell>
        <mxCell id="suu0JaHc6aoQa4eEZUap-104" value="Managed&lt;br&gt;DB&lt;br&gt;Service" style="rounded=0;whiteSpace=wrap;html=1;fillColor=none;strokeColor=light-dark(#00b0f0, #ededed);dashed=1;fontSize=12;align=right;" vertex="1" parent="1">
          <mxGeometry x="770" y="928" width="493" height="56" as="geometry" />
        </mxCell>
        <mxCell id="suu0JaHc6aoQa4eEZUap-105" value="Middleware&lt;br&gt;Service" style="rounded=0;whiteSpace=wrap;html=1;fillColor=none;strokeColor=light-dark(#00b0f0, #ededed);dashed=1;fontSize=12;align=left;" vertex="1" parent="1">
          <mxGeometry x="556.03" y="928" width="205.97" height="56" as="geometry" />
        </mxCell>
        <mxCell id="suu0JaHc6aoQa4eEZUap-106" style="edgeStyle=orthogonalEdgeStyle;rounded=0;orthogonalLoop=1;jettySize=auto;html=1;entryX=0.489;entryY=1.028;entryDx=0;entryDy=0;entryPerimeter=0;endArrow=none;startFill=0;" edge="1" parent="1" source="suu0JaHc6aoQa4eEZUap-49" target="suu0JaHc6aoQa4eEZUap-73">
          <mxGeometry relative="1" as="geometry" />
        </mxCell>
        <mxCell id="suu0JaHc6aoQa4eEZUap-107" style="edgeStyle=orthogonalEdgeStyle;rounded=0;orthogonalLoop=1;jettySize=auto;html=1;entryX=0.52;entryY=1.072;entryDx=0;entryDy=0;entryPerimeter=0;endArrow=none;startFill=0;exitX=0.925;exitY=0.691;exitDx=0;exitDy=0;exitPerimeter=0;" edge="1" parent="1" source="suu0JaHc6aoQa4eEZUap-49" target="suu0JaHc6aoQa4eEZUap-74">
          <mxGeometry relative="1" as="geometry">
            <mxPoint x="906" y="589" as="sourcePoint" />
          </mxGeometry>
        </mxCell>
        <mxCell id="suu0JaHc6aoQa4eEZUap-108" style="edgeStyle=orthogonalEdgeStyle;rounded=0;orthogonalLoop=1;jettySize=auto;html=1;endArrow=none;startFill=0;exitX=1;exitY=0.5;exitDx=0;exitDy=0;" edge="1" parent="1">
          <mxGeometry relative="1" as="geometry">
            <mxPoint x="200" y="970" as="sourcePoint" />
            <mxPoint x="433.42" y="970" as="targetPoint" />
          </mxGeometry>
        </mxCell>
        <mxCell id="suu0JaHc6aoQa4eEZUap-109" value="实际专线链路" style="edgeLabel;html=1;align=center;verticalAlign=middle;resizable=0;points=[];fontStyle=1" vertex="1" connectable="0" parent="suu0JaHc6aoQa4eEZUap-108">
          <mxGeometry x="-0.0775" y="3" relative="1" as="geometry">
            <mxPoint as="offset" />
          </mxGeometry>
        </mxCell>
        <mxCell id="suu0JaHc6aoQa4eEZUap-110" value="" style="edgeStyle=orthogonalEdgeStyle;rounded=0;orthogonalLoop=1;jettySize=auto;html=1;entryX=0.25;entryY=0;entryDx=0;entryDy=0;strokeWidth=2;endArrow=none;startFill=0;dashed=1;strokeColor=light-dark(#01b050, #ededed);" edge="1" parent="1" source="suu0JaHc6aoQa4eEZUap-92" target="suu0JaHc6aoQa4eEZUap-80">
          <mxGeometry relative="1" as="geometry">
            <mxPoint x="415" y="262" as="sourcePoint" />
            <mxPoint x="890" y="417" as="targetPoint" />
          </mxGeometry>
        </mxCell>
        <mxCell id="suu0JaHc6aoQa4eEZUap-111" value="Viatris&#39;s Shanghai IDC" style="shape=image;verticalLabelPosition=bottom;labelBackgroundColor=default;verticalAlign=top;aspect=fixed;imageAspect=0;image=data:image/png,iVBORw0KGgoAAAANSUhEUgAAAEgAAABECAYAAAAiL3M8AAAAAXNSR0IArs4c6QAAAIRlWElmTU0AKgAAAAgABQESAAMAAAABAAEAAAEaAAUAAAABAAAASgEbAAUAAAABAAAAUgEoAAMAAAABAAIAAIdpAAQAAAABAAAAWgAAAAAAAACQAAAAAQAAAJAAAAABAAOgAQADAAAAAQABAACgAgAEAAAAAQAAAEigAwAEAAAAAQAAAEQAAAAAR/lKewAAAAlwSFlzAAAWJQAAFiUBSVIk8AAAIiRJREFUeAHtfAmQXdV55n/uft++9OtF6pbUWkBCC4sEwSyxMMYTsEniMiIGTzJ2TYyrXGPXJJOMp1IzNT1Tcc04GSezeSpDnLFTLteU0cQGs9WAjYgNlgEJkIQEQgutrfd+3W+9+z3z/fd1t7q1gCCynJrKEa/fufeee875v/Pv5zyI/qG8KwLiXZ9eoYe7pNT0KbJnddLSeQreJvK+IERwweGlFENE4t8SSSGEvGCby3jzlw7QT4/Jqxwl/khkyGsCPc6GhhhTFXlc1cTBAVvbd60QLaZXAsSftIPNURQP6IpIU6y6uq5O2pKGr02J05cRkyVd/dIA+ul+WVQ0esDV6OO+GXX7pvQjnVxSKVLAIfg0VSU+Yiviu6ou48BTPovJrlIEFYUUGuoSbVqqIqbwfUjTlJ3bLHFsCXWX4eKXAtChQ3JdS6GvOypd7epx2zVjJ2BwNApVgINJKXMgKToqJElXFQpZqObu8zdxnTEQUlHx3DMN8V+uM8X3+d7lKlcOIOiOHU8N9+iRcldGU7Y3fClsXe/uyuhGX5cpykVd5lJqAo4fSLXRCmW1EQRuEJMhSBQyulK0VTWPjwUZg/YR4CYghDqDCm0EwBRNlbuEqvzFdRaduBw66ooBtOPxU8uD0P8drGwPr65KWlkjtcB1prSQUZU1fWmtt6AZh0625Okpz3d9GTAIXGJ88paq9OR07apuy1zTbRqKUJmFEnC4GXMU46QK+YZlKl/faIqD/O7fpVwZgMA9n3p0+PMRxdfMT1YXRkmRojh/zd+qKkgDQ/hhDKUMwbpI0dFooGTod6zLZ3ImtFCnXSJ+XMdHQkbHNCG+sDkjxi/SzSXdZlH+hZeHHiYtIrl5fiDgJWQcnzd2FEnyghgG6+LgcB9BGMvjE67/+P5qfbIZhrgFXjpbIHMCYyzDg28elbL77JP3Xztvku+/i/d+o9F7eoOkeI4jFKhcz5aam3nvN8+2MDUITiJMZ++NNYLw0X3T9WOTbR+gsi6CRuLnyR+SMfW2mjS0r/HBQboiAGH292JRgZBUgtTIRj974tfczImbfXtsRUdtnCX6QrXYbWqZt354y7LqoavStmbNt+HJN70ofuateuPwRNvt4IKRcH/uIzHotbi874iU5vx77+f7igAEYHqk7uSD4pFPxtb0bSSCklS9nGePrm+XDmwP9HqirC808YzmZ25d0f6Vuz55ezHjn169xZ5eP9BlLGnvBHH8o7frzSmIGwMDVu2wEOog0MCNB50GDV6o//e6d0UAoszpa8PM8H1ShFDKgg1SZ4UlVJEMjTB34oYwN3xNxEDBqYGYiLIZ5G7ocq76R4P+TWt7MxnHi5xIN53JGWe2L62kenNaOnGG5ihkkJ48OFNvBtA+Z6nuVAVZQOorHNKcfXRptff9wqV1u7SVpjkno1i5PVKiIBKUxFigAvCwzkBFxmqo15eT1qykosLU9VYlWplTunKWmm7HIjhWlSePVlNj42JNmNO6faUdp0gTqqkoqhvH0fxorJOePFitfWpLqcjWcGH1WelL2lRp0WfQ9q/n21/K9yKwL6X5B2vz6ReeWeaF8kwchezPxJEa+8AlUgS7LFCurF6hgq/W8sptpT6laJkce8nTjWDm5yPqm5OO0ohlh/N4BpamqPmsZtXqgedGkq3YkrJ9TS576+psGkp6oSSECpo1JT1wdU5MLTx4j8ovjIMee1Uuw6p9vCvrXh8o7s6/OLOHHJ6MhAiFwpKKDPGJbFWjXs1Wbs70qKtzeeHLiMbcltxTn46PtFu6GnenFMrhVd2fp8UL48j1woDgNwm4Buc6TIfGHWddxTIraT2hb4ELJGWB5q9jDt/quJfzPV78e+Hdizd5f0++/5Isazpth/X4BDpfU8m4TVMN6IX6qQ8fbk2nTnr1OYIkLTcycluuO746U1BSmkanvYY81KrGh91a7IGDQJ2AzxiLyK4KrzAi3eyUjLWEY0yNw7VY+DFFizmFZ8ue+a0r05lbB3MZOItLCMDlK5qkf7MhJ6aXPLjIxWXloKf2yZvDiB7Eim7AHLlvqBzgIZRoQ6pyLK/amweDNh1uT9J16S7akCuJnG6os75DL06NyrfcmahNIdSTIjPwexw4hFlDF0HklVVzumBlvNmZWvZ47KVnIzjbaoLRIjmaI5Jt+6sjTvum/kxaM8BmiwrmdpUb0QBuXRmAsNDixcOUqbbpD/yQ7gIw3pIZzU1OJcWxFFVuMAri7mI/SV1QK3TpjZlJ+ml9lJpxBC0EplFFyDRBt4DOWLSCQFasFGtyLYzblVKp1RP42ZNeo+uIrkCZgcOSQG0RCFxtumH84qlm8651+ew5HFZQdeKQ5/VzXrng5YKiv+DT97j52AHZ88Rr9CmA8y00/TCDc6FXHM8z9+5+blCePBGtzuZo6swxGp+ZoXcabfoJwJkNWb2A0Vhhh0L3gxgCJ8AfirRUlRwod9YzpqpKWPE4lXL6rx6YuW1Vl7s6ZQdZHdE9Gi8yWx3r+PqZtoPMAL96tkBl4cZHzt5499oHErGnjkjTrdNdIqS7MdjVGIJDoaUTwY2p8eO5We907+r1V3ddtWVt1wvP7KJS/yA1X/obmtn0UbKXr6Y7CoM04jfoBHTTFMSPC1ZcafsBqxIO5yNd0cColASyy1NpMQWuWpa2TD0drc6lou6GIyeOTqlnPF91YPMXZA5xXbx/tOVu688g8dgprMBUKa+Gd3+zTnQAFjTJWM49Pu9rcYx33sML3XgCmcDIo3+PiOo38JxTF+dxIYjBfEJdz05sOnB0X58zOpku9S+j/Xteo0whQ6a9ieTKQVZNbOMpq5nUb2apqNk0HrRAIV4HN8UxCVgsNYCroyAPC4unkKrJzfmickOpS2wulJRQl8Z0VCt0p4NKI0DizTeaeHtBytnr3NiXspPlw0wLOjKZ6OptN77lpAyOf+uP//j4heicv3cecfMPFn8/8ohUnzwoex97Tf6TOKD/g8GuxxTOA5cNhqVJY1Uh6C9nJ27pzWfTW2+8URzY8wrdtGwlff0r/4qO7X2dXn0H2ttPQd0s0IHuBPUYafpYaTWtsgpkIR8LQpPihZFabTv6jOcJCw3TuiEsTYNYCUKAJTJwp3zy7YGuxnXZ4pkbDLNdEEqczG+6FUV1B24q5mupMj0Vytp4ENc8GZutgP7l4+32fXukBDNduJxH5LnNHjkoDbtAn0BS4Qsg507QdJaqucbM0+zG9efCnsES2F73l0/pmrDBXHq9SVs3baK+SgXCL+mGG2+Wz+0mccO1eVqTVwnZDWpH4KS5vjgFttzKgZusRFk0sSLMUUiCCAcpkllMpBb4VPN9OeY68lSrJauuJ1lPzeKeooZp23IruhZZ6DoMQgSBtqKVM7qOcbwAAuyjP4gavslwJW0eiZz6o1/9D2+dSztfz8/rQs/ohy/LG5G1+TwUYD8a2BdqxOBULJlLF86sXmlUMgosUdXx6TReGsAMi7ZOIWwyhxQ1ZZYC6ctvP6aJez5UoU09MSFUoBHHJcSa5EOUmGt4UioCBbxO436TXmmMAkQmC894hcAOWd2Qy9OZMAXL6AJgZGdBupQwfqQhQQ2rCZdd8XzfnIq90vDmnryybXU6jV4kLEnswX3yUG/ztQxbihF/9Xft4k8wxJJyHkBstp9+ibKBQZ/Hw3vQ+qJiqKukDhaiFX2ZEH6FVKZpKs6JnPLUC69Sf/cA9RczVC6mWX/QiDxDubhMOSVNv3rfg/TF3/4tevBTUGOgmv0W5qK91VmaAaExrvkfbBPpSIU9Wz1Ok9BNDBB/5nQU2hEVTTNanslEwAbciIAE8DJR/G7SC/RYDH+y0SgcXp4t1W69JpcOFSnBPbEDcBwAheYYR4wC/S9/LpMZ4+v5ssSKPfWqrDy6l25VDPotNFiGDzPIecWEnknbzdK6nDlg6zLNouPgny1spUENOvjqXpocqNIRZG5u+pUNVChmaUCsgGcHIgDEjddvSYjEcicE8wDIxdPt3V002nboeKtNU66buMhMeAvCEMK0MVedW6qep0LklJJpRfhwmpIdUzRD33gX6815Nr2Qn90847dm95woT67pL7ZiXU+4iPvTgYwai15DUe57Ssq/vEeIBXdlAaCnD8gtcEdYnNZjBfj+eeBwqnhFPu7uTYfLFSQp2qIBhk9LFzs2FplCga5LUZp+9/5P0/6ZA5TrylBvoQf3UslqsmgoAGVZT0/CJax/eD+nQwz+gqBe24JV02g/2jJY/KwBh7IaYAFUA5/z9WkIFplwWtqs78mibsZ5w4pAR8JNyFgLpHIBElx7zc9PtycyM6Pv1MuVwni3vbYBzxRmnwQ4CHaS7oTP9hQGPY5PUhYAyhr0q6ks/eaZKr2DeYcs6vONeCHSurQ3dgcbUnqc79y3KS1MqlMDLJTBTp7KS0dj4RRVy1W6vfQRCF2I59OwNAYZIC6GTLD4lAo5MkydItWjM/E4dSklwJpN9NR4vU0/2n+SBtdX5odPwPXikPjTws5Z0YAFhOTzBBP5mPt2o1CMhKE66XvKQCoT2tBPIVAH50HMYtmZI15t2oVDyt8a0/ZbrQ2FO8ZSWtFXZAzBUft0P/4IujsfIACiYM65NT20aaqOxQtgFEIKUro0uzNhpduO+iFabFWTifOKsH+Yk3mBSUAMXJoRVYhZmgbjdQQzSh46aDJoymkqyCJllRS1G3VaNdCP5LxDBrpbKVaSC03gGE16eX+NDp2cTpQeCGcOxqIyCJ0xuc7R/oTXoLRqkg2S4G3j7tLiAaijjVm9qFtRl2nHNrZoVYgwtq2T1ryXVm5ssVvqQTo68+Sq/tTVs93m2oaiFkJVaHejt2/O97jAQQmjY0oKNqwKaVqGnGYZusxFZq+UNmQWGFA9bnPaBmIhyJappI8A+a+W0uL8FekR0ET6wgDPNuJpZHtU6qMiqKzArAbkQ7Sn4ylasX45BZNOokhbMLzDqBfXIIg9M8tyxqaKMmSMWRRaHrKQYALOrS0UrjfhrYJj4C/pySdZr4UWnW6mPVdthIFSgth1WXYEOLl3Dmkw16wSB2Ut1GpUdd8sUzSWrRirG4axRv+5J6+52RSHuLsFgFCH2eA/PEUpSqmwnEY0iAwoUg5gbQiLqZiQV40c2aKWmIBZDlh4KCfypEP/ZJSsiOEQjcgRGcJ1W6mswtp3BMEScPzwbrprNbVhXCmbpjdHqrT3aGfb6tYV7DXBgcTHNNBO6NU+NTfTkG4FXazB7fOUTwhugh8IV8GnFDjKgHN5bvGjSIxHrgrrqHQZdlSB1eu04c2VLo2sOq6FDKKm0fQPl1Q5movCyg60+XfcboE/wTzJIoCc5LvRbqs1x2H/j3zsatlqFrrEgiWBUgOujagJ0XDhHCH7OYcze7asG2DgxQqIzqhyRjLX8JIlS4e+uG0K+qacL9C+4QmCl4yNeB4VCCCS6CtnaWVPDiCB2YXilZXMmZvH1t+v+fqTeJ2DNWaChcIXnBBiRd4I4dksfZy04zYegDoDRf52s2E0Ixh6jKfCi1LC7AIGIBzRn6O70Ykb5wdYeMhaH+MkBe8mKLlBSCPtaQpdbqZRgAVylQAG3aMVykoaVFYjt+FQQ9QhZs3EL2EgeJLshyyXAyKQEEHQFeK4Tw0O5N7jE/Q3u48AmBhWRSXXx34rXlIDmyr5FK5DevvUDCtzBKmJsYiLvlkr/I/BL5tjmS8pgfoc9N8Fzw6xfpoNMbvE+54jpkPSwt82Nj6ONBv6yVZLbwZClZGBmQpwnwpZgB+fECDg13XKAk9yd+yfKTDl+E5WlAHlf03fJwZLN9GRYcLZs5NU5zicP0tYZEkrWcUZpHoz4A5DYqdlDqg07rCqVeETvXxkLFHCBoBJFgHDlHMWLStnKBMVaAy5Ieya4l12ZUSoaFgNmJ9sXm3Hhh+ln1j+t/7a+kFvfX1r1O18IVblFt5tSyaLv/OFAQpEBJnU4AAukDj/OFmQKT9Q6lEsBgxDr6QN5FOwWLCyrGds9ewCLHAQvPyY5waOZyaNOWMH9zThCr6BNDA1nYAaDRcr5FFdbVKPugJWrJiIHkikmbhGYzDbTTiLDCyHF6erTfrvj+8j22QDCF8Efg/fZ4DW9ZdwaMGi46O1JKxg7mFw+CHEBtoPUaQuws2b8rOtaagRh9qpw+kJ+9HeZ9M/GHxAaxp/jsbwlfECdzhXGDImNQBHueDgC2bU0MYHQLOOrrUQCrZBXxvtEe9Rww+G57o6q4MQAyb53xCYBAiJED8JjqEYmCD5xrD4LwCC2Hwi6RqJyY2hNxqwYqfFGVoj1sBjHgCj6tTW63R8qkbPwqfhCXNhH4j33w3EKD6E5C2Y9HcATnL8AI1M3M+lkfqoQAdh54LfYbGPdZIvvXRzvZqzp0djfxYkt8WUcHLfXvUN80jhNxVffQZ2pTqPUYfvO6CxuAfY+IgS9c89Li1eJBAEs5vSUfis9L3YeHS+1QIHsdcPkCQkKQ7heXbA4dAAXiM64GvOy+Arqdddn6aaLZpBMGmIDPUoA0hAIyB1PNr9xhT1ZCuwcjGAWDAaVMyatKwrS7mUQZbRGZpPdLAOitC2Av+C9cH4TItCsPN8MQwjwfjgzo3+gSdvq8H3rLYa7UZoxL7248rB9PcG/rk2mfrXItSeV3gjY46hGLAELFQYKOarc5gNaX8ErBirDc7gbIET0z51ctX35sdeAAg3JIAAMAjkElASLuIAMHGweOXhdiTgoE3CCT64acZp0yS837rrUQ0+zdOvDdO+dyaT/vnYFysjFlXkiKkK8Tw1Di90GgqdRQkfbtNbylAKXuosnjcAMDt0yJ+eRchfCI3Qr4h3777FWV2ZnFFqrRmv1WwrHjn2kz0/sp8r/YF2Rv+iItXTCRLcOvlA3BkqoMMpfMRc0E3zCxRgByVMRKsdKG802+q/+MK2bQtGYEGDAURO8PGhFAGChMoGHvwdYp4sYslKQNl2hsLA7G3hE6GdA9ZreiGV0zZN1Vzycc2FMeib45i0haiH3QDMkM05r2canFTK2dRo+/CsI7wHnQGrxqK2uMAwcPMlZefO+5k1m9u373JnZ91MWs+nhBtE1uHKs+FN0avh1pnfw1bar0Hf5RkKBoi/OUmnoabDoUUIIqVdxRIHkwhEvhM0l/23h7fdVVs80AJADALPGgTAbqATBgMUcvTNASYUZvIcu+mdA4QYkAFiawFtnugKpoJZ2ACbs76xDJXaEMXhsVn6+C2DCxaKuYU5iK3Z0ZFZSsEx7HROiQ5iEeyEMh1cXG8xBy2ePtHzz9+B1ZC17dufd6Fo01q+YiuvuxOZ3X1/5H56+kmq+A8ITd6GlAscns4/zgrwtpqqheOB5nyvKd2//N/rf//g0p47VwsAAQeIKW+1gFaIlQLOQcoJASW0NgCCrIJ6/g8rwVVGAq8APshd8mpy3ZW3QTj2JPDcAVfNNpk4bkuUsvREB4XgMOamWsvjtzFWIgC0ojtHLTegJjgKwQU/usQi5PPPI6Ww45Fg6/GCk+r20q6NPPQPyi8qq4M3tBtb20Qx+KRiqts1RbPBOwG+/69UnT/LKFMvf2fjH7YuNtACQEgKKEGEmBYIsfB3YvMOB2ksYphuwiH4y+Qw9/CdAFsbRtzxewRcfQ3x1wlwDOOX5IzBRSw+DDJzzsTsJF7lba6O4sepDcrYrKgJFg0ZR8i6yYp2zjZjNCS3zqqjixGS3IfY7U28bene+uuH00o4kVFOZWP3qHzOOKM+Hbmaq/2Okn57nznKCv9d+5p7yPspyUrtejO2sR+lQ0+CZWHiIUqYNs7lMkioY44MEksyyF3o22ddypYKgESwcpOzsEDgQC6sg5jjVvcVUBc0NQuPGk1NnHLmf/mMSWnTAHBYU+gmBpc5j5U0hw8xNCEfkLmQDlqYwAUrIn7xh7K5du1xP7Mpa2fjyKblMAeqb7Zf8lqcccLsoIiTVb5gD/M3tRdOUr7PJN3W4pyNk5UONozcQLJmwesdcDSsPveVgIQ3mTvwH1rguQohY7nkHpM/3IAvOOhU4QiaNDxeSxJjHFow8QH6ciM3aT8NCziLDq9d251YSBY9u6tNM+oZYfsrEDMBSg9t33cR8uhRxET/WAarnn/eXZ4L9Vy2LrQ6bHGDwD3vDQ4PqWVVqnjwyeGWpdjQVBCTnq7CJQIozEFaiKT7HEdwn2x/OvqHRQg0YvedzThzCyswPqG6YaAMYuFXQJ+MVlsJKB0AkTFEWNEq78MRVJhWP5uIlG4g6YnJWFDW2WV1Gpb7yFFuxHbOSngXkRgd897XecYlWA6JeBgh5DBxrp5LsnrzS9m59S5/Nd1CLgthFihMsRjkUkLrClTRaMHcQxw06BcWN0aAszKsK9jEM0jsQAbIGkJOE5B0ELh+RYn2H5uEuGDl0SZJqYJzWPGbhRa9IL9BYqJIH16/MXEimfcihD7tyKFCX4teH38LWUOHzGUZxpz7iFeuyDc+M3QkV6dauJWecIeGhs7K+LsQt/TRpXHM0nfABFAbBWihAka0QLDANWWR1SimEduC3XmSrFATyEEwFwapE6dB0QI89rbZbLPV4rhqrlkCkA3FnEeHnDva036OmsMlUlp5JNzAqrB2mXxI7Z79FFhTtPfUIXi0LSrKAaRE8nNDQkn7rvju0Lr6VtrqH8z9U/OzQ7t402xOkJMp/cL+sCUvwEHMY4EtFgsGCWiILBRSNqUngeX86AwUl3kA+IqB4fsMGN9fCC3wzAZHsS/EYYOJZLuNiD1ONcl2uqHYDXK63qS9yg/o5PQoXAWN8qKfMvVBdulhs73OYJigYVhJfWhIhDt/v99dhda//Yf7Uw/9zz3nJdEw7GUtnBXNglGy0DMpNkYMEjgCpGLTDw5bFr7L4qXimTJOHJEnia656fB95jgLXjBzBnvEOFoBz9qhmaaDPuC9zvRRC07fTYPXUM7I0hEkzKp+lQzoIiNO0yn1FVIG36byhjo19VGOCpKx5oaY+xJyaOiO8Dv/6drW6CjpO76yZ24TYWmry3XFLk0W4UUWvokBjYjDSgAJ8jYfpGZsIAigmPjFhTmHfSbOLvKTeWLKSHp1l1IJ54CnEgLZpDOX9S636MGuL1N12oR3rlGUmyZ7ZoCUoLPN/KHcnVSSa3AqBE5ljFQ094twYPG4i+uPD21rb7S3NnYM7crc/aUjJnRT4rIsbvN3rSsQLc45pkGMAQsMi9P5sMPG/g+LDouJDV9lPo+zeFC0SC4TkMBVtZZLZyYbnSYdEqm7V9Cx6A2yWgMIVOELwfMG4fB1Iipn89S1TCdPR/IcXnezit811cCJURq5sI4ufpdIgyB28c6hO5oDXg3W6jdyi+d2OeosJWmIVxanUBMR4808BoU/iU5iBYw68jMACgwHEPgzX1h98xIzKdyuDUXNnjMX5ryuFXX6sffX5KjVDschemcLxzx3R/ETyD/3IlHlJJw45pyio95eak3jMEChtLGvZK5MgjxopHcvUrTMCbtFRzhnfVmLhpNqOZCIH+whcYQQCCEBZi+w2Qarjv84Bpv3gzi4RCwCAOBZJyCxEJ0Fi29xxjCbUagaTdKh8CX6UeNx0ttl/Eywm0bwHA4Wctt1GotO0Du1UTo8NUK6hQOrkYWMQIP6sev6sS0fxTGavJ5JiY05W9SQKumkB84hnUVquvQZvXX6ReN/fe1upDE/mCk/p9sllwAGoQ92d5Am18AxAqdWJI7fqBFAwFmJBAjmDGYT9oMAJB9wTsSPQeL9MeYghinxgrMujRkH6BVxmHTnKgqaFqUaXchUIzVrOhQsP4jE/zR5WopOyQNUNyZpTbQNEZdFt2/ZRDf2fIi6ihbyNXhM8XexlfPNZSX95JJZ44JN/cEakuQHX4uQ+mjQn5zb4vJcI/xRONmCKBW44Oh6GqcIkNpQ6h7gADAc1bOoJXyCP6xWGAhkZBMTb2A/zIceYrDG41N0iH5MkzPT9KByH50ykNsJcgAWuw1BnY6Il+mN6QOUknnKSOSjm2vhhG2ha/uvAnhFunPtHdh0BHYUfR+c+mfH3z6yf+PGpUElK+NM2deHacLdnn8mHvrzD+I0Xjp4SNxgYwIxomVxMpFr4B4AwxnExL9hpc0chAJcksJgsB4JoGwXCpBjEavVfZjzAerC4ZBj8Ula37WGjGKLxrXD8JCRSWxkocvyZMoMXd+9ldau6qNc1k4yfdj/91yn+UCpmPvBQr+LKju+uCuTLp8Ovw2lzLefX/TsF1Xl5JoBY6HkM8bEbKO9JwiVwThWS+lMRXNxsDKGB8z5YgaFuYchQS2ZD5/7WVz0KEWimcP2NUdxCpWNCh2XT5B7QqH7rr+NbASdQfoA9cgboIvStHVzb8KZOE4/bIj4kRdfH/7qPTevqy/uc8eOR1TauBEpxgkII7mwWBfUR4vfuZx1PgjI3igcRoEf1qabrhu8ie2dcsuJlptWoQA9hNP+NZxlY2dvHiBUcMEKeo6pOsAhLuuuIE6xIno7epWmoXjdqRTeRaaQcHjKzNG9K++jjeXrwYHgJE77hMFfqSF9M5/T9wKchVwwE3nvQ3twmsbHahyMdg7dn3AN37+ShX9/rsJczSeBhW3hnIulT+XT4czpiVqPoafXZbLdwvOwP9qaSsQugQXTTjgJXMTcxbyE0zs4aBPSydoI5dRN2L/HRrQZkOWWIFJ5un3NnUBYJQu6VY3DQ+PTtc9d019+De8vAWZo+y5teBVlWh/d2th5PydZ5lj2SiIzNxZ+tkAvg74+yEQR9RTA4iyjYhhatLq/PDI5XZ+qt7zVppUu5Yr9htNC1s/HyT5EtewQcAqEdRWLX11M0nhzGokFnSo41jiDHdmC2k0fv24HUq9ZWEBscSlyJPK9752ZnPnaDev6Otsfc5PZgdO0vT99WtvrZdXHH95ao29ffrM9N9Qlf/FvPb4BHdQLp3kF/MCV0Mkr8XYP6GWv1O4u52QhHx2enGmXcKi0TzMyZcNMI4eFrBO4ioHpFLgA4CHpIT2CDG+OumkAP/z+8q3/jDKmBXBkXcbhTs8NHx7oSr08/xZ/Dw1JZXj4eaO1e7cYG2tGj++857I7fIvHez917ZqKGAUHjCGX+4YxhYheobwW0HLIz1rIzRoA16/pagnbN67jerVq3Sm6vrIylSqCbiS8cOSeQnAURtWxCa0L/NTnqu3UbJUTz5v1TBj4r1ab7h/hRwY/W1+pzMUhnWnuGHrEGBnZq61aRf7Q0C1XVAFfClAsJBct70hpeePU50jagDz6VeC2VTD1PdPVZvnEaO3q3p5l/WAhxXXq0E+zdP26Ck3jXGFfqQuSh20dVc62m63/ONiX+9r5g+D/xPDQzlyR7ODhh+/9e8Mx585TMHtzwHfug3Ovf3ZK2tkUdQmXVkD3rsQGxoqDR0c3qpq1NWWmVyGos/MZbOvwr1JlPI3s87MNr/Un67qLry3ua2hol/bStKN24Sjad/70Yziy9svXM4vnd25d3Pv4SKqvry94eNtSS3Juw/lriKNAMtwIbcroiB9OnKytrjadD+HYzX1r+ivX9BaCHwsZ/ee/euzl54Y+d8eiKBMcs2O31ds7G5fLdsQ5nfk+/95/PwSQPvPz6Q+UKmDAHnnkEXXXQZn50n996vqnjhzBOZfzy47f+5n92c8iVfoP5f8vBP4f3ht2neQkgC8AAAAASUVORK5CYII=;fontStyle=1;fontSize=11;spacingTop=-10;points=[[0,0,0,0,0],[0,0.08,0,0,0],[0,0.15,0,0,0],[0,0.23,0,0,0],[0,0.25,0,0,0],[0,0.31,0,0,0],[0,0.38,0,0,0],[0,0.46,0,0,0],[0,0.5,0,0,0],[0,0.54,0,0,0],[0,0.62,0,0,0],[0,0.69,0,0,0],[0,0.75,0,0,0],[0,0.77,0,0,0],[0,0.85,0,0,0],[0,0.92,0,0,0],[0,1,0,0,0],[0.08,0,0,0,0],[0.08,1,0,0,0],[0.14,1,0,0,0],[0.15,0,0,0,0],[0.15,1,0,0,0],[0.23,0,0,0,0],[0.23,1,0,0,0],[0.25,0,0,0,0],[0.25,1,0,0,0],[0.29,1,0,0,0],[0.31,0,0,0,0],[0.31,1,0,0,0],[0.38,0,0,0,0],[0.38,1,0,0,0],[0.43,1,0,0,0],[0.46,0,0,0,0],[0.46,1,0,0,0],[0.5,0,0,0,0],[0.5,1,0,0,0],[0.54,0,0,0,0],[0.54,1,0,0,0],[0.57,1,0,0,0],[0.62,0,0,0,0],[0.62,1,0,0,0],[0.69,0,0,0,0],[0.69,1,0,0,0],[0.71,1,0,0,0],[0.75,0,0,0,0],[0.75,1,0,0,0],[0.77,0,0,0,0],[0.77,1,0,0,0],[0.85,0,0,0,0],[0.85,1,0,0,0],[0.86,1,0,0,0],[0.92,0,0,0,0],[0.92,1,0,0,0],[1,0,0,0,0],[1,0.08,0,0,0],[1,0.15,0,0,0],[1,0.23,0,0,0],[1,0.25,0,0,0],[1,0.31,0,0,0],[1,0.38,0,0,0],[1,0.46,0,0,0],[1,0.5,0,0,0],[1,0.54,0,0,0],[1,0.62,0,0,0],[1,0.69,0,0,0],[1,0.75,0,0,0],[1,0.77,0,0,0],[1,0.85,0,0,0],[1,0.92,0,0,0],[1,1,0,0,0]];" vertex="1" parent="1">
          <mxGeometry x="911" y="150" width="157" height="148.28" as="geometry" />
        </mxCell>
        <mxCell id="suu0JaHc6aoQa4eEZUap-112" value="Test VPC" style="points=[];html=1;align=center;shadow=0;dashed=0;fillColor=#FF6A00;strokeColor=none;shape=mxgraph.alibaba_cloud.vpc_virtual_private_cloud;textShadow=1;verticalAlign=top;spacingTop=25;spacing=0;aspect=fixed;fontSize=12;" vertex="1" parent="1">
          <mxGeometry x="539.1500000000001" y="627" width="37.5" height="30" as="geometry" />
        </mxCell>
        <mxCell id="suu0JaHc6aoQa4eEZUap-113" value="" style="rounded=0;whiteSpace=wrap;html=1;fillColor=none;strokeColor=light-dark(#00b0f0, #ededed);dashed=1;fontSize=12;" vertex="1" parent="1">
          <mxGeometry x="894" y="747" width="326" height="170" as="geometry" />
        </mxCell>
        <mxCell id="suu0JaHc6aoQa4eEZUap-114" value="ACK(K8S)" style="points=[];aspect=fixed;html=1;align=center;shadow=0;dashed=0;fillColor=#FF6A00;strokeColor=none;shape=mxgraph.alibaba_cloud.ask_ack_container_service_for_kubernetes;fontSize=12;spacingTop=40;" vertex="1" parent="1">
          <mxGeometry x="549.6" y="732" width="34.85" height="40" as="geometry" />
        </mxCell>
      </root>
    </mxGraphModel>
  </diagram>
</mxfile>
